<svg width="100%" height="235" viewBox="0 0 1599 235" fill="none" xmlns="http://www.w3.org/2000/svg" preserveAspectRatio="xMidYMid meet">
<path d="M179.28 232H162.64L136.08 161.92H28.56L1.36 232H-15.28L74.32 0.95998H90.32L179.28 232ZM130.64 148.48L82.32 22.4L33.68 148.48H130.64ZM284.868 234.24C273.561 234.24 262.361 230.827 251.268 224C240.388 216.96 232.601 207.893 227.908 196.8L229.508 196.16V232.32H214.148V7.04H229.508V120.96L227.908 120.64C233.668 108.48 241.774 99.3067 252.228 93.12C262.894 86.72 273.774 83.52 284.868 83.52C298.308 83.52 310.254 86.72 320.708 93.12C331.374 99.52 339.694 108.48 345.668 120C351.641 131.52 354.628 144.427 354.628 158.72C354.628 173.227 351.641 186.24 345.668 197.76C339.694 209.28 331.374 218.24 320.708 224.64C310.041 231.04 298.094 234.24 284.868 234.24ZM284.548 220.16C295.214 220.16 304.601 217.6 312.708 212.48C321.028 207.147 327.534 199.893 332.228 190.72C336.921 181.333 339.268 170.667 339.268 158.72C339.268 146.987 336.921 136.533 332.228 127.36C327.534 117.973 321.028 110.72 312.708 105.6C304.601 100.267 295.214 97.6 284.548 97.6C274.734 97.6 265.668 100.373 257.348 105.92C249.028 111.253 242.308 118.613 237.188 128C232.068 137.387 229.508 147.627 229.508 158.72C229.508 170.027 231.961 180.373 236.868 189.76C241.774 199.147 248.388 206.613 256.708 212.16C265.028 217.493 274.308 220.16 284.548 220.16ZM455.008 219.52C465.674 219.52 475.168 216.96 483.488 211.84C491.808 206.507 498.314 199.253 503.008 190.08C507.701 180.907 510.048 170.453 510.048 158.72C510.048 146.987 507.701 136.533 503.008 127.36C498.314 118.187 491.808 111.04 483.488 105.92C475.168 100.587 465.674 97.92 455.008 97.92C444.554 97.92 435.168 100.587 426.848 105.92C418.741 111.04 412.341 118.187 407.648 127.36C403.168 136.533 400.928 146.987 400.928 158.72C400.928 170.453 403.168 180.907 407.648 190.08C412.341 199.253 418.741 206.507 426.848 211.84C435.168 216.96 444.554 219.52 455.008 219.52ZM455.008 84.16C468.661 84.16 480.821 87.36 491.488 93.76C502.154 100.16 510.474 109.013 516.448 120.32C522.421 131.627 525.408 144.427 525.408 158.72C525.408 173.013 522.421 185.813 516.448 197.12C510.474 208.427 502.154 217.28 491.488 223.68C480.821 230.08 468.661 233.28 455.008 233.28C441.568 233.28 429.514 230.08 418.848 223.68C408.394 217.28 400.181 208.427 394.208 197.12C388.234 185.813 385.248 173.013 385.248 158.72C385.248 144.427 388.234 131.627 394.208 120.32C400.181 109.013 408.394 100.16 418.848 93.76C429.514 87.36 441.568 84.16 455.008 84.16ZM581.383 176.32C581.383 189.12 585.009 199.573 592.263 207.68C599.516 215.787 609.009 219.84 620.743 219.84C629.276 219.84 636.956 217.92 643.783 214.08C650.823 210.24 656.263 205.227 660.103 199.04C663.943 192.64 665.863 186.027 665.863 179.2V84.48H681.543V232H665.863V205.44L667.463 205.76C664.049 214.08 657.969 220.907 649.223 226.24C640.476 231.36 630.983 233.92 620.743 233.92C610.289 233.92 600.903 231.573 592.583 226.88C584.263 221.973 577.649 215.36 572.743 207.04C568.049 198.507 565.703 189.013 565.703 178.56V84.48H581.383V176.32ZM744.858 35.84H760.218V232H744.858V35.84ZM716.378 84.48H796.698V98.24H716.378V84.48ZM1369.98 234.24C1352.48 234.24 1337.34 230.4 1324.54 222.72C1311.74 215.04 1301.92 204.373 1295.1 190.72C1288.48 176.853 1285.18 160.96 1285.18 143.04V0.95998H1300.54V143.04C1300.54 166.293 1306.62 185.067 1318.78 199.36C1331.15 213.44 1348.22 220.48 1369.98 220.48C1391.74 220.48 1408.7 213.44 1420.85 199.36C1433.23 185.067 1439.42 166.293 1439.42 143.04V0.95998H1454.78V143.04C1454.78 160.96 1451.36 176.853 1444.53 190.72C1437.92 204.373 1428.22 215.04 1415.42 222.72C1402.62 230.4 1387.47 234.24 1369.98 234.24ZM1507.42 192.64C1511.48 201.173 1517.45 207.787 1525.34 212.48C1533.45 217.173 1541.02 219.52 1548.06 219.52C1558.52 219.52 1566.94 216.96 1573.34 211.84C1579.96 206.507 1583.26 200 1583.26 192.32C1583.26 187.2 1581.56 183.04 1578.14 179.84C1574.73 176.427 1570.68 173.76 1565.98 171.84C1561.5 169.707 1554.78 167.04 1545.82 163.84C1535.58 160.213 1527.58 157.013 1521.82 154.24C1516.06 151.467 1510.94 147.52 1506.46 142.4C1501.98 137.28 1499.74 130.667 1499.74 122.56C1499.74 115.307 1501.88 108.8 1506.14 103.04C1510.41 97.0667 1516.28 92.3733 1523.74 88.96C1531.21 85.5467 1539.53 83.84 1548.7 83.84C1554.46 83.84 1560.65 85.0133 1567.26 87.36C1574.09 89.7067 1580.17 93.3333 1585.5 98.24C1591.05 102.933 1594.78 108.587 1596.7 115.2L1582.3 120C1580.38 112.32 1575.9 106.667 1568.86 103.04C1562.04 99.4133 1555.21 97.6 1548.38 97.6C1539 97.6 1531.1 100.053 1524.7 104.96C1518.3 109.653 1515.1 115.627 1515.1 122.88C1515.1 127.787 1516.7 131.947 1519.9 135.36C1523.32 138.773 1527.16 141.44 1531.42 143.36C1535.69 145.067 1542.62 147.627 1552.22 151.04C1562.46 154.667 1570.46 157.973 1576.22 160.96C1582.2 163.733 1587.42 167.68 1591.9 172.8C1596.38 177.92 1598.62 184.533 1598.62 192.64C1598.62 200.32 1596.49 207.253 1592.22 213.44C1587.96 219.627 1581.88 224.533 1573.98 228.16C1566.3 231.573 1557.66 233.28 1548.06 233.28C1541.66 233.28 1534.94 232 1527.9 229.44C1520.86 226.88 1514.36 223.147 1508.38 218.24C1502.62 213.12 1497.93 207.147 1494.3 200.32L1507.42 192.64Z" fill="url(#paint0_linear_397_2157)"/>
<defs>
<linearGradient id="paint0_linear_397_2157" x1="-38" y1="116" x2="1617" y2="116" gradientUnits="userSpaceOnUse">
<stop stop-color="#20FAFE"/>
<stop offset="1" stop-color="#B1B1FE"/>
</linearGradient>
</defs>
</svg>
