<svg width="42" height="47" viewBox="0 0 42 47" fill="none" xmlns="http://www.w3.org/2000/svg">
<path d="M10 22.125C9.24061 22.125 8.625 22.7406 8.625 23.5C8.625 24.2594 9.24061 24.875 10 24.875V22.125ZM32 24.875C32.7594 24.875 33.375 24.2594 33.375 23.5C33.375 22.7406 32.7594 22.125 32 22.125V24.875ZM10 30.5095C9.24061 30.5095 8.625 31.1251 8.625 31.8845C8.625 32.6438 9.24061 33.2595 10 33.2595V30.5095ZM32 33.2595C32.7594 33.2595 33.375 32.6438 33.375 31.8845C33.375 31.1251 32.7594 30.5095 32 30.5095V33.2595ZM10 13.7406C9.24061 13.7406 8.625 14.3562 8.625 15.1156C8.625 15.875 9.24061 16.4906 10 16.4906V13.7406ZM32 16.4906C32.7594 16.4906 33.375 15.875 33.375 15.1156C33.375 14.3562 32.7594 13.7406 32 13.7406V16.4906ZM10 24.875H32V22.125H10V24.875ZM10 33.2595H32V30.5095H10V33.2595ZM10 16.4906H32V13.7406H10V16.4906Z" fill="white"/>
</svg>
