<svg width="145" height="145" viewBox="0 0 145 145" fill="none" xmlns="http://www.w3.org/2000/svg">
<path d="M79.7529 102.204C79.7072 102.216 79.6683 102.247 79.6449 102.288C79.6214 102.329 79.6154 102.378 79.628 102.424C79.6406 102.47 79.6709 102.509 79.7122 102.532C79.7535 102.555 79.8024 102.562 79.8481 102.549C81.3517 102.22 82.7614 101.555 83.9715 100.603C88.5708 97.2058 88.3328 92.3863 90.9508 87.9774C93.0452 84.6156 94.8838 85.0024 94.741 84.568C94.7357 84.5509 94.7269 84.535 94.7151 84.5213C94.7034 84.5077 94.689 84.4967 94.6728 84.4888C94.6566 84.481 94.639 84.4766 94.6211 84.4759C94.6031 84.4752 94.5852 84.4782 94.5684 84.4847C86.3336 87.5133 90.9865 98.3125 79.7529 102.204ZM113.079 91.6247C113.311 91.3808 113.543 91.1249 113.769 90.8691C115.518 88.7449 116.744 85.4546 116.625 83.0329C116.622 83.0068 116.612 82.9821 116.596 82.9613C116.58 82.9406 116.558 82.9248 116.533 82.9156C116.509 82.9063 116.482 82.9041 116.456 82.909C116.43 82.914 116.407 82.926 116.387 82.9437C116.209 83.1162 116.708 84.0682 115.453 87.067C114.263 89.9111 113.222 90.637 112.05 91.9639C110.999 93.1763 110.201 94.5857 109.702 96.1099C109.202 97.6341 109.011 99.2425 109.14 100.841C109.147 100.875 109.165 100.905 109.192 100.927C109.218 100.949 109.251 100.96 109.286 100.96C109.32 100.96 109.353 100.949 109.38 100.927C109.406 100.905 109.425 100.875 109.432 100.841C109.391 99.139 109.693 97.4459 110.319 95.8626C110.946 94.2793 111.884 92.8381 113.079 91.6247ZM60.8379 65.9326C61.4329 65.5221 61.3912 64.2666 60.8379 63.8025C60.6814 63.6762 60.499 63.586 60.3037 63.5382C60.1083 63.4904 59.9049 63.4862 59.7078 63.526C59.5106 63.5657 59.3247 63.6485 59.1632 63.7682C59.0016 63.888 58.8685 64.0419 58.7732 64.219C58.6628 64.4959 58.6429 64.8005 58.7164 65.0894C58.7899 65.3782 58.9531 65.6363 59.1824 65.8267C59.4117 66.017 59.6955 66.1298 59.9929 66.1488C60.2903 66.1679 60.5861 66.0922 60.8379 65.9326ZM59.2016 64.5701C59.3801 63.8918 60.5523 63.7966 60.7308 64.4749C60.8498 64.939 60.7962 65.2662 60.5582 65.4447C60.4152 65.5337 60.2525 65.5862 60.0844 65.5976C59.9164 65.609 59.7481 65.579 59.5943 65.5102C59.4333 65.4198 59.3072 65.2782 59.236 65.1078C59.1649 64.9374 59.1528 64.7481 59.2016 64.5701ZM81.169 54.9251C81.1462 54.9235 81.1232 54.9266 81.1016 54.9342C81.08 54.9419 81.0602 54.9539 81.0435 54.9695C81.0267 54.9852 81.0134 55.0041 81.0042 55.0251C80.9951 55.0461 80.9905 55.0688 80.9905 55.0917C80.9905 55.6867 79.985 56.2817 79.8005 56.3412C79.765 56.3499 79.7344 56.3723 79.7154 56.4036C79.6965 56.4348 79.6907 56.4723 79.6994 56.5078C79.7081 56.5433 79.7305 56.5739 79.7617 56.5929C79.793 56.6119 79.8305 56.6177 79.866 56.609C81.4308 56.2877 81.6688 54.9132 81.169 54.9251ZM79.0806 54.0148C79.0092 53.9731 78.6938 53.7411 78.5808 53.6518C78.5808 53.5745 78.8604 52.5808 78.914 52.3904C78.9675 52.2 78.7236 52.1524 78.6581 52.3071C78.4092 52.7895 78.2098 53.2958 78.0631 53.8184C78.1107 53.991 78.9378 54.2171 78.9973 54.2171C79.0221 54.2205 79.0473 54.2155 79.0689 54.203C79.0906 54.1906 79.1076 54.1712 79.1171 54.1481C79.1266 54.125 79.1282 54.0994 79.1216 54.0752C79.115 54.0511 79.1006 54.0298 79.0806 54.0148ZM77.1171 50.8256C77.1085 50.7742 77.082 50.7274 77.0422 50.6937C77.0025 50.66 76.952 50.6415 76.8999 50.6415C76.8478 50.6415 76.7973 50.66 76.7576 50.6937C76.7178 50.7274 76.6913 50.7742 76.6827 50.8256C76.6601 51.2358 76.6601 51.647 76.6827 52.0572C76.72 52.1182 76.7766 52.1651 76.8435 52.1903C76.9103 52.2155 76.9837 52.2177 77.052 52.1966C77.1203 52.1754 77.1796 52.1321 77.2204 52.0734C77.2613 52.0148 77.2815 51.9442 77.2777 51.8728C77.1953 51.5288 77.1416 51.1785 77.1171 50.8256ZM81.2761 51.8668C81.1998 51.5257 81.1462 51.1798 81.1155 50.8315C81.1155 50.7731 81.0923 50.7172 81.051 50.6759C81.0097 50.6346 80.9537 50.6114 80.8953 50.6114C80.8369 50.6114 80.7809 50.6346 80.7397 50.6759C80.6984 50.7172 80.6752 50.7731 80.6752 50.8315C80.6536 51.2279 80.6536 51.6252 80.6752 52.0215C80.6785 52.0676 80.6919 52.1124 80.7145 52.1527C80.737 52.193 80.7681 52.2279 80.8056 52.2548C80.8431 52.2818 80.8861 52.3002 80.9315 52.3087C80.9769 52.3172 81.0236 52.3157 81.0683 52.3042C81.113 52.2927 81.1547 52.2715 81.1903 52.2421C81.226 52.2127 81.2547 52.1758 81.2745 52.1341C81.2944 52.0924 81.3048 52.0468 81.305 52.0007C81.3053 51.9545 81.2954 51.9088 81.2761 51.8668Z" fill="white" fill-opacity="0.6"/>
<path d="M127.841 43.763C127.799 40.0561 126.556 38.5924 122.718 38.7055C121.623 38.7055 102.101 38.9018 100.703 38.9494C99.7655 38.9497 98.838 39.1421 97.9778 39.5147C97.484 39.711 94.9017 41.0022 94.6161 41.6864C94.3067 42.1743 94.6696 56.0735 94.6161 58.9414C94.2027 58.706 93.7777 58.4915 93.3428 58.2988C93.2642 57.908 93.0974 57.5403 92.855 57.2237C92.6127 56.9071 92.3013 56.6501 91.9445 56.4722C91.3971 56.258 90.695 56.5138 90.2904 56.1271C89.8858 55.7403 90.6117 55.5321 90.6891 54.9371C90.6867 54.5245 90.6388 54.1135 90.5463 53.7114C90.1876 51.5545 89.6868 49.4237 89.0469 47.333C88.5114 45.6134 87.9521 44.1557 86.411 43.2215C86.411 40.3298 86.1195 23.3842 85.9588 22.4858C85.8004 21.5991 85.3275 20.7992 84.6269 20.2331C83.9264 19.6669 83.0451 19.3725 82.1449 19.4037C82.0854 19.4037 41.1375 19.4037 41.0899 19.4513C39.4536 20.4271 39.0133 22.6048 38.9062 24.2113C38.8705 25.0145 39.5726 41.2342 39.8523 46.3869C36.9546 46.4464 22.3176 46.8391 21.4787 47.2854C19.5806 47.7495 17.4803 49.0704 17.0697 51.2183C16.8139 52.5987 17.3315 79.1179 17.5041 80.3733C17.6277 81.7294 18.2336 82.9961 19.2117 83.9433C20.2768 84.8775 21.7286 85.05 23.0078 85.0976L50.1577 84.5859C47.504 90.5954 44.4457 99.1158 42.4227 104.417C42.4132 104.432 42.4081 104.45 42.4081 104.468C42.4081 104.486 42.4132 104.503 42.4227 104.518C42.9702 105.056 43.5679 105.54 44.2077 105.964C43.2378 109.278 43.3449 109.463 43.1307 109.731C41.2922 111.986 39.0728 113.301 36.8832 113.515C35.8658 113.628 34.8602 113.806 34.5032 114.794C34.2117 115.693 34.9852 116.293 35.8896 116.543C36.4846 116.704 40.5425 117.602 41.1434 117.674C41.676 117.763 42.2223 117.642 42.6666 117.335C43.095 117.019 44.5052 115.353 45.0466 114.854C44.0649 119.614 43.3806 118.096 45.719 119.114C45.7516 119.131 45.7878 119.141 45.8247 119.143C45.8617 119.145 45.8986 119.138 45.9327 119.124C45.9669 119.11 45.9975 119.088 46.0222 119.061C46.047 119.033 46.0654 119 46.076 118.965C46.4925 117.775 49.3128 110.974 50.4611 109.207C50.7408 116.395 50.6932 116.02 50.7943 116.05C51.193 116.151 51.6273 116.246 52.0736 116.335C52.0736 117.335 52.1033 118.358 52.1866 119.477C52.1866 119.512 52.139 119.572 52.0914 119.667C50.6158 122.904 48.9617 124.225 47.1648 125.022C46.3675 125.379 45.2668 125.867 45.2965 126.968C45.2965 127.92 46.2723 128.223 47.2184 128.188C48.6404 128.14 50.479 127.95 51.312 127.908C53.692 127.765 53.7515 127.313 54.763 125.272C54.995 124.802 55.2687 124.243 55.4234 123.969C55.7031 127.313 55.3342 127.807 55.7923 127.783C57.0359 127.717 57.5773 128.057 57.5773 127.61C57.6249 126.385 58.1723 121.565 58.4579 120.381C58.4579 120.244 58.3627 120.167 58.2199 120.137C58.3984 119.03 58.8149 116.853 58.8685 116.454C59.166 116.412 59.4635 116.365 59.6955 116.311C59.761 116.311 59.6955 116.627 60.7011 112.48C67.9244 115.33 75.6296 116.014 82.5435 114.389C82.7875 115.336 84.5546 121.785 85.5185 124.612C85.847 125.535 86.2844 126.416 86.8216 127.236C86.9584 127.366 87.1905 127.598 87.4166 127.598C87.6427 127.598 87.8926 127.283 87.9521 126.962C88.0116 126.641 87.0774 117.257 86.7621 113.872C88.1758 113.522 89.5466 113.017 90.8497 112.366L92.7775 118.769C92.834 118.864 92.9189 118.939 93.0204 118.984C93.1219 119.028 93.2348 119.04 93.3432 119.017C93.4516 118.994 93.5501 118.938 93.6247 118.856C93.6994 118.774 93.7464 118.671 93.7593 118.56L93.5748 110.891C94.4757 110.304 95.3382 109.66 96.1571 108.963C96.529 109.323 96.9472 109.631 97.4007 109.879C97.4473 109.905 97.5022 109.911 97.5534 109.897C97.6047 109.882 97.6481 109.848 97.6744 109.802C98.1692 109.054 98.7244 108.347 99.3344 107.69C99.2154 108.457 98.9834 110.028 98.9536 110.516C98.9528 110.548 98.9584 110.579 98.9701 110.608C98.9818 110.637 98.9993 110.664 99.0215 110.686C99.0438 110.708 99.0704 110.726 99.0996 110.738C99.1288 110.749 99.1602 110.755 99.1916 110.754C99.8235 110.734 100.454 110.817 101.06 110.998C99.1202 111.932 98.2337 112.723 98.3527 113.378C98.5851 114.547 98.9114 115.695 99.3285 116.811C99.6498 117.739 99.983 118.703 100.983 119.108C105.564 121.048 112.371 119.631 116.97 117.698C120.873 116.169 121.445 113.693 121.1 110.195C121.028 109.528 120.255 109.451 118.63 109.493L122.587 104.489C123.777 103.067 122.742 103.114 122.367 100.324C122.725 100.855 123.156 101.333 123.646 101.746C123.675 101.769 123.709 101.785 123.745 101.794C123.78 101.804 123.818 101.805 123.854 101.799C124.015 101.77 123.89 101.853 125.366 99.1991C125.394 99.1508 125.404 99.0942 125.396 99.039C125.387 98.9837 125.36 98.9331 125.318 98.8957C124.67 98.3602 123.105 97.1107 123.105 97.1107C123.911 96.9198 124.706 96.6814 125.485 96.3967C125.67 96.3488 125.838 96.2489 125.969 96.1087C126.1 95.9685 126.188 95.7938 126.222 95.6053C126.3 95.1412 126.306 85.7938 126.318 84.5205C126.318 84.3122 125.984 84.2527 125.949 84.4788C125.253 89.1972 122.057 93.1242 117.976 94.2963C118.107 93.7668 118.44 92.6184 118.255 92.3031C117.582 91.8795 116.866 91.5284 116.119 91.2559C116.863 90.8334 118.583 89.7327 118.708 89.3935C118.785 89.1972 118.404 80.0163 118.386 79.0108C118.383 78.9693 118.367 78.9299 118.341 78.8981C118.314 78.8664 118.278 78.8439 118.237 78.834C118.197 78.8241 118.155 78.8272 118.116 78.8429C118.078 78.8587 118.045 78.8862 118.023 78.9215C116.871 81.1963 115.167 83.1459 113.067 84.5919C112.823 84.7585 111.068 85.6926 110.931 85.8176C110.491 86.24 111.038 86.7577 111.27 87.0849C111.437 87.311 112.008 88.0786 112.121 88.2392C110.027 88.4951 109.473 87.7751 109.366 88.2392C109.16 88.8454 108.883 89.4247 108.539 89.9647C108.662 90.4862 108.819 90.9991 109.009 91.4998C108.66 91.5572 108.305 91.5572 107.956 91.4998C107.894 91.4865 107.829 91.4968 107.774 91.5287C107.719 91.5606 107.678 91.6118 107.658 91.6724C107.492 92.2138 107.361 92.666 107.242 93.0885C106.521 91.8653 105.726 90.687 104.862 89.5601C104.44 86.3352 102.916 82.5689 99.6974 82.0691C102.119 81.0576 103.708 78.4574 104.088 75.8216C105.231 75.8216 121.736 75.774 122.403 75.8216C126.014 75.9227 127.627 74.5423 127.966 70.8593C128.103 69.3896 127.841 44.0307 127.841 43.763ZM45.6773 114.604C45.6923 114.541 45.6829 114.474 45.6509 114.418C45.6188 114.362 45.5666 114.32 45.5048 114.3C45.0228 114.122 44.6539 114.544 44.3862 114.848C43.7084 115.673 42.9641 116.441 42.1609 117.144C41.7146 117.359 36.5203 116.282 35.8717 116.079C35.5226 116 35.2189 115.786 35.0268 115.484C34.9517 115.265 34.9599 115.025 35.0499 114.811C35.1398 114.597 35.3053 114.424 35.5147 114.324C35.9729 114.044 36.312 114.068 37.5972 113.83C38.8824 113.592 40.1557 113.36 42.3929 111.254C42.7046 110.955 42.9949 110.635 43.2616 110.296C43.6331 111.122 44.2585 111.808 45.0466 112.253C46.1026 112.722 47.2818 112.837 48.4084 112.581C47.8134 113.771 46.1712 117.489 45.7606 118.626C45.4334 118.495 45.1002 118.376 44.7729 118.281C45.1415 117.073 45.4434 115.845 45.6773 114.604ZM97.9302 82.0215C97.0933 82.0573 96.2621 82.1769 95.4491 82.3785C92.7841 82.6797 90.1045 82.8347 87.4225 82.8426C87.0298 80.4626 87.1488 80.9029 87.0477 80.2424C87.006 79.9568 86.9465 79.5641 87.1548 79.4392C90.0048 78.1659 92.9679 77.0116 95.8061 75.768C96.4011 76.2024 96.4487 76.1488 96.5022 76.1131C96.5278 76.0856 96.5419 76.0495 96.5419 76.012C96.5419 75.9745 96.5278 75.9383 96.5022 75.9108C96.27 75.6762 96.0257 75.4537 95.7704 75.2444C93.4862 73.2017 91.8952 70.4981 91.2186 67.5094C91.2107 67.4739 91.1891 67.443 91.1584 67.4235C91.1277 67.404 91.0905 67.3974 91.055 67.4053C91.0195 67.4132 90.9886 67.4349 90.9691 67.4656C90.9495 67.4962 90.943 67.5334 90.9509 67.5689C91.455 70.677 93.0626 73.4992 95.4788 75.5181L87.2738 78.9096C87.0366 78.9792 86.8281 79.1232 86.6788 79.3202C86.2681 79.2085 85.897 78.9838 85.6078 78.6716C84.0608 77.4281 83.442 78.2789 81.4428 79.8616C81.2495 80.0074 81.0666 80.1665 80.8954 80.3376C79.8386 79.3977 78.7854 78.4536 77.7359 77.5054C77.4682 77.1127 75.0287 68.6994 74.0291 65.3198C74.8018 63.4463 76.0485 61.806 77.6467 60.5598C77.8315 61.1242 78.0644 61.6716 78.3428 62.1961C78.7891 62.6245 79.3662 62.4162 79.9255 62.2794C79.7714 62.5992 79.6826 62.9464 79.6642 63.3009C79.6458 63.6554 79.6982 64.01 79.8184 64.344C80.2397 65.2885 80.8976 66.1083 81.7284 66.724C83.7633 68.509 83.6621 68.4614 83.7811 68.4614C83.8361 68.4587 83.8881 68.4361 83.9275 68.3977C83.967 68.3594 83.9911 68.308 83.9953 68.2532C84.1976 66.1766 84.864 65.6054 86.7442 64.945C87.7725 64.6093 88.6426 63.9092 89.1905 62.9766C89.7385 62.044 89.9265 60.9432 89.7192 59.8815C90.9628 59.891 92.2019 59.7308 93.4023 59.4055C93.459 59.3927 93.5083 59.358 93.5396 59.309C93.5708 59.2599 93.5813 59.2005 93.5689 59.1437C93.5689 59.0426 93.5272 58.9236 93.4975 58.7986C102.179 63.0172 107.468 76.1607 100.465 81.0457C99.7033 81.5557 98.8373 81.8891 97.9302 82.0215ZM99.9294 82.6998C101.459 83.027 102.738 84.3122 103.571 86.5732C107.545 97.313 98.2813 110.326 86.7799 113.348C86.7085 112.628 86.3158 108.451 86.2385 108.142C86.1814 107.869 86.0244 107.627 85.7982 107.464C85.0663 107.059 83.8109 107.505 83.1445 107.898C82.5092 108.32 81.9415 108.835 81.4606 109.427C81.4606 109.618 82.2936 113.205 82.4721 113.937C75.2404 115.45 67.7237 114.804 60.8558 112.081C61.9149 107.678 63.3191 101.651 63.7118 99.7822C67.8054 101.056 73.559 100.937 73.6185 100.931C73.6376 100.926 73.6544 100.914 73.6664 100.899C73.6784 100.883 73.6849 100.864 73.6849 100.844C73.6849 100.825 73.6784 100.805 73.6664 100.79C73.6544 100.774 73.6376 100.763 73.6185 100.758C70.3163 99.6573 67.4662 96.8191 65.5979 92.7612C62.7241 86.6982 56.7622 86.7696 54.4417 89.7862C51.0859 94.1416 50.5444 106.815 50.4909 108.344C50.2826 108.725 49.0867 111.063 48.6345 112.015C45.0645 112.866 44.047 110.825 43.6127 109.951C43.5413 109.802 43.577 110.195 44.6837 106.286C45.2787 106.577 49.5091 108.071 49.5151 107.63C49.5627 102.573 50.7884 90.5419 54.1085 87.7751C56.4885 85.8235 61.6352 86.1627 63.9141 87.8525C65.3628 89.1749 66.548 90.7597 67.4067 92.5232C69.3167 96.6228 72.607 99.6632 76.2603 100.425C80.943 100.014 86.3753 92.553 87.9283 87.7811C90.7962 84.1456 95.5264 82.0631 99.9294 82.6998ZM109.241 106.898C109.249 106.934 109.271 106.965 109.301 106.984C109.332 107.004 109.369 107.01 109.405 107.003C109.44 106.995 109.471 106.973 109.491 106.942C109.51 106.912 109.517 106.874 109.509 106.839C109.134 104.923 108.075 103.269 107.409 101.484C106.254 98.4316 107.093 95.1531 108.069 92.0532C108.504 92.1345 108.954 92.0762 109.354 91.8866C109.681 91.6307 109.42 91.1964 109.051 90.1016C109.354 89.6428 109.592 89.1442 109.759 88.62C110.689 88.8401 111.656 88.8523 112.591 88.6557C112.627 88.6465 112.661 88.6288 112.689 88.604C112.717 88.5793 112.739 88.5483 112.753 88.5135C112.767 88.4787 112.773 88.4411 112.769 88.4038C112.766 88.3665 112.754 88.3305 112.734 88.2987C112.335 87.7751 111.282 86.3412 111.228 86.2341C111.175 86.127 111.228 86.1389 111.401 86.0615C114.245 84.7673 116.577 82.5629 118.029 79.7962C118.101 81.7418 118.333 88.983 118.267 89.2745C117.343 89.9436 116.368 90.5404 115.352 91.0595C115.307 91.084 115.271 91.1211 115.248 91.1662C115.225 91.2112 115.216 91.2621 115.221 91.3125C115.227 91.3628 115.248 91.4104 115.28 91.449C115.313 91.4877 115.357 91.5157 115.405 91.5296C116.247 91.8174 117.063 92.1757 117.845 92.6006C117.952 92.7731 117.577 94.1357 117.512 94.4867L116.917 94.6057C116.857 94.6212 116.807 94.6589 116.774 94.711C116.742 94.7631 116.731 94.8255 116.744 94.8854C116.899 95.9385 117.25 98.5327 117.25 98.5327C115.542 96.9441 115.554 96.0635 115.185 96.0278C115.149 96.0232 115.111 96.0279 115.077 96.0414C115.043 96.0549 115.013 96.0768 114.989 96.1051C112.191 99.3515 110.62 103.476 110.55 107.761C110.557 107.793 110.574 107.822 110.6 107.843C110.625 107.864 110.657 107.875 110.69 107.875C110.723 107.875 110.755 107.864 110.78 107.843C110.806 107.822 110.823 107.793 110.83 107.761C111.054 103.707 112.558 99.8279 115.126 96.6823C115.717 97.7017 116.494 98.6017 117.416 99.336C117.456 99.3709 117.505 99.3925 117.557 99.3978C117.61 99.403 117.662 99.3917 117.708 99.3653C117.753 99.339 117.789 99.2989 117.811 99.2509C117.832 99.203 117.838 99.1494 117.827 99.098C117.827 99.098 117.399 96.2003 117.232 95.0222C121.284 94.3023 124.765 90.8572 125.937 86.4661C125.937 88.9116 125.854 94.9746 125.854 95.0341C125.854 95.4209 125.854 95.7898 125.508 95.9623C124.533 96.3051 123.54 96.5971 122.533 96.837C122.492 96.8479 122.455 96.8696 122.425 96.8999C122.395 96.9302 122.374 96.968 122.363 97.0094C122.353 97.0507 122.354 97.0941 122.366 97.1349C122.378 97.1758 122.401 97.2126 122.432 97.2416C122.712 97.4677 124.318 98.7826 124.848 99.2051C124.848 99.2051 124.122 100.591 123.753 101.276C123.15 100.717 122.65 100.057 122.278 99.3241C122.253 99.2824 122.216 99.2499 122.172 99.2314C122.127 99.2128 122.078 99.2094 122.032 99.2215C121.985 99.2337 121.944 99.2608 121.914 99.2986C121.884 99.3365 121.868 99.3831 121.867 99.4312C122.034 103.406 123.307 102.888 122.254 104.191C118.624 108.755 117.988 110.23 114.079 111.385C114.864 107.815 117.553 106.369 118.63 103.793C119.225 102.382 119.094 100.818 119.564 99.4014C119.892 98.4186 120.427 97.5178 121.133 96.7601C121.839 96.0024 122.701 95.4056 123.658 95.0103C123.693 94.9985 123.721 94.9734 123.738 94.9404C123.754 94.9075 123.756 94.8695 123.744 94.8348C123.732 94.8001 123.707 94.7715 123.674 94.7553C123.641 94.7391 123.604 94.7367 123.569 94.7485C122.322 95.1885 121.222 95.966 120.391 96.9945C119.56 98.023 119.031 99.2621 118.862 100.574C118.606 102.4 118.66 103.299 117.518 104.899C116.256 106.654 114.192 108.207 113.525 111.533C112.49 111.791 111.431 111.939 110.366 111.974C110.241 110.909 109.586 110.284 109.122 110.26C108.694 109.51 104.178 102.638 102.512 101.133C104.354 97.8174 105.201 94.041 104.951 90.2563C105.665 91.3094 106.885 93.2848 107.099 93.6716C105.023 101.68 108.414 102.882 109.241 106.898ZM99.858 107.16C99.8579 107.118 99.8457 107.077 99.8229 107.042C99.8002 107.007 99.7679 106.979 99.7297 106.961C99.6916 106.944 99.6492 106.937 99.6077 106.943C99.5661 106.949 99.527 106.966 99.4951 106.994C98.7343 107.749 98.0432 108.571 97.4304 109.451C97.0801 109.247 96.7512 109.007 96.4487 108.737C97.8867 107.487 99.1908 106.091 100.34 104.572C106.659 112.152 106.355 111.932 106.534 111.789C106.548 111.78 106.56 111.768 106.569 111.753C106.578 111.739 106.584 111.723 106.587 111.706C106.59 111.69 106.589 111.673 106.585 111.656C106.581 111.64 106.574 111.624 106.564 111.611C106.147 110.98 101.905 105.661 100.614 104.167C101.227 103.32 101.787 102.436 102.292 101.52C104.672 103.846 108.367 109.969 108.712 110.546C108.383 111.018 108.23 111.591 108.277 112.164C107.526 112.374 106.736 112.409 105.969 112.265C105.058 112.087 101.655 110.415 99.4237 110.349C99.5665 109.701 99.7926 107.72 99.8759 107.16H99.858ZM84.2809 107.916H84.3821C84.8462 107.809 85.5721 107.648 85.7446 108.118C85.8339 108.439 87.6308 126.188 87.6308 126.736C87.6403 126.822 87.6309 126.909 87.6032 126.992C87.5754 127.074 87.53 127.149 87.4701 127.212C85.9231 126.617 82.1151 110.831 81.9664 109.493C82.566 108.751 83.3711 108.202 84.2809 107.916ZM20.9253 79.82C20.9253 78.4574 20.0209 51.4444 20.1102 50.4686C20.2649 48.6301 20.9253 47.803 22.3831 47.6126C23.9241 47.3151 38.3112 46.9046 39.882 46.8629C39.9177 47.4579 39.9475 47.8744 39.9594 47.9518C40.0253 48.4199 40.2486 48.8516 40.5925 49.176C40.9363 49.5004 41.3803 49.6982 41.8515 49.7368C41.8515 49.6773 41.4588 49.7368 53.7515 49.7784C53.7515 51.6348 53.8645 60.3575 53.8705 60.7681C50.3719 60.899 46.7662 61.0418 46.076 61.1072C45.9808 61.1072 45.8975 61.2798 45.9332 61.3631C46.9685 63.9216 51.5797 74.3103 52.8709 76.9759C52.9913 77.2788 53.1983 77.5395 53.4659 77.7256C53.6325 77.9755 53.8288 78.2551 54.0609 78.5348C52.1747 80.0401 51.4964 81.7061 50.4016 84.1456C45.362 84.2527 24.9356 84.6752 24.4775 84.6573C23.2042 84.6038 22.3057 84.2349 21.7464 83.5328C20.8956 82.5213 20.9313 81.1409 20.9253 79.82ZM89.7609 56.0557C89.8858 56.5079 90.3559 56.7518 91.0818 56.7697C92.3313 56.7161 92.8668 57.7931 93.0929 59.0307C91.8766 59.2684 90.6427 59.4057 89.4039 59.4412C89.368 59.4416 89.3328 59.4503 89.3008 59.4666C89.2689 59.4829 89.2412 59.5064 89.2198 59.5352C89.1985 59.5641 89.1841 59.5974 89.1779 59.6327C89.1716 59.6681 89.1736 59.7043 89.1837 59.7387C89.3737 60.4179 89.3755 61.136 89.189 61.8162C89.0024 62.4963 88.6345 63.113 88.1246 63.6003C86.5241 65.1413 83.9596 64.2905 83.5848 67.8426C83.0493 67.3785 81.0679 65.6947 80.6633 65.2008C79.9672 64.3976 79.6875 63.0648 80.4015 62.2258C81.9305 61.9759 83.4757 61.8387 85.0247 61.8153C85.0594 61.8153 85.0927 61.8015 85.1173 61.7769C85.1418 61.7524 85.1556 61.7191 85.1556 61.6844C85.1556 61.6497 85.1418 61.6164 85.1173 61.5918C85.0927 61.5673 85.0594 61.5535 85.0247 61.5535C83.2425 61.4271 81.4514 61.5553 79.7054 61.9343C79.039 62.1187 78.7117 62.2496 78.4142 61.6249C78.2655 61.3095 77.3789 58.6082 77.2242 58.1084C76.9505 57.4599 77.1171 57.6562 77.6169 57.3468C78.1066 57.7607 78.6563 58.0977 79.2472 58.3464C79.2472 58.4178 79.5566 59.3639 79.6042 59.5364C79.6244 59.6794 79.696 59.8101 79.8054 59.9043C79.9149 59.9984 80.0549 60.0496 80.1992 60.0481C81.5868 60.1756 82.9847 59.9724 84.2786 59.4553C85.5724 58.9382 86.7253 58.1218 87.6427 57.0731C87.6609 57.0482 87.6692 57.0174 87.6661 56.9866C87.6629 56.9559 87.6484 56.9274 87.6255 56.9067C87.6026 56.886 87.5728 56.8745 87.5419 56.8745C87.511 56.8745 87.4812 56.8859 87.4582 56.9065C86.5367 57.838 85.4296 58.5651 84.2087 59.0407C82.9878 59.5164 81.6805 59.7299 80.3718 59.6673C79.9553 59.6376 80.0088 59.7268 79.6578 58.4773C81.2643 58.9295 81.6689 58.3167 81.0977 58.8819C81.0791 58.9042 81.0688 58.9322 81.0686 58.9612C81.0684 58.9902 81.0782 59.0184 81.0965 59.0409C81.1148 59.0634 81.1404 59.0789 81.1688 59.0846C81.1973 59.0903 81.2268 59.086 81.2524 59.0723C83.4167 57.4542 84.9956 55.1756 85.7506 52.5809C85.7561 52.5641 85.7581 52.5464 85.7565 52.5288C85.7549 52.5112 85.7498 52.4941 85.7415 52.4785C85.7332 52.463 85.7218 52.4493 85.708 52.4382C85.6942 52.4272 85.6783 52.419 85.6613 52.4143C85.3519 52.3072 85.5602 52.92 84.1084 55.2941C83.5134 52.9141 83.912 50.3972 83.2694 48.0053C83.2608 47.9714 83.239 47.9423 83.2088 47.9245C83.1787 47.9066 83.1427 47.9015 83.1088 47.9101C83.0749 47.9188 83.0458 47.9406 83.0279 47.9707C83.0101 48.0009 83.0049 48.0369 83.0136 48.0708C83.1178 48.577 83.1854 49.09 83.2159 49.6059C81.9485 48.3504 79.271 46.3453 77.1588 46.8034C76.7037 46.8174 76.2725 47.0101 75.9585 47.3397C75.6444 47.6694 75.4729 48.1094 75.4809 48.5646C74.9692 47.8744 75.3262 46.8213 75.7903 46.2382C77.016 44.6376 79.1937 43.8582 81.3654 43.2632C83.2873 42.7515 85.8577 42.8229 87.3154 44.5603C87.9478 45.4273 88.4046 46.4097 88.6601 47.452C89.4202 49.8008 89.9502 52.218 90.2428 54.6693C90.2655 54.7682 90.2609 54.8713 90.2294 54.9678C90.198 55.0642 90.1409 55.1502 90.0643 55.2167C89.9455 55.3184 89.8552 55.4491 89.802 55.5962C89.7488 55.7432 89.7346 55.9015 89.7609 56.0557ZM53.3052 76.8331C52.7459 75.6431 47.2184 63.3861 46.3378 61.3631C48.3072 61.3631 70.5305 60.5479 70.9172 60.536C71.6729 62.9636 76.0759 77.6244 76.0759 77.7494C76.0759 77.7494 70.8161 77.8803 67.9779 77.9933C63.1882 75.5776 58.7554 75.8394 55.5305 77.5471C53.7098 77.4697 53.6265 77.5054 53.3052 76.8331ZM75.9152 52.1525C75.8319 50.3675 75.9152 49.1239 76.1949 48.999C77.2183 48.5349 79.1282 48.404 81.2524 49.0763C81.5201 49.1656 82.3769 49.6118 83.2397 49.9748C83.3349 51.8788 83.2397 53.8958 83.8347 55.7403C83.3087 56.6626 82.6331 57.491 81.8355 58.1917C78.2357 58.6677 76.0759 55.7879 75.9033 52.1525H75.9152ZM81.3773 87.7335C81.2345 88.0072 83.6562 89.8279 83.918 90.0242C84.7748 90.8334 83.7276 91.2737 82.8589 90.4943C78.0989 86.2162 74.041 81.3134 68.7514 78.386C71.8335 78.2849 75.6475 78.1718 76.302 78.1659C76.9624 78.8025 84.632 85.9842 86.6133 87.6859C81.0798 87.7275 81.4309 87.6383 81.3654 87.7335H81.3773ZM87.2202 87.6502C87.1607 87.5966 77.1052 78.511 76.7185 78.0588C76.4924 77.678 72.3214 63.5229 71.3635 60.6729C71.9512 61.0737 72.3871 61.6605 72.6011 62.3389C72.9581 63.3563 77.01 76.9223 77.0279 76.9878C77.0765 77.3173 77.2238 77.6243 77.4503 77.8684C79.0152 79.3737 85.6554 85.3951 87.8152 87.1801C87.6903 87.3348 87.5653 87.4895 87.4463 87.6502H87.2202ZM86.7859 81.9322C85.7506 81.8489 85.4233 81.7299 85.1675 82.0453C85.0842 82.1762 84.8462 82.4677 84.5427 82.4023C84.4901 82.39 84.4406 82.367 84.3973 82.3347C84.3539 82.3025 84.3177 82.2616 84.2909 82.2147C84.2641 82.1678 84.2473 82.1158 84.2415 82.0621C84.2357 82.0084 84.241 81.954 84.2571 81.9025C84.5487 81.6288 84.8521 81.3908 85.1258 81.0992C85.1405 81.0787 85.1478 81.0538 85.1467 81.0286C85.1455 81.0034 85.136 80.9793 85.1196 80.9601C85.1031 80.9409 85.0808 80.9278 85.056 80.9229C85.0313 80.9179 85.0056 80.9213 84.983 80.9326C84.6796 81.129 84.388 81.4443 84.0429 81.6526C84.0144 81.653 83.9864 81.6596 83.9607 81.6719C83.935 81.6842 83.9123 81.702 83.8942 81.724C83.8229 81.7529 83.7459 81.765 83.6692 81.7593C83.5925 81.7536 83.5181 81.7302 83.4519 81.6911C83.3857 81.6519 83.3294 81.598 83.2874 81.5335C83.2455 81.4691 83.2189 81.3958 83.2099 81.3194C83.2099 80.8434 83.7216 80.528 84.0191 80.177C84.1381 80.058 83.9596 79.8795 83.8347 79.9925C83.5159 80.2617 83.2194 80.5562 82.9481 80.8731C82.6053 80.9822 82.2554 81.0676 81.9009 81.129C81.7403 81.129 81.9009 81.2301 81.1988 80.6292C81.9308 79.9426 82.7279 79.3288 83.5788 78.7966C85.0247 77.8446 85.2924 79.4927 86.5955 79.6831C86.5943 80.4369 86.658 81.1894 86.7859 81.9322ZM88.1246 86.835L82.133 81.48C82.3503 81.4372 82.5648 81.3815 82.7756 81.3134C82.7708 81.4426 82.7961 81.5712 82.8495 81.6889C82.903 81.8066 82.9831 81.9103 83.0836 81.9917C83.184 82.073 83.302 82.1299 83.4283 82.1578C83.5545 82.1857 83.6855 82.1839 83.8109 82.1524C83.8347 82.2786 83.888 82.3974 83.9664 82.4991C84.0448 82.6008 84.1462 82.6825 84.2622 82.7376C84.3782 82.7927 84.5055 82.8196 84.6339 82.8161C84.7623 82.8127 84.888 82.7789 85.0009 82.7176C85.822 82.3428 85.0009 82.2 86.3277 82.319C86.5003 82.319 86.6847 82.3547 86.8632 82.3606C86.9168 82.6403 86.9703 82.8961 87.0298 83.1401C87.0441 83.1887 87.074 83.2314 87.1148 83.2615C87.1557 83.2916 87.2052 83.3074 87.2559 83.3067C97.8945 83.0806 92.6704 81.6109 88.1127 86.835H88.1246ZM73.8446 64.6772C73.1723 62.4222 72.8212 60.6015 71.4646 60.1374C71.4646 60.2088 71.9704 60.06 54.3584 60.7324C54.3584 57.8347 54.2334 50.8256 54.2156 49.7606H75.5463C75.3797 52.3369 75.5463 55.1156 77.3313 57.0315C77.1171 57.1148 76.7363 57.2933 76.6471 57.442C76.8665 58.4037 77.161 59.3467 77.5277 60.2623C75.9313 61.3889 74.6542 62.91 73.8208 64.6772H73.8446ZM71.3992 46.2858C71.3992 45.4528 71.2088 40.9724 71.1671 40.1513H72.6844C72.6844 40.9962 72.7974 45.4587 72.8331 46.2798C72.3571 46.2679 71.8752 46.2739 71.3992 46.2858ZM62.6824 46.4643C62.6884 44.8459 62.4801 31.1609 62.4504 29.3759H63.9676C63.9676 33.8979 64.0985 45.2088 64.1223 46.4405L62.6824 46.4643ZM53.2933 31.6726H54.8165C54.8165 35.5817 54.9415 45.4528 54.9712 46.6249H53.5313C53.5373 45.1612 53.329 33.3029 53.2933 31.6726ZM40.3759 47.69C40.2926 47.1842 39.6024 31.3394 39.3227 25.2704C39.2573 23.4021 39.7511 21.1054 41.0066 20.0403C41.0066 24.2053 41.5421 47.1902 41.6611 49.2727C41.3109 49.1716 41.0001 48.9658 40.7703 48.6829C40.5405 48.3999 40.4029 48.0534 40.3759 47.69ZM94.9671 42.7455C94.9182 42.3571 95.0112 41.9641 95.2289 41.6388C95.6947 41.2721 96.1948 40.9513 96.7224 40.6809C96.1274 41.7519 96.2821 41.4544 96.5974 60.2564C96.1066 59.8823 95.5962 59.5347 95.0683 59.2151C95.0088 56.2163 94.979 45.3159 94.985 42.7455H94.9671ZM100.167 49.356C100.444 48.9635 100.811 48.6438 101.238 48.4242C101.665 48.2045 102.139 48.0914 102.619 48.0946C105.04 48.0946 105.921 50.9744 106.397 53.3187C106.814 55.1572 106.843 57.323 108.182 58.8224C114.406 64.463 114.876 56.5912 118.66 56.8946C119.85 57.0315 120.641 58.1203 121.492 58.9057C121.856 59.3143 122.366 59.5628 122.912 59.5973C123.458 59.6319 123.995 59.4496 124.408 59.0902V67.5451C122.944 67.5451 104.356 67.4083 102.315 67.4321C101.819 66.3922 101.233 65.3968 100.566 64.4571C100.637 63.7371 100.197 49.9986 100.185 49.356H100.167ZM102.547 67.8367C105.284 67.8783 122.652 67.9259 124.455 67.9259C124.458 68.1526 124.472 68.379 124.497 68.6042C124.501 68.6521 124.523 68.6968 124.558 68.7297C124.593 68.7626 124.639 68.7815 124.687 68.7827C125.038 68.7827 124.878 69.3242 124.818 53.1878C124.818 53.1483 124.803 53.1105 124.775 53.0826C124.747 53.0547 124.709 53.039 124.67 53.039C124.63 53.039 124.592 53.0547 124.564 53.0826C124.536 53.1105 124.521 53.1483 124.521 53.1878C124.521 54.2469 124.455 57.7455 124.449 58.4357C124.313 58.6508 124.127 58.8304 123.908 58.9599C123.689 59.0895 123.442 59.1652 123.187 59.1808C122.933 59.1965 122.679 59.1517 122.445 59.0501C122.211 58.9485 122.005 58.793 121.843 58.5963C120.124 56.8113 118.422 55.3238 115.935 57.6205C113.9 59.7209 112.781 61.494 109.985 59.6792C108.853 59.0759 107.999 58.056 107.605 56.8351C106.665 53.4615 106.927 48.2552 102.952 47.565C102.421 47.5107 101.884 47.5875 101.389 47.7888C100.894 47.99 100.457 48.3095 100.114 48.7193C100.114 47.8149 100.048 46.9343 100.013 46.018C100.013 45.9802 99.9977 45.9438 99.9709 45.9171C99.9441 45.8903 99.9078 45.8752 99.8699 45.8752C99.8321 45.8752 99.7957 45.8903 99.769 45.9171C99.7422 45.9438 99.7271 45.9802 99.7271 46.018C99.7271 47.0057 100.037 60.7978 100.132 63.8264C99.2148 62.6264 98.1604 61.5381 96.9901 60.5836C96.9901 58.3167 96.7878 43.5964 96.764 42.686C96.7283 41.0319 97.3888 40.074 98.912 39.6753C100.161 39.3302 122.629 38.9851 124.765 39.2767C126.181 39.4552 126.99 40.8415 127.192 42.0434C127.442 43.5369 127.514 68.2234 127.52 68.5507C127.567 71.4662 127.222 74.7922 124.188 75.2028C123.503 75.298 106.576 75.3396 104.118 75.3158C104.194 72.7349 103.66 70.1724 102.559 67.8367H102.547ZM85.1258 21.5219C85.8398 22.7714 85.4352 22.4263 85.941 42.9776C83.4777 41.8649 79.991 42.8883 77.611 44.1676V26.5377C77.611 26.4009 77.9204 26.4425 75.826 26.4425C75.6951 26.4425 75.707 25.2168 76.1473 45.1553C75.7902 45.4776 75.4798 45.848 75.225 46.256H73.2258C73.2258 45.4825 72.9997 39.9966 72.9759 39.949C72.9691 39.9181 72.9517 39.8905 72.9267 39.871C72.9017 39.8514 72.8708 39.8412 72.8391 39.8419C72.1962 39.8204 71.5526 39.8343 70.9113 39.8836C70.8923 39.8966 70.8772 39.9145 70.8677 39.9355C70.8583 39.9565 70.8548 39.9797 70.8577 40.0026C70.8577 40.5976 70.9648 45.429 71.0065 46.2858L68.7633 46.3334C68.8764 36.1708 68.918 36.7063 68.7633 36.6944C67.1509 36.7598 67.1152 36.7301 67.1152 36.8491V46.3691L64.4972 46.4226C64.4972 45.0958 64.2949 30.1018 64.2532 29.2331C64.255 29.194 64.2419 29.1556 64.2165 29.1258C64.1911 29.096 64.1553 29.0769 64.1164 29.0724C64.1164 29.0724 62.254 29.0724 62.1945 29.1319C62.022 29.2688 62.2897 45.7919 62.2897 46.4702L59.4635 46.5238V37.6404C59.4425 37.6321 59.4191 37.6321 59.398 37.6404C57.7558 37.6404 57.7737 37.6404 57.7737 37.7713V46.5595L55.358 46.6309C55.1914 31.268 55.0545 31.5476 55.114 31.5476C55.1143 31.5095 55.1005 31.4726 55.0752 31.4441C55.05 31.4155 55.0151 31.3973 54.9772 31.3929C54.9772 31.3929 53.1267 31.3929 53.0672 31.4405C52.8649 31.5655 53.1505 45.6194 53.1505 46.6785L49.878 46.738C49.8959 23.5508 49.9613 24.6159 49.8066 24.6159L48.3489 24.6694C48.2477 24.6694 48.2834 23.2474 48.2834 46.7618C45.832 46.8094 45.9034 46.7618 45.8677 46.857C45.8563 46.8755 45.8499 46.8968 45.8492 46.9185C45.8485 46.9403 45.8535 46.9619 45.8638 46.9812C45.874 47.0004 45.8891 47.0166 45.9075 47.0283C45.926 47.0399 45.9471 47.0465 45.9689 47.0474C49.5805 47.0474 71.4527 46.8272 75.0168 46.7201C74.6598 47.6305 74.7252 48.636 75.5523 49.1656V49.2965C72.1132 49.3976 42.6845 49.2965 42.1549 49.2965C42.1549 48.517 41.4885 21.2958 41.4826 19.7726C45.6059 19.7726 81.9426 19.8261 82.8886 19.9808C83.3524 20.0559 83.7937 20.2332 84.1806 20.4997C84.5675 20.7662 84.8904 21.1153 85.1258 21.5219ZM20.2708 48.2374C19.5866 49.2251 19.5509 50.5103 19.5509 51.7538C19.5509 52.0275 20.3839 81.3134 20.5088 82.0274C20.58 82.5456 20.7612 83.0426 21.0404 83.4849C21.3195 83.9272 21.6901 84.3047 22.1272 84.5919C21.4279 84.5567 20.7441 84.372 20.1221 84.0504C18.8012 83.3245 18.3014 81.8311 18.1229 81.004C17.8075 79.5165 17.391 53.9672 17.4624 52.6463C17.4208 50.4567 18.1645 49.2727 20.2589 48.2374H20.2708ZM109.521 115.526C111.902 115.36 114.235 114.772 116.411 113.789C117.958 113.075 119.886 111.944 120.683 111.046C120.808 113.854 120.237 115.669 117.351 116.996C113.531 118.781 104.469 120.97 100.554 118.358C100.203 118.019 99.3642 115.443 99.031 114.253C100.739 115.389 105.713 115.829 109.509 115.526H109.521ZM55.709 123.32C55.2092 123.279 54.9712 123.779 54.8046 124.142C53.4123 127.117 53.4302 127.307 52.0141 127.402C51.5678 127.432 47.3671 127.777 47.0577 127.777C45.9748 127.854 45.3739 127.111 46.1414 126.2C46.579 125.87 47.0646 125.609 47.5813 125.427C49.2354 124.659 51.8534 122.63 52.4306 120.119C53.0278 120.821 53.8426 121.303 54.7451 121.488C55.8626 121.608 56.9897 121.377 57.97 120.827C57.7439 122.113 57.2203 126.117 57.1549 127.372C56.8071 127.336 56.4574 127.32 56.1077 127.325C56.1017 126.986 55.9887 123.344 55.6971 123.32H55.709ZM57.8986 120.256C57.1254 120.803 56.1978 121.089 55.2509 121.071C54.75 121.034 54.2622 120.893 53.818 120.659C53.3737 120.424 52.9825 120.101 52.6686 119.709C52.6686 119.524 52.6031 117.531 52.621 116.46C54.5488 116.612 56.484 116.65 58.4163 116.573C58.3211 117.097 58.0176 119.221 57.8867 120.256H57.8986Z" fill="white" fill-opacity="0.6"/>
<path d="M117.131 43.4536C117.165 43.4468 117.195 43.4285 117.217 43.4019C117.238 43.3754 117.25 43.3421 117.25 43.3078C117.25 43.2735 117.238 43.2402 117.217 43.2137C117.195 43.1871 117.165 43.1689 117.131 43.162H116.132C108.652 43.3941 108.896 43.3881 108.902 43.5964C108.908 43.8046 108.676 43.8522 117.131 43.4536ZM117.381 44.8459C116.048 44.8459 110.836 44.9173 109.497 45.0244C109.45 45.0325 109.408 45.057 109.377 45.0935C109.346 45.1299 109.33 45.1761 109.33 45.2237C109.33 45.2714 109.346 45.3175 109.377 45.354C109.408 45.3904 109.45 45.4149 109.497 45.423C110.86 45.423 116.042 45.1553 117.387 45.1017C117.416 45.0948 117.442 45.078 117.46 45.0543C117.478 45.0306 117.488 45.0013 117.487 44.9714C117.487 44.9415 117.476 44.9127 117.456 44.8899C117.437 44.867 117.41 44.8515 117.381 44.8459ZM116.072 47.0355C115.144 47.0712 112.163 47.0355 109.319 47.0355C109.256 47.0355 109.195 47.0606 109.15 47.1052C109.106 47.1498 109.081 47.2104 109.081 47.2735C109.081 47.3366 109.106 47.3971 109.15 47.4418C109.195 47.4864 109.256 47.5115 109.319 47.5115C109.914 47.5531 115.495 47.3211 116.078 47.2973C116.113 47.2965 116.146 47.2819 116.17 47.2568C116.194 47.2317 116.207 47.1981 116.206 47.1634C116.205 47.1287 116.191 47.0957 116.165 47.0717C116.14 47.0477 116.107 47.0347 116.072 47.0355ZM96.9011 17.3033C96.2039 17.4746 95.5662 17.8317 95.0559 18.3368C94.5456 18.8418 94.1819 19.4758 94.0035 20.1712C93.343 22.7 95.6338 25.4548 98.2696 25.0145C98.8456 24.8929 99.3908 24.655 99.8716 24.3153C100.352 23.9756 100.759 23.5414 101.066 23.0391C101.366 22.4848 101.537 21.8696 101.564 21.2399C101.592 20.6101 101.477 19.9823 101.227 19.4037C100.87 18.3803 99.8107 16.744 96.9011 17.3033ZM98.341 22.3192C97.1927 23.1105 95.848 21.6706 96.3775 20.7841C97.3295 19.2014 99.0193 20.3973 99.061 20.9923C99.0603 21.2565 98.9936 21.5163 98.8668 21.7481C98.74 21.9798 98.5572 22.1762 98.3351 22.3192H98.341ZM98.2696 19.6119C97.8681 19.4856 97.4359 19.4959 97.0408 19.6412C96.6457 19.7865 96.3099 20.0587 96.086 20.4152C95.9029 20.7361 95.8339 21.1095 95.8901 21.4747C95.9462 21.8398 96.1243 22.1752 96.3954 22.4263C96.6113 22.6335 96.8768 22.7819 97.1665 22.8573C97.4561 22.9326 97.7603 22.9323 98.0498 22.8565C98.3394 22.7807 98.6046 22.6318 98.8202 22.4242C99.0358 22.2166 99.1945 21.9571 99.2811 21.6706C99.7888 22.0037 100.357 22.2341 100.953 22.3489C100.742 22.8629 100.419 23.3232 100.007 23.6959C99.5956 24.0686 99.1055 24.3444 98.5731 24.5028C96.1931 25.193 94.0749 23.0332 94.3426 20.7008C94.421 20.1576 94.6218 19.6393 94.9298 19.185C95.2378 18.7307 95.645 18.3524 96.1206 18.0785C96.5962 17.8046 97.1279 17.6423 97.6754 17.6038C98.2228 17.5654 98.7719 17.6519 99.2811 17.8567C98.81 18.3546 98.4616 18.9556 98.2637 19.6119H98.2696Z" fill="white" fill-opacity="0.6"/>
<path d="M91.5461 27.5195C92.9979 27.4421 119.583 27.2398 121.522 26.6627C123.016 26.389 123.527 25.6988 123.45 24.1934C123.45 23.6936 123.533 17.9638 123.379 16.9463C123.242 15.6909 122.569 15.0959 121.153 15.0185C119.963 14.9055 92.3851 15.3339 91.082 15.6135C90.0229 15.8218 89.297 16.2085 89.1542 17.3985C89.0888 17.7615 89.3744 24.479 89.4101 25.1335C89.4934 26.5496 90.2014 27.3886 91.5461 27.5195ZM93.8666 27.1149C93.5163 27.0726 93.1797 26.953 92.8813 26.7647C92.5829 26.5764 92.33 26.3241 92.1411 26.026C91.7217 25.3037 91.5058 24.4812 91.5164 23.646C91.4509 22.6345 91.2605 18.886 91.2367 17.9816C91.2367 17.6127 91.2367 16.387 92.1411 15.9467C93.5394 15.8039 119.588 15.4172 120.701 15.4529C121.296 15.4529 122.099 15.5005 122.552 15.9586C123.218 16.631 123.004 17.7436 123.045 24.1399C123.176 25.7702 122.558 26.1272 121.034 26.3473C119.666 26.5556 94.1046 27.1149 93.8785 27.1149H93.8666ZM90.8321 17.226C90.7548 17.7615 91.0701 22.8785 91.0999 23.5568C91.1713 25.2406 91.6532 26.4366 92.6052 27.1268H92.0102C90.5584 27.1268 89.898 26.4306 89.8325 24.9491C89.7968 24.1042 89.5231 17.8091 89.5826 17.4521C89.7076 16.3692 90.4394 16.1312 91.4093 16.0122C91.1086 16.3543 90.9124 16.7756 90.844 17.226H90.8321Z" fill="white" fill-opacity="0.6"/>
<path d="M104.874 18.767C105.094 18.767 111.925 18.5944 111.865 18.5944C111.896 18.5879 111.924 18.5711 111.943 18.5467C111.963 18.5223 111.974 18.4919 111.974 18.4606C111.974 18.4292 111.963 18.3988 111.943 18.3744C111.924 18.35 111.896 18.3332 111.865 18.3267C111.36 18.3267 105.463 18.2255 104.862 18.3267C104.816 18.3433 104.777 18.3739 104.75 18.4142C104.722 18.4545 104.708 18.5024 104.709 18.5511C104.711 18.5999 104.727 18.647 104.757 18.6857C104.786 18.7244 104.828 18.7529 104.874 18.767ZM113.96 20.6353C113.103 20.7186 104.499 20.427 104.44 20.8614C104.44 20.9447 104.517 21.0101 104.577 21.022C105.326 21.1113 113.93 20.9268 113.99 20.9209C114.008 20.9189 114.027 20.9133 114.043 20.9043C114.06 20.8954 114.074 20.8832 114.086 20.8686C114.098 20.8539 114.107 20.8371 114.112 20.819C114.118 20.8009 114.119 20.782 114.118 20.7632C114.116 20.7445 114.11 20.7263 114.101 20.7097C114.092 20.6931 114.08 20.6785 114.065 20.6666C114.051 20.6547 114.034 20.6458 114.016 20.6405C113.998 20.6351 113.979 20.6333 113.96 20.6353ZM113.787 22.9201C112.318 22.9201 104.91 22.8844 104.523 22.9498C104.485 22.9599 104.451 22.9823 104.427 23.0135C104.403 23.0447 104.39 23.083 104.39 23.1224C104.39 23.1618 104.403 23.2001 104.427 23.2313C104.451 23.2625 104.485 23.2849 104.523 23.2949C104.934 23.3604 113.186 23.17 113.793 23.1521C113.819 23.1455 113.843 23.1302 113.859 23.1087C113.875 23.0871 113.884 23.0607 113.883 23.0337C113.882 23.0068 113.872 22.9808 113.855 22.9602C113.838 22.9395 113.814 22.9254 113.787 22.9201ZM29.6662 61.0358C33.6943 60.7085 35.8304 55.5201 32.7007 52.6403C32.5876 52.5392 32.8018 52.3131 29.5055 57.079C25.519 53.3008 25.7332 53.4436 25.644 53.509C22.4905 56.6209 25.6142 61.369 29.6662 61.0358Z" fill="white" fill-opacity="0.6"/>
<path d="M29.2256 55.1275C29.3387 55.2524 29.2851 55.2703 31.9805 50.7245C31.9869 50.7144 31.9913 50.7031 31.9933 50.6913C31.9953 50.6795 31.9949 50.6674 31.9921 50.6557C31.9893 50.644 31.9842 50.6331 31.9771 50.6234C31.97 50.6138 31.961 50.6056 31.9507 50.5995C31.0002 50.0993 29.9112 49.9267 28.8526 50.1086C27.794 50.2904 26.825 50.8164 26.0959 51.6051C26.0245 51.6944 25.9174 51.5218 29.2256 55.1275ZM23.0079 77.1723C23.1605 77.1713 23.3094 77.1251 23.4358 77.0397C23.5623 76.9543 23.6606 76.8334 23.7185 76.6921C23.7764 76.5509 23.7912 76.3958 23.7611 76.2461C23.731 76.0965 23.6573 75.9592 23.5493 75.8514C23.8468 75.3694 25.7746 72.198 26.3399 71.3412C26.4863 71.409 26.6498 71.431 26.809 71.4045C26.9682 71.378 27.1157 71.3041 27.2324 71.1925L29.9813 73.3107C29.9364 73.4433 29.9284 73.5856 29.9581 73.7224C29.9878 73.8592 30.0541 73.9854 30.1498 74.0875C30.2456 74.1896 30.3673 74.2638 30.5019 74.3022C30.6365 74.3406 30.779 74.3417 30.9142 74.3055C31.0494 74.2693 31.1723 74.197 31.2697 74.0965C31.3671 73.9959 31.4353 73.8708 31.4672 73.7345C31.4991 73.5982 31.4934 73.4558 31.4507 73.3225C31.408 73.1892 31.3299 73.0699 31.2248 72.9775L32.2006 71.6923C32.3752 71.7722 32.5733 71.7848 32.7566 71.7277C32.94 71.6706 33.0958 71.5478 33.1943 71.3829L36.0384 72.3468C36.023 72.4748 36.0398 72.6046 36.0874 72.7244C36.1349 72.8442 36.2117 72.9502 36.3106 73.0328C36.4096 73.1154 36.5276 73.172 36.654 73.1974C36.7804 73.2228 36.9111 73.2162 37.0343 73.1782C37.1574 73.1402 37.2692 73.072 37.3593 72.9799C37.4494 72.8877 37.5151 72.7745 37.5504 72.6505C37.5856 72.5265 37.5893 72.3957 37.5611 72.2699C37.5329 72.1441 37.4738 72.0274 37.389 71.9303C37.627 71.0794 39.6857 64.7903 39.894 64.1953C40.0938 64.1779 40.2792 64.0841 40.4116 63.9335C40.9769 64.3798 42.6726 65.6471 43.22 66.016C43.1887 66.1392 43.1883 66.2681 43.2187 66.3915C43.2491 66.5149 43.3094 66.6289 43.3943 66.7234C43.4793 66.8179 43.5862 66.89 43.7056 66.9334C43.825 66.9768 43.9533 66.9901 44.0791 66.9721C44.2049 66.9542 44.3243 66.9055 44.4268 66.8304C44.5293 66.7553 44.6117 66.6561 44.6668 66.5416C44.7219 66.4271 44.7479 66.3008 44.7425 66.1738C44.7372 66.0469 44.7006 65.9232 44.6361 65.8137C46.2188 63.2909 46.2902 63.3325 46.1236 63.2195C46.0923 63.2001 46.0548 63.1929 46.0186 63.1995C45.9823 63.2061 45.9497 63.226 45.9273 63.2552C45.6476 63.6598 44.3267 65.5162 44.3267 65.5162C44.186 65.4469 44.0279 65.4207 43.8723 65.4408C43.7167 65.4609 43.5705 65.5264 43.4521 65.6293C42.8987 65.2425 41.1435 63.9871 40.5842 63.5527C40.608 63.4154 40.5944 63.2742 40.5447 63.144C40.4949 63.0138 40.4109 62.8995 40.3015 62.8131C40.1922 62.7267 40.0615 62.6715 39.9233 62.6532C39.7851 62.635 39.6446 62.6544 39.5166 62.7095C39.3885 62.7645 39.2777 62.8532 39.1959 62.966C39.1141 63.0788 39.0643 63.2117 39.0517 63.3505C39.0392 63.4893 39.0644 63.6289 39.1247 63.7546C39.1849 63.8802 39.2781 63.9873 39.3942 64.0644C38.8825 65.4567 37.395 70.2762 37.0142 71.6804C36.8712 71.6435 36.7207 71.6474 36.5798 71.6915C36.4389 71.7357 36.3132 71.8184 36.2169 71.9303C35.6219 71.728 33.8369 71.1866 33.2954 71.014C33.2954 70.8104 33.2145 70.6152 33.0706 70.4713C32.9266 70.3273 32.7314 70.2465 32.5279 70.2465C32.3243 70.2465 32.1291 70.3273 31.9851 70.4713C31.8412 70.6152 31.7603 70.8104 31.7603 71.014C31.7616 71.1839 31.818 71.3489 31.921 71.484L30.8559 72.8109C30.7539 72.7885 30.6483 72.7876 30.5459 72.8081C30.4435 72.8285 30.3465 72.87 30.2609 72.9299L27.4228 70.7819C27.4537 70.5978 27.4165 70.4086 27.318 70.2499C27.2195 70.0912 27.0666 69.9739 26.8878 69.9199C26.709 69.8659 26.5166 69.8789 26.3468 69.9566C26.1769 70.0342 26.0412 70.1711 25.965 70.3416C25.9058 70.4643 25.8817 70.6009 25.8954 70.7363C25.909 70.8718 25.9599 71.0009 26.0424 71.1092C25.4831 71.9481 23.4541 75.1909 23.1626 75.661C23.0558 75.6341 22.9444 75.6306 22.8362 75.6506C22.7279 75.6706 22.6252 75.7137 22.535 75.7769C22.4449 75.8401 22.3693 75.9219 22.3136 76.0169C22.2579 76.1118 22.2232 76.2177 22.212 76.3272C22.2008 76.4368 22.2133 76.5474 22.2486 76.6517C22.284 76.756 22.3413 76.8515 22.4168 76.9316C22.4923 77.0118 22.5842 77.0747 22.6861 77.1163C22.7881 77.1578 22.8978 77.1769 23.0079 77.1723ZM33.3609 79.2786C33.3167 79.2786 33.2743 79.2961 33.243 79.3273C33.2118 79.3586 33.1943 79.401 33.1943 79.4452C33.1943 79.4893 33.2118 79.5317 33.243 79.563C33.2743 79.5942 33.3167 79.6117 33.3609 79.6117C34.4021 79.6117 46.6234 79.1358 47.0459 79.1298C47.0736 79.1236 47.0984 79.1082 47.1162 79.086C47.134 79.0638 47.1437 79.0363 47.1437 79.0078C47.1437 78.9794 47.134 78.9518 47.1162 78.9296C47.0984 78.9075 47.0736 78.892 47.0459 78.8858C45.3858 78.8918 34.4259 79.1596 33.3609 79.2786ZM38.5909 75.0243C38.6288 75.0243 38.6651 75.0093 38.6919 74.9825C38.7187 74.9557 38.7337 74.9194 38.7337 74.8815C38.7337 74.8436 38.7187 74.8073 38.6919 74.7805C38.6651 74.7537 38.6288 74.7387 38.5909 74.7387C38.1209 74.7387 36.4192 74.6375 36.0205 74.6554C35.9511 74.6554 35.8845 74.683 35.8354 74.7321C35.7863 74.7812 35.7587 74.8478 35.7587 74.9172C35.7587 74.9866 35.7863 75.0532 35.8354 75.1023C35.8845 75.1514 35.9511 75.179 36.0205 75.179C36.4132 75.2266 38.0971 75.066 38.5909 75.0243ZM32.2304 75.7859H29.6659C29.6104 75.7885 29.5567 75.806 29.5103 75.8365C29.464 75.867 29.4266 75.9094 29.4023 75.9593C29.378 76.0092 29.3675 76.0647 29.372 76.1201C29.3765 76.1754 29.3958 76.2285 29.4279 76.2738C29.5886 76.5118 29.7135 76.3274 32.2423 76.1132C32.2736 76.0981 32.3 76.0743 32.318 76.0445C32.336 76.0148 32.3449 75.9804 32.3436 75.9456C32.3424 75.9109 32.331 75.8772 32.3109 75.8488C32.2907 75.8205 32.2627 75.7986 32.2304 75.7859ZM22.0856 78.9632C22.2106 78.9632 24.0194 78.7669 24.418 78.749C24.4622 78.749 24.5046 78.7314 24.5358 78.7002C24.567 78.669 24.5846 78.6266 24.5846 78.5824C24.5846 78.5382 24.567 78.4958 24.5358 78.4646C24.5046 78.4334 24.4622 78.4158 24.418 78.4158C24.186 78.4158 22.1749 78.4991 22.038 78.5645C22.0017 78.5864 21.9724 78.6183 21.9538 78.6564C21.9352 78.6945 21.9279 78.7372 21.9329 78.7793C21.938 78.8214 21.9551 78.8611 21.9821 78.8938C22.0092 78.9264 22.0451 78.9505 22.0856 78.9632Z" fill="white" fill-opacity="0.6"/>
<path d="M43.0834 68.6458H43.1786C45.7073 68.4197 45.6181 68.5923 45.7252 68.4733C45.7449 68.4499 45.7579 68.4216 45.7626 68.3914C45.7674 68.3612 45.7637 68.3303 45.752 68.302C45.7404 68.2737 45.7211 68.2492 45.6964 68.2311C45.6718 68.2131 45.6426 68.2022 45.6121 68.1996C44.7256 68.1996 43.8926 68.1222 43.0953 68.1579C42.7561 68.1639 42.7859 68.6458 43.0834 68.6458ZM29.7792 63.4515C29.7145 63.4515 29.6524 63.4772 29.6067 63.5229C29.5609 63.5687 29.5352 63.6307 29.5352 63.6954C29.5352 63.7601 29.5609 63.8222 29.6067 63.8679C29.6524 63.9137 29.7145 63.9394 29.7792 63.9394C30.63 63.9394 33.9442 63.6359 34.7474 63.5526C34.7855 63.5453 34.8198 63.525 34.8445 63.4952C34.8692 63.4653 34.8827 63.4278 34.8827 63.389C34.8827 63.3503 34.8692 63.3127 34.8445 63.2829C34.8198 63.253 34.7855 63.2327 34.7474 63.2254C33.9204 63.2908 30.6003 63.3801 29.7792 63.4515ZM29.3746 64.8438C29.3267 64.8557 29.2848 64.8846 29.2568 64.9252C29.2288 64.9657 29.2165 65.0152 29.2224 65.0641C29.2282 65.1131 29.2518 65.1582 29.2885 65.1911C29.3253 65.2239 29.3728 65.2422 29.4222 65.2424C30.3623 65.2424 34.0513 64.9092 34.9795 64.9033C35.0205 64.9033 35.0598 64.887 35.0888 64.858C35.1179 64.829 35.1342 64.7896 35.1342 64.7486C35.1342 64.7076 35.1179 64.6682 35.0888 64.6392C35.0598 64.6102 35.0205 64.5939 34.9795 64.5939C33.1077 64.5527 31.2352 64.6362 29.3746 64.8438ZM34.5035 65.7958C32.9463 65.7733 31.3891 65.8349 29.8387 65.9802C29.5531 66.0159 29.5412 66.4503 29.8387 66.4503C30.3682 66.4503 33.2599 66.1528 34.5094 66.1052C34.5297 66.1048 34.5498 66.1004 34.5684 66.0923C34.587 66.0841 34.6038 66.0724 34.6179 66.0578C34.632 66.0431 34.6431 66.0259 34.6505 66.0069C34.6579 65.988 34.6615 65.9678 34.6611 65.9475C34.6607 65.9272 34.6564 65.9072 34.6482 65.8885C34.6401 65.8699 34.6284 65.8531 34.6137 65.839C34.5991 65.8249 34.5818 65.8138 34.5629 65.8064C34.544 65.799 34.5238 65.7954 34.5035 65.7958ZM36.461 52.9795C36.7526 52.9795 39.7216 52.6701 40.3047 52.6284C40.3457 52.6284 40.3851 52.6121 40.4141 52.5831C40.4431 52.5541 40.4594 52.5148 40.4594 52.4737C40.4594 52.4327 40.4431 52.3934 40.4141 52.3643C40.3851 52.3353 40.3457 52.319 40.3047 52.319C40.0132 52.319 36.8299 52.4142 36.4789 52.438C36.1278 52.4618 36.1278 52.9795 36.461 52.9795ZM37.0739 54.1814C38.008 54.1814 41.6494 53.8363 42.5717 53.7768C42.6053 53.77 42.6355 53.7517 42.6572 53.7251C42.6789 53.6986 42.6908 53.6653 42.6908 53.631C42.6908 53.5967 42.6789 53.5634 42.6572 53.5369C42.6355 53.5103 42.6053 53.4921 42.5717 53.4852C41.6435 53.5269 37.9783 53.5447 37.0679 53.6399C37.0031 53.6503 36.9441 53.6836 36.9018 53.7337C36.8595 53.7839 36.8366 53.8476 36.8373 53.9132C36.8381 53.9789 36.8623 54.042 36.9058 54.0913C36.9492 54.1405 37.0088 54.1725 37.0739 54.1814Z" fill="white" fill-opacity="0.6"/>
</svg>
