<svg width="145" height="145" viewBox="0 0 145 145" fill="none" xmlns="http://www.w3.org/2000/svg">
<path fill-rule="evenodd" clip-rule="evenodd" d="M63.0841 61.5802C62.9756 61.7835 62.6578 63.8387 63.9056 63.8387C64.1236 63.8392 64.3344 63.7633 64.4995 63.625C64.6646 63.4868 64.7729 63.2954 64.8046 63.0859C65.0681 60.7822 63.5181 60.7897 63.0841 61.5802ZM74.3216 61.5501C74.3913 62.3481 74.4843 63.0558 75.3058 63.0558C75.5238 63.0562 75.7347 62.9803 75.8998 62.8421C76.0649 62.7038 76.1731 62.5124 76.2048 62.3029C76.2215 61.8185 76.1667 61.3343 76.0421 60.865C75.5926 60.0595 74.2053 60.2552 74.3216 61.5501ZM68.8966 68.8225C69.1368 68.8225 71.2216 68.7247 71.7098 68.3558C71.8571 68.2504 71.8416 68.0471 71.8416 67.8589C71.7951 65.7234 71.5827 63.5943 71.2061 61.4899C71.2061 61.3769 71.1053 61.3543 71.0433 61.3694C70.9813 61.3845 70.9503 61.4899 70.9581 61.6705C70.9581 62.2879 70.9038 62.4987 71.1286 65.9542C71.2758 68.2127 71.2138 67.5804 71.2603 67.9568C70.5336 68.2154 69.7873 68.4193 69.0283 68.5666C68.5246 68.672 68.8811 68.8225 68.8966 68.8225ZM71.3456 74.0322C70.7706 74.3317 70.1365 74.5087 69.4856 74.5517C69.4527 74.5517 69.4211 74.5644 69.3979 74.587C69.3746 74.6095 69.3616 74.6402 69.3616 74.6721C69.3616 74.7041 69.3746 74.7347 69.3979 74.7573C69.4211 74.7799 69.4527 74.7926 69.4856 74.7926C69.8497 74.9198 70.2386 74.9656 70.6235 74.9265C71.0083 74.8875 71.3792 74.7646 71.7084 74.5671C72.0376 74.3696 72.3167 74.1025 72.5249 73.7857C72.7331 73.4689 72.8651 73.1105 72.9111 72.7373C72.9151 72.722 72.9161 72.706 72.9138 72.6904C72.9115 72.6747 72.9061 72.6596 72.8978 72.646C72.8895 72.6324 72.8786 72.6204 72.8656 72.6109C72.8525 72.6014 72.8377 72.5945 72.8219 72.5905C72.8062 72.5866 72.7897 72.5857 72.7736 72.5879C72.7575 72.5901 72.742 72.5954 72.7279 72.6034C72.7139 72.6114 72.7016 72.6221 72.6918 72.6347C72.682 72.6474 72.6749 72.6618 72.6708 72.6771C72.357 73.2324 71.9004 73.6993 71.3456 74.0322ZM36.6101 15.973C38.6018 22.4399 45.6466 22.1237 46.4681 22.6055C46.4681 22.6808 48.0801 28.7111 48.7311 29.5392C49.0953 29.9984 49.9711 29.8178 50.5523 29.7124C51.9163 29.4489 53.4973 29.366 54.6521 28.4702C54.9466 28.2368 54.7761 27.2882 54.6986 26.9645C54.4519 25.6108 54.1101 24.2752 53.6756 22.9669C53.5047 22.5722 53.3597 22.1673 53.2416 21.7548C53.7764 21.2946 54.3581 20.8885 54.9776 20.5427C56.0002 19.866 56.9098 19.0408 57.6746 18.096C59.1544 15.9901 59.8233 13.4452 59.564 10.9079C59.3046 8.37063 58.1335 6.00318 56.2563 4.22109C50.5136 -1.25207 40.1286 0.532163 36.7573 7.43573C35.6026 9.82977 35.8273 13.4585 36.6101 15.973ZM54.2956 28.1088C53.2648 28.9143 51.7458 29.0197 50.4206 29.2832C50.0641 29.3585 49.2193 29.5618 48.9946 29.2832C48.5561 28.6683 48.2406 27.9788 48.0646 27.2506C50.0721 26.9757 52.0356 26.4546 53.9081 25.6997C54.1614 26.4792 54.292 27.2914 54.2956 28.1088ZM53.8228 25.391C51.8425 25.7495 49.8978 26.2735 48.0103 26.9569C47.8102 26.0832 47.5513 25.2231 47.2353 24.3822C49.2376 24.1785 51.2014 23.7073 53.0711 22.9819C53.3838 23.7778 53.6427 24.5926 53.8461 25.4211L53.8228 25.391ZM37.2456 7.66911C40.4928 1.1495 50.4206 -0.499231 55.8456 4.65774C57.6088 6.33777 58.7119 8.56381 58.9638 10.9505C59.2157 13.3373 58.6007 15.7344 57.2251 17.7271C55.8843 19.564 53.1718 20.8288 52.7533 21.4913C52.6061 21.7247 52.8773 22.3194 53.0478 22.741C52.1643 22.9067 51.1956 23.1099 50.3276 23.2981C50.0951 22.2667 49.0101 18.1035 48.6071 17.1248C48.4521 16.7333 48.3126 16.7635 47.9018 16.8764C45.6388 16.8764 43.1511 16.3193 42.3528 14.249C42.2564 14.0063 42.1888 13.7537 42.1513 13.4961C42.0428 12.412 42.9263 11.1472 43.9028 11.2376C43.7633 12.0657 43.9028 13.6467 44.6313 14.121C45.3598 14.5953 46.1813 13.8424 46.1813 13.1649C46.14 12.6763 45.9765 12.2049 45.705 11.7916C45.4336 11.3783 45.0623 11.0357 44.6236 10.7934C44.7454 10.5246 44.9259 10.2848 45.1527 10.0906C45.3794 9.89637 45.6469 9.75237 45.9367 9.66858C46.2264 9.58478 46.5315 9.56321 46.8307 9.60534C47.1298 9.64747 47.416 9.75231 47.6693 9.91259C47.0571 11.072 47.6693 13.7295 48.7543 13.1046C49.8393 12.4798 49.4828 10.944 48.8086 10.0933C48.4831 9.6792 48.4133 9.79213 48.5761 9.67168C49.8393 8.77579 51.2731 9.81472 51.8776 11.1774C52.7456 13.0519 50.8856 15.3632 49.7076 16.0633C49.6788 16.0803 49.6581 16.1077 49.6501 16.1394C49.6421 16.1712 49.6475 16.2047 49.6649 16.2327C49.6824 16.2607 49.7106 16.2807 49.7433 16.2885C49.776 16.2963 49.8105 16.2911 49.8393 16.2741C51.2808 15.4535 53.1021 13.0369 52.2728 11.0042C51.4436 8.97153 49.3588 8.18858 48.0413 9.40065C47.7096 9.17954 47.331 9.03355 46.9335 8.97344C46.5359 8.91332 46.1296 8.94062 45.7443 9.05332C45.3591 9.16602 45.0048 9.36125 44.7076 9.62462C44.4103 9.88799 44.1777 10.2128 44.0268 10.5751C42.5853 10.3944 41.3686 12.0281 41.5313 13.5112C41.6189 14.1667 41.8739 14.7905 42.2733 15.3257C42.6726 15.8609 43.2035 16.2905 43.8176 16.5752C44.5461 16.914 47.1346 17.5314 48.1576 17.2453C48.5141 17.9981 49.8083 22.4173 50.0408 23.3433C46.5998 24.0961 47.2973 24.45 47.1268 23.9606C46.9253 23.3508 46.8013 22.4549 46.6308 22.3947C42.3528 21.4537 38.4933 20.7611 37.0518 15.8299C36.3466 13.4434 36.1606 9.90506 37.2456 7.66911ZM44.4376 11.3882C44.7312 11.5906 44.9767 11.852 45.1572 12.1546C45.3377 12.4573 45.4491 12.7941 45.4838 13.1423C45.4838 13.3456 45.0111 13.8951 44.7088 13.2929C44.4774 12.6847 44.3952 12.0326 44.4686 11.3882H44.4376ZM48.0956 10.2363C48.7156 10.8235 49.1031 12.1937 48.4288 12.5927C48.1951 12.2493 48.0438 11.8592 47.9861 11.4513C47.9285 11.0435 47.9659 10.6282 48.0956 10.2363ZM24.8456 38.9723C27.9998 38.0162 31.8206 38.8443 33.2931 42.2321C35.8428 47.9688 29.1003 50.8898 29.1701 51.191C29.3251 51.9438 29.6041 53.2613 29.7203 54.0217C29.7296 54.0855 29.7646 54.1433 29.8176 54.1821C29.8707 54.2209 29.9374 54.2377 30.0032 54.2287C30.069 54.2197 30.1284 54.1857 30.1683 54.1342C30.2083 54.0826 30.2256 54.0178 30.2163 53.9539C30.1233 53.2011 30.0226 52.117 29.9141 51.334C31.0098 50.907 32.0238 50.3038 32.9133 49.5498C38.3848 43.2786 32.2778 35.3662 24.4736 37.8431C23.2378 38.1931 22.1448 38.9081 21.3463 39.8888C20.5478 40.8696 20.0833 42.0674 20.0173 43.3162C19.7693 46.2824 22.2028 48.8421 26.1321 48.5108C26.1913 48.5007 26.245 48.4706 26.2836 48.4259C26.3223 48.3811 26.3435 48.3246 26.3435 48.2662C26.3435 48.2077 26.3223 48.1512 26.2836 48.1065C26.245 48.0617 26.1913 48.0316 26.1321 48.0215C22.6446 48.1946 20.7768 45.763 21.1101 43.4291C21.1873 42.4039 21.587 41.4264 22.2552 40.6292C22.9234 39.832 23.8277 39.2536 24.8456 38.9723ZM82.7303 19.3307C82.7961 19.3476 82.8661 19.3385 82.925 19.3053C82.9838 19.2722 83.0267 19.2176 83.0442 19.1537C83.0617 19.0898 83.0523 19.0218 83.0181 18.9646C82.984 18.9075 82.9278 18.8658 82.8621 18.8488C79.5063 17.9304 78.5376 15.047 79.6226 12.9315C80.0451 11.9867 80.7566 11.1909 81.6605 10.6523C82.5644 10.1136 83.617 9.85796 84.6756 9.92011C90.5036 10.0632 93.0611 15.2728 90.8756 18.9919C89.4263 21.5365 87.4888 22.2216 85.0088 22.5378C84.9305 22.5485 84.8579 22.5836 84.802 22.638C84.746 22.6923 84.7098 22.7628 84.6988 22.8389C84.6136 23.5315 84.4276 24.8942 84.2881 25.6846C84.2747 25.7475 84.2876 25.813 84.324 25.8667C84.3603 25.9203 84.4171 25.9577 84.4818 25.9707C84.5466 25.9837 84.614 25.9712 84.6692 25.9359C84.7244 25.9006 84.763 25.8454 84.7763 25.7825C84.9546 24.9694 85.1948 24.0133 85.3576 23.2078C86.5349 23.1463 87.6931 22.8917 88.7831 22.455C91.4103 20.9493 93.0068 18.5703 92.7976 15.5589C92.3093 8.48971 81.6918 5.96016 78.6383 12.5475C77.4526 15.2277 78.8941 18.4875 82.7303 19.3307ZM125.789 54.654C125.7 53.2586 125.188 51.9199 124.317 50.807C123.479 49.8909 122.456 49.1511 121.313 48.6332C120.169 48.1153 118.929 47.8303 117.667 47.7956C116.384 47.7378 115.113 48.069 114.031 48.7434C112.95 49.4178 112.111 50.402 111.63 51.5599C110.413 54.2927 111.878 57.4772 115.699 58.3806C115.733 58.3955 115.77 58.403 115.807 58.4025C115.845 58.402 115.881 58.3936 115.915 58.3778C115.949 58.3621 115.978 58.3393 116.002 58.3113C116.025 58.2832 116.043 58.2504 116.052 58.2152C116.061 58.1801 116.062 58.1434 116.055 58.1077C116.048 58.0721 116.033 58.0384 116.011 58.0089C115.99 57.9795 115.961 57.9551 115.929 57.9373C115.896 57.9196 115.86 57.909 115.823 57.9063C112.49 56.9276 111.498 54.1421 112.591 51.989C113.014 51.0442 113.725 50.2484 114.629 49.7097C115.533 49.1711 116.586 48.9155 117.644 48.9776C118.719 49.0066 119.776 49.2471 120.753 49.6844C121.729 50.1218 122.604 50.747 123.325 51.5222C124.051 52.4426 124.482 53.5501 124.565 54.7067C125.115 61.3468 117.753 61.3694 117.683 61.8964C117.59 62.6492 117.419 63.9742 117.272 64.7421C117.259 64.805 117.272 64.8705 117.308 64.9242C117.344 64.9778 117.401 65.0152 117.466 65.0282C117.531 65.0412 117.598 65.0287 117.653 64.9934C117.708 64.9581 117.747 64.9029 117.76 64.84C117.946 64.0345 118.179 63.0708 118.342 62.2653C119.521 62.2009 120.681 61.9465 121.775 61.5124C124.363 60.0369 125.999 57.6955 125.789 54.654ZM33.1691 59.7282C33.5023 58.3881 32.5026 56.9803 31.5106 57.0933C30.8672 57.0257 30.2193 57.008 29.5731 57.0406C27.8913 57.432 27.1008 59.5701 28.6818 60.6166C30.4953 61.791 32.8436 60.9779 33.1691 59.7282ZM31.9678 59.5776C31.6926 59.8007 31.3555 59.9396 30.9991 59.9766C28.8911 60.2627 28.4416 58.471 29.8598 57.8837L31.5261 57.5826C32.2468 57.6428 32.4096 59.141 31.9678 59.54V59.5776ZM83.6448 28.5605C81.8391 27.9206 79.8861 29.9006 81.1648 31.5719C82.4436 33.2432 84.9778 33.2432 85.7063 32.129C86.4348 31.0148 85.9931 29.3284 85.0166 29.1176C84.9313 29.08 84.2571 28.7788 83.6448 28.5605ZM84.6213 31.5719C84.2746 31.6865 83.9033 31.7121 83.5435 31.6461C83.1836 31.5801 82.8474 31.4249 82.5676 31.1955C82.3386 31.0357 82.1504 30.8271 82.0173 30.5857C81.7926 29.9758 82.5986 29.351 83.1876 29.3133L84.8616 29.5467C85.5126 29.8855 85.1871 31.3611 84.6213 31.5945V31.5719ZM117.977 68.2203C117.822 68.1525 117.024 67.8288 116.613 67.6782C114.8 67.0383 112.855 69.0183 114.133 70.6896C115.412 72.3609 117.939 72.3609 118.675 71.2467C119.411 70.1325 118.962 68.4311 117.977 68.2203ZM117.582 70.7122C117.235 70.826 116.864 70.8512 116.504 70.7853C116.145 70.7194 115.809 70.5646 115.528 70.3358C115.301 70.1709 115.114 69.9603 114.978 69.7184C114.761 69.1162 115.559 68.4913 116.148 68.4536L117.822 68.687C118.473 69.0032 118.148 70.4713 117.582 70.7122Z" fill="white" fill-opacity="0.6"/>
<path fill-rule="evenodd" clip-rule="evenodd" d="M111.646 109.747C110.096 102.339 104.066 90.926 96.8276 88.0125L95.3706 85.0539C95.3602 85.0324 95.3452 85.0134 95.3265 84.998C95.3079 84.9827 95.286 84.9714 95.2625 84.965C95.239 84.9586 95.2144 84.9571 95.1902 84.9608C95.1661 84.9644 95.143 84.9731 95.1226 84.9861L93.5726 85.9573C93.0803 82.7617 91.5771 79.794 89.2714 77.4652C90.8834 75.0486 93.4641 74.3108 96.1301 74.1979C98.3389 74.1075 99.9664 73.9795 101.245 72.1426C103.779 68.5139 103.183 64.9755 100.207 61.6028C95.6729 56.4684 93.8904 58.0042 91.6816 55.166C87.4811 49.8359 86.5279 41.9536 80.3434 37.8506C72.4384 32.6485 68.1759 36.8418 66.5174 38.1367C64.0916 36.7063 58.6821 37.2032 56.3571 39.138C54.3809 40.7792 51.7614 42.9022 50.7461 45.2736C48.5839 50.28 48.8164 56.2049 45.6544 60.7446C44.8794 61.8738 43.5541 62.6342 42.6164 63.7032C41.3292 65.2709 40.2343 66.9788 39.3536 68.7925C38.2066 70.9004 37.3309 73.2418 38.3771 75.425C39.7799 78.346 42.9186 81.1316 46.2666 80.9208C48.2041 80.7928 50.7694 79.6635 52.5906 80.4088C53.6756 80.8455 54.0941 81.8618 54.9156 82.7125C56.7756 84.7226 61.1156 85.3324 63.5181 83.9397C60.8754 87.207 56.8454 87.0941 49.8161 90.8583C39.0281 96.6251 35.0911 103.175 33.9364 109.883C33.4946 111.97 33.1687 114.078 32.9599 116.199C32.2934 127.138 35.7111 141.005 46.7936 143.301C49.8316 143.934 53.3114 144.34 56.3184 143.61C62.0146 142.232 68.8114 138.506 73.8024 135.479C76.1274 134.071 84.7299 128.433 88.7289 127.695C88.9695 129.704 89.491 131.672 90.2789 133.544C93.4796 139.936 98.6024 143.715 105.779 142.074C110.429 141.013 111.754 136.202 111.878 131.595C114.211 126.731 112.359 113.285 111.646 109.747ZM84.8306 74.499C86.2101 74.7474 87.1556 76.0047 88.1786 77.0286C90.8834 79.656 92.7434 82.4716 93.3014 86.0627C91.0616 87.4479 89.6046 88.3212 89.5736 88.3664C89.5426 88.4115 88.4654 85.7465 87.8144 85.4228C86.8404 84.953 85.9569 84.324 85.2026 83.5632C84.6214 82.9384 83.9084 81.8392 84.0014 81.0111C84.4133 80.7982 84.8629 80.6628 85.3266 80.6121V80.1453C82.9319 80.2131 82.1104 82.3361 81.8934 82.8104C81.7384 83.1492 81.5214 83.4879 81.0254 83.4352C80.5294 83.3826 80.3511 82.8254 80.5371 82.3286C80.7231 81.8317 81.1726 79.6485 84.3424 79.1742C84.382 79.1687 84.4203 79.1557 84.4548 79.136C84.4893 79.1162 84.5195 79.09 84.5436 79.0589C84.5677 79.0278 84.5853 78.9924 84.5953 78.9547C84.6053 78.917 84.6076 78.8777 84.602 78.8391C84.5964 78.8006 84.583 78.7635 84.5627 78.7299C84.5423 78.6964 84.5153 78.6671 84.4833 78.6437C84.4513 78.6202 84.4148 78.6032 84.376 78.5934C84.3372 78.5837 84.2968 78.5815 84.2571 78.5869C83.5937 78.6689 82.9507 78.8652 82.3584 79.1666C81.8259 79.4192 81.3532 79.7765 80.9703 80.2158C80.5874 80.6551 80.3027 81.1669 80.1341 81.7188C79.7621 82.7502 78.4601 82.2909 78.7701 81.4026C79.082 80.5384 79.5462 79.7334 80.1419 79.0236C80.8033 78.4111 81.5978 77.9506 82.4669 77.676C83.1489 77.405 83.7301 77.533 83.8851 77.3146C84.0401 77.0963 83.6759 76.3661 83.4899 76.1477C82.4901 74.9884 79.6149 75.9896 78.5144 74.6947C77.8091 73.844 79.2894 73.8139 79.8861 73.7386C81.5601 73.558 83.1489 74.1903 84.8306 74.499ZM87.6749 93.1545C85.4594 93.8559 83.1994 94.4167 80.9091 94.8333C81.6841 90.5496 82.2111 86.8757 82.1336 85.5432C83.9394 85.882 86.0086 86.1229 88.2716 86.4843C88.8839 87.4705 89.2171 88.2986 89.3644 88.532L87.8609 89.458C87.7834 89.5559 87.7989 89.1493 87.6749 93.1545ZM79.2584 114.904C79.6015 116.35 79.8449 117.816 79.9869 119.293C76.8094 119.097 74.3836 119.135 73.1901 119.09C73.2366 116.974 73.2599 116.319 73.2986 115.875C75.2545 115.394 77.2478 115.069 79.2584 114.904ZM67.0676 96.3616C71.4642 96.392 75.8549 96.0443 80.1884 95.3226C78.8089 102.55 76.7086 111.238 75.7166 112.977C73.4381 106.939 73.6706 106.916 67.0676 96.3616ZM76.3676 112.879C77.6231 110.146 79.5296 101.993 80.8006 95.2022C83.1139 94.781 85.3951 94.2075 87.6284 93.4857C87.3881 101.616 87.3184 111.765 87.8221 119.918C86.3496 119.79 84.2106 119.609 82.1336 119.451C82.0019 118.232 81.4826 113.986 81.0409 112.871C80.9246 112.57 80.7851 112.45 80.2659 112.435C78.9698 112.49 77.6798 112.638 76.4064 112.879H76.3676ZM79.1344 84.158C78.3494 83.7122 77.7224 83.0454 77.3364 82.2458C77.6951 82.3928 78.0693 82.5013 78.4524 82.5695C78.5976 82.7284 78.7851 82.8454 78.9942 82.9078C79.2033 82.9702 79.4261 82.9756 79.6381 82.9233C79.9869 82.8179 79.7621 82.7727 79.9481 83.247C80.0195 83.4381 80.1399 83.6084 80.2978 83.7417C80.4557 83.8751 80.646 83.9673 80.8507 84.0094C81.0554 84.0516 81.2677 84.0425 81.4678 83.9828C81.6679 83.9232 81.849 83.8151 81.9941 83.6686C82.2964 83.4051 82.3196 83.0889 82.6839 82.4114C83.0404 82.3436 83.3891 82.2533 83.7301 82.1554C84.6524 84.5043 87.5431 85.6411 87.7446 85.8142C84.3424 85.3249 81.3276 85.0162 79.1731 84.158H79.1344ZM64.2776 83.2546C66.1376 81.1617 65.7579 79.6635 63.8436 78.1804C59.9686 75.2293 60.4491 76.0197 58.8216 72.7223C56.9074 67.3696 58.5581 58.9377 59.9764 53.4495C60.3639 51.9438 63.0066 50.3327 64.9286 50.5737C67.5946 50.9049 66.4786 52.2676 68.7571 53.043C69.1527 53.1553 69.5618 53.2161 69.9739 53.2237C69.9983 53.2311 70.024 53.2337 70.0495 53.2315C70.0749 53.2293 70.0997 53.2222 70.1224 53.2107C70.1451 53.1991 70.1652 53.1834 70.1816 53.1643C70.198 53.1452 70.2103 53.1232 70.218 53.0994C70.2256 53.0757 70.2284 53.0508 70.2261 53.026C70.2238 53.0012 70.2165 52.9772 70.2046 52.9551C70.1927 52.9331 70.1765 52.9136 70.1569 52.8977C70.1372 52.8817 70.1145 52.8697 70.0901 52.8623C68.8814 52.158 67.7672 51.3109 66.7731 50.3403C67.2459 48.4657 68.4471 47.4418 70.7024 47.4268C72.2524 47.4268 73.4769 48.5711 74.5774 49.5498C75.9104 50.7318 77.3441 53.9238 77.2356 55.6779C76.9905 57.7105 77.4809 59.7626 78.6229 61.4824C79.3979 62.7923 80.8549 63.9291 81.7229 65.0358C82.2034 65.6531 81.9244 68.4085 81.6454 69.6206C81.2811 70.6821 80.5061 72.7072 80.3279 73.1665C77.0884 73.2794 77.2279 74.9658 78.7779 75.6885C77.3286 77.3749 73.7869 79.2494 76.3211 81.6134C76.8636 82.7201 77.7316 84.2333 78.8941 84.6925C79.719 85.0173 80.5724 85.2693 81.4439 85.4453C81.6144 86.6122 81.0564 90.4743 80.2039 94.9688C75.756 95.6876 71.2507 96.0176 66.7421 95.955C63.9444 91.5057 61.1621 87.2898 60.4569 86.6122C62.0227 85.839 63.3532 84.6815 64.3164 83.2546H64.2776ZM58.9921 87.222C60.5421 86.6574 59.7671 86.7553 60.1391 87.0338C60.5111 87.3124 63.0686 91.2498 66.0369 95.9249C62.5184 95.8722 58.5581 95.6162 57.0624 95.4506C57.5119 95.1043 56.3494 89.1569 55.8999 88.404C57.0236 87.9674 58.0621 87.5834 59.0309 87.222H58.9921ZM55.3264 88.6374C55.9636 90.8542 56.3967 93.1217 56.6206 95.413C53.2765 94.9474 49.9962 94.1217 46.8401 92.9512C49.5446 91.2707 52.3975 89.8271 55.3651 88.6374H55.3264ZM56.0316 143.068C53.1254 143.776 49.7231 143.362 46.7936 142.752C42.2134 141.796 39.0436 138.822 36.9821 135.013C33.7039 128.99 32.7274 120.038 33.7271 113.767C33.9286 112.51 34.1844 111.268 34.4014 110.003C35.6336 102.828 40.1209 97.4231 46.3829 93.3351C52.5286 95.5259 56.6594 96.2938 66.3159 96.3465C73.0041 106.886 73.1514 107.94 75.0656 113.097C74.4766 113.203 71.7486 113.737 71.2836 114.106C71.0976 114.249 71.0976 114.535 71.2836 119.06C64.2311 119.195 57.3336 120.264 50.8469 124.33C50.0719 118.902 50.9631 117.26 52.7689 114.151C55.6054 109.265 55.0939 108.362 53.3036 105.584C53.0085 105.209 52.7973 104.778 52.6836 104.319C52.6836 104.138 51.9086 103.89 53.0014 105.757C54.5514 108.497 54.9699 109.145 52.2264 113.85C50.2191 117.298 49.3976 119.067 50.6066 124.488C50.0641 124.842 49.4441 125.241 48.8474 125.707C47.9357 126.331 47.0801 127.029 46.2899 127.793C46.2744 127.822 46.2715 127.855 46.2817 127.886C46.2918 127.918 46.3143 127.943 46.3441 127.958C46.3739 127.973 46.4086 127.976 46.4406 127.966C46.4726 127.956 46.4992 127.935 46.5146 127.906C46.7549 127.492 50.7616 124.894 51.8389 124.36C57.8529 121.416 64.5024 118.872 75.3911 119.572C75.2539 124.047 75.7309 128.521 76.8094 132.874C71.2139 136.307 63.2624 141.321 56.0704 143.068H56.0316ZM77.2899 132.573C76.2942 128.328 75.8542 123.977 75.9801 119.624C87.7446 120.377 84.0556 120.136 87.8531 120.377C87.9926 122.576 88.2019 124.962 88.5119 127.153C85.4739 127.702 80.0101 130.94 77.3286 132.573H77.2899ZM105.453 141.532C98.6101 143.106 93.7509 139.477 90.6664 133.334C87.2564 126.558 87.8221 97.1295 88.0159 89.6311L95.0994 85.3701C104.663 105.433 105.81 107.33 107.957 113.978C110.731 122.448 114.389 139.53 105.492 141.532H105.453ZM111.7 130.014C111.52 125.982 110.881 121.983 109.793 118.089C107.337 108.806 104.678 104.153 97.3236 89.1343L97.5406 89.0213C104.035 92.3941 109.538 102.866 110.979 109.86C111.77 113.511 113.281 125.451 111.739 130.014H111.7Z" fill="white" fill-opacity="0.6"/>
</svg>
