<svg width="145" height="145" viewBox="0 0 145 145" fill="none" xmlns="http://www.w3.org/2000/svg">
<path d="M42.1645 96.185C42.3925 96.221 43.6405 96.281 43.6405 96.065C43.6405 95.939 43.4125 95.945 43.4125 95.945C43.4425 94.985 44.6605 94.745 45.5305 95.249C45.7703 95.387 45.992 95.5543 46.1905 95.747C44.9605 95.813 43.3285 96.653 43.4365 97.871C43.4985 98.1886 43.6316 98.488 43.826 98.7468C44.0203 99.0055 44.2707 99.2169 44.5585 99.365C44.9181 99.6341 45.3278 99.829 45.7635 99.9382C46.1992 100.047 46.6524 100.069 47.0965 100.001C47.8874 99.7993 48.5833 99.3283 49.0645 98.669C50.152 98.7036 51.216 98.3482 52.0645 97.667C52.1003 97.6386 52.1299 97.6032 52.1516 97.563C52.1732 97.5227 52.1865 97.4785 52.1905 97.433C52.1905 97.223 52.1905 97.235 50.9905 95.903C50.9565 95.8651 50.9139 95.8359 50.8663 95.8178C50.8187 95.7998 50.7675 95.7935 50.7169 95.7994C50.6664 95.8052 50.6179 95.8232 50.5758 95.8516C50.5336 95.8801 50.4988 95.9183 50.4745 95.963C50.4538 95.9892 50.4357 96.0173 50.4205 96.047C50.3252 96.226 50.1711 96.3666 49.9842 96.4453C49.7973 96.524 49.5891 96.5359 49.3945 96.479C48.7945 96.305 48.0205 94.715 46.6105 93.767C45.3805 92.939 43.7305 92.693 42.5665 93.677C42.0655 94.107 41.7093 94.6811 41.5465 95.321C41.4817 95.5183 41.4945 95.7328 41.5825 95.921C41.74 96.0737 41.9457 96.167 42.1645 96.185ZM44.4205 98.411C44.256 98.2935 44.1418 98.1183 44.1006 97.9204C44.0595 97.7225 44.0944 97.5163 44.1985 97.343C44.4645 96.9752 44.8343 96.6953 45.2605 96.539C44.9167 97.1218 44.6351 97.7392 44.4205 98.381V98.411ZM50.0725 97.463C50.2165 97.031 50.0725 97.181 50.3125 97.073C50.4943 96.9824 50.6588 96.8605 50.7985 96.713L51.3445 97.361C50.8923 97.6476 50.3924 97.8509 49.8685 97.961C49.9285 97.805 50.0245 97.565 50.0725 97.433V97.463ZM47.9005 95.933C48.4705 96.647 48.9445 97.283 49.8145 97.211C49.6903 97.4694 49.5899 97.7385 49.5145 98.015C49.0765 98.045 49.0165 97.943 48.8425 98.015C48.5005 98.147 47.9365 99.377 46.5685 99.371C46.6536 99.1807 46.7083 98.9782 46.7305 98.771C47.1175 98.6928 47.4799 98.5219 47.7865 98.273C47.9178 98.1591 48.0032 98.0013 48.0265 97.829C48.0265 97.619 47.9545 97.349 47.5105 96.995C47.6759 96.6446 47.8065 96.2789 47.9005 95.903V95.933ZM45.8845 98.201C45.3565 97.919 46.2565 97.421 46.8385 97.439C46.9722 97.44 47.1029 97.4788 47.2154 97.551C47.328 97.6232 47.4178 97.7259 47.4745 97.847C47.3943 97.976 47.2886 98.0874 47.1639 98.1741C47.0392 98.2609 46.8981 98.3213 46.7493 98.3517C46.6004 98.382 46.4469 98.3816 46.2982 98.3505C46.1495 98.3195 46.0087 98.2584 45.8845 98.171V98.201ZM46.5925 94.529C46.9999 94.8754 47.3699 95.2635 47.6965 95.687C47.5066 96.0332 47.3614 96.4022 47.2645 96.785C47.0123 96.7126 46.748 96.6928 46.4879 96.7269C46.2278 96.761 45.9775 96.8481 45.7525 96.983C44.6545 97.583 44.9125 98.897 46.4365 98.747C46.3469 98.9196 46.2803 99.1031 46.2385 99.293C45.63 99.1718 45.0611 98.9017 44.5825 98.507C45.0078 97.8461 45.339 97.1292 45.5665 96.377C45.7997 96.2698 46.052 96.2104 46.3086 96.2021C46.5652 96.1939 46.8208 96.237 47.0605 96.329L47.1865 95.855L47.0545 95.795C46.7725 95.603 46.6465 95.453 46.3225 95.195C46.4427 94.9759 46.5335 94.7419 46.5925 94.499V94.529ZM44.2645 93.569C45.0153 93.5827 45.7423 93.8349 46.3405 94.289C46.233 94.5335 46.1526 94.789 46.1005 95.051C45.8128 94.8253 45.4736 94.6747 45.1132 94.6129C44.7529 94.5511 44.3828 94.58 44.0365 94.697C44.1631 94.333 44.2398 93.9536 44.2645 93.569ZM42.8905 94.037C43.2231 93.7782 43.6228 93.6199 44.0425 93.581C43.8563 93.9843 43.7406 94.4166 43.7005 94.859C43.5217 94.9662 43.3754 95.12 43.2771 95.3038C43.1788 95.4877 43.1323 95.6948 43.1425 95.903C42.7221 95.9262 42.3014 95.8629 41.9065 95.717C41.9957 95.0505 42.3452 94.4465 42.8785 94.037H42.8905ZM33.9265 93.035C32.8465 92.567 30.4465 93.953 30.0085 94.697C29.9451 94.8611 29.9451 95.0429 30.0085 95.207C30.3865 96.641 33.9145 101.705 34.5685 102.491C34.6825 102.635 34.8385 102.437 34.7365 102.269C34.4245 101.753 34.4605 102.791 36.0565 97.625C36.2043 97.5671 36.342 97.4861 36.4645 97.385C36.5201 97.3233 36.5509 97.2431 36.5509 97.16C36.5509 97.0769 36.5201 96.9967 36.4645 96.935C36.41 96.8677 36.3475 96.8072 36.2785 96.755L36.6565 95.357L38.1565 96.185C37.8531 96.9432 37.6318 97.7317 37.4965 98.537C36.8915 98.7551 36.3246 99.0669 35.8165 99.461C35.4625 99.851 36.0205 100.571 36.3685 101.003C36.7165 101.435 37.0105 101.729 37.0765 101.795C37.1425 101.861 37.3525 101.795 37.3345 101.687C37.2964 101.6 37.2458 101.519 37.1845 101.447C36.8593 100.941 36.5802 100.407 36.3505 99.851C36.8168 99.572 37.3091 99.3389 37.8205 99.155C38.0065 99.089 38.5825 98.909 38.7385 99.005C39.5082 99.4105 40.3111 99.7497 41.1385 100.019C41.1719 100.035 41.2102 100.037 41.2451 100.025C41.28 100.012 41.3085 99.9864 41.3245 99.953C41.3404 99.9196 41.3424 99.8812 41.33 99.8463C41.3176 99.8114 41.2919 99.7829 41.2585 99.767L40.2205 99.137C40.4414 98.6359 40.5831 98.1036 40.6405 97.559L43.2025 98.945C43.3585 99.035 43.4785 98.789 43.3645 98.723C43.2505 98.657 35.4745 93.713 33.9265 93.035ZM33.0145 93.671C33.2238 93.6081 33.4471 93.6081 33.6565 93.671C33.7945 93.731 34.1305 93.911 34.5865 94.163C34.4326 94.5876 34.328 95.0285 34.2745 95.477C33.8725 95.249 33.6325 95.075 33.3145 95.129C33.1411 95.1678 32.979 95.2458 32.8405 95.357C32.9005 94.889 32.9545 94.529 33.0145 93.671ZM30.6145 94.991C31.2367 94.3977 31.9917 93.9616 32.8165 93.719C32.4962 95.1343 32.2717 96.5695 32.1445 98.015C31.5394 97.0568 31.029 96.042 30.6205 94.985L30.6145 94.991ZM33.3385 100.037C33.0085 99.491 32.6485 98.885 32.3065 98.291C32.5105 97.433 32.5765 97.037 32.7025 96.227C33.0307 96.7964 33.4103 97.3346 33.8365 97.835C33.5945 98.5494 33.4296 99.2876 33.3445 100.037H33.3385ZM34.3885 101.765C34.1725 101.423 33.8965 100.961 33.5365 100.367C33.7642 99.6142 33.915 98.8402 33.9865 98.057C34.1185 98.375 35.2945 97.919 35.6125 97.799C35.3785 98.537 34.5625 101.105 34.3945 101.765H34.3885ZM34.2085 97.871C33.8366 97.2275 33.5079 96.56 33.2245 95.873L33.4105 95.771C33.4945 95.819 35.5465 97.031 35.6965 97.127C35.2288 97.4244 34.7323 97.6736 34.2145 97.871H34.2085ZM36.0085 96.551C35.5585 96.251 34.9465 95.885 34.4785 95.615C34.6386 95.1902 34.7434 94.7465 34.7905 94.295L36.4945 95.255C36.4645 95.483 36.2605 95.951 36.0445 96.551H36.0085ZM39.9805 98.951L39.0565 98.393C38.6459 98.2309 38.189 98.2309 37.7785 98.393C38.011 97.6916 38.1797 96.9707 38.2825 96.239L40.4545 97.439C40.2326 97.9283 40.0849 98.4481 40.0165 98.981L39.9805 98.951Z" fill="white" fill-opacity="0.6"/>
<path d="M129.675 101.087C128.703 92.039 120.327 78.125 115.323 70.523C118.117 70.7465 120.921 70.8166 123.723 70.733C124.521 70.733 126.609 70.589 127.011 70.511C127.245 70.463 127.281 70.241 126.927 70.229C126.573 70.217 124.053 70.097 123.711 70.091H117.609C116.673 70.127 115.209 70.211 115.125 70.211C113.325 67.469 112.071 65.753 112.059 65.747C112.045 65.733 112.028 65.7221 112.01 65.7151C111.991 65.708 111.972 65.705 111.952 65.7061C111.933 65.7073 111.914 65.7126 111.896 65.7218C111.879 65.7309 111.864 65.7437 111.851 65.7592C111.839 65.7747 111.831 65.7926 111.826 65.8117C111.822 65.8308 111.821 65.8507 111.825 65.8699C111.829 65.8892 111.836 65.9075 111.848 65.9236C111.859 65.9396 111.874 65.953 111.891 65.963C112.167 66.185 124.293 83.903 128.001 96.107C129.471 100.949 130.341 107.027 125.601 108.707C114.345 112.727 26.1866 114.035 17.8526 109.307C16.6946 108.653 16.4246 107.291 16.6526 105.455C17.0066 102.905 18.3806 99.455 20.0366 95.591C21.9026 97.391 37.3826 111.605 39.8906 111.071C42.3986 110.537 56.5046 103.985 57.0866 102.731C57.4247 101.86 57.6035 100.935 57.6146 100.001C57.6856 99.9032 57.7187 99.783 57.7077 99.6627C57.6966 99.5423 57.6422 99.4301 57.5546 99.347C56.6246 98.423 38.1746 83.795 36.9866 83.837C36.1586 83.873 34.6586 84.725 33.9446 85.145C33.7131 84.7662 33.3684 84.4698 32.9593 84.2975C32.5502 84.1252 32.0973 84.0859 31.6646 84.185C31.2566 84.3497 30.8913 84.6049 30.5962 84.9312C30.301 85.2575 30.0837 85.6465 29.9606 86.069C29.9673 86.1014 29.985 86.1305 30.0107 86.1514C30.0364 86.1723 30.0685 86.1837 30.1016 86.1837C30.1347 86.1837 30.1668 86.1723 30.1925 86.1514C30.2182 86.1305 30.2359 86.1014 30.2426 86.069C30.6035 85.4587 31.1756 85.0018 31.8506 84.785C32.1313 84.7419 32.4184 84.7793 32.6786 84.893C32.9388 85.0066 33.1615 85.1918 33.3206 85.427L26.6486 88.277C26.2943 87.9128 25.8521 87.6462 25.3646 87.503C24.2246 87.203 23.4566 87.953 23.0006 89.051C22.9905 89.0825 22.9917 89.1166 23.0039 89.1474C23.016 89.1783 23.0385 89.204 23.0674 89.2202C23.0963 89.2364 23.1299 89.2421 23.1625 89.2365C23.1952 89.2308 23.2249 89.214 23.2466 89.189C24.0146 88.079 24.9026 87.701 25.9646 88.589C24.6806 89.159 22.8866 89.969 21.6266 90.593C21.7166 90.449 34.6646 67.001 34.6646 66.941C35.2346 65.885 36.3806 63.995 37.5626 63.749C38.0968 63.6325 38.6418 63.5722 39.1886 63.569C38.3546 64.949 31.5866 76.169 31.5746 77.753C31.5746 79.553 31.8866 79.271 32.8466 79.553C33.8066 79.835 87.5246 79.505 87.6206 79.505C88.5506 79.505 92.1866 79.385 92.5226 79.139C93.5666 78.371 93.3326 77.225 92.8766 76.019C92.7686 75.731 92.2226 74.537 91.4906 72.941C94.6406 71.993 97.0106 73.199 97.2266 78.341C97.4426 82.787 95.6906 84.143 92.3366 83.951C89.6426 83.795 87.7826 83.003 87.1946 84.053C86.5346 85.223 88.3586 87.851 89.1506 88.943C89.0366 88.943 84.0146 88.841 82.7486 88.787C80.9646 88.7179 79.1783 88.7399 77.3966 88.853C76.1696 88.88 74.9497 89.0471 73.7606 89.351C73.3106 89.573 72.7286 90.731 72.4826 91.217C71.9966 92.171 69.7826 98.159 69.1706 99.887C68.8106 100.883 67.5926 104.183 68.4086 104.765C68.3786 105.407 68.4806 106.265 69.0446 106.565C69.6086 106.865 77.3606 107.081 77.9546 107.093C79.0046 107.123 89.6186 107.261 96.3926 106.961C103.167 106.661 106.125 106.013 105.951 106.031C106.123 105.98 106.277 105.883 106.397 105.749C106.517 105.616 106.597 105.451 106.629 105.275C106.721 104.831 106.692 104.371 106.545 103.943C107.301 102.473 101.583 90.269 99.9986 89.411C99.905 89.3583 99.7999 89.3294 99.6926 89.327C99.3746 89.327 92.2586 89.027 89.4926 88.937C88.8926 88.091 86.9426 84.905 87.6926 84.227C88.8326 83.231 98.3546 88.223 97.8446 78.287C97.5806 73.793 95.5106 71.159 91.3106 72.683C90.9446 71.891 87.8726 65.327 87.0506 63.581C90.235 63.7715 93.4296 63.7013 96.6026 63.371C96.6482 63.9309 96.8092 64.4754 97.0757 64.97C97.3421 65.4647 97.7081 65.8988 98.1506 66.245C100.551 68.045 110.103 67.775 111.837 65.573C112.322 64.9085 112.658 64.1464 112.821 63.3394C112.984 62.5325 112.969 61.6998 112.779 60.899C112.938 60.7974 113.062 60.6484 113.133 60.473C113.229 60.287 113.133 60.053 112.719 59.969C112.185 59.889 111.644 59.8568 111.105 59.873C111.105 59.381 111.135 58.463 111.105 57.419C111.159 57.383 111.549 56.915 111.591 56.861C112.069 56.3022 112.446 55.6648 112.707 54.977C112.905 54.419 112.983 53.777 112.461 53.465C111.657 53.027 111.093 53.831 110.823 54.731C110.571 53.345 109.989 51.311 108.597 51.515C106.233 51.875 107.865 57.605 108.633 59.873C107.958 59.778 107.273 59.778 106.599 59.873C107.349 57.989 107.733 55.553 105.807 55.187C105.515 55.1224 105.21 55.1448 104.931 55.2515C104.651 55.3581 104.409 55.5443 104.235 55.787C104.196 55.6512 104.124 55.5274 104.024 55.4272C103.925 55.327 103.802 55.2537 103.666 55.2141C103.531 55.1745 103.387 55.17 103.25 55.2009C103.112 55.2319 102.984 55.2972 102.879 55.391C101.997 56.027 102.501 57.485 103.527 57.965C103.473 58.5818 103.473 59.2021 103.527 59.819C102.888 59.7418 102.241 59.7559 101.607 59.861C101.571 58.3959 101.41 56.9366 101.127 55.499C101.491 55.2396 101.798 54.9072 102.027 54.523C102.256 54.1387 102.403 53.711 102.459 53.267C102.543 52.469 102.261 51.803 101.595 51.629C100.761 51.413 100.269 51.995 100.125 52.829C99.3866 51.809 97.9406 51.443 97.2386 52.613C94.9886 50.273 93.9026 51.581 94.4726 52.613C94.8986 53.405 96.0086 53.849 96.8726 54.095C96.8726 55.439 97.4726 56.573 98.2166 57.731C98.7146 58.511 99.2726 59.261 99.7046 59.813C98.771 59.783 97.8366 59.8432 96.9146 59.993C96.3506 60.143 96.2606 60.551 96.7826 60.845C96.6175 61.5482 96.5569 62.272 96.6026 62.993C93.3795 62.8215 90.148 62.8977 86.9366 63.221C86.7326 62.783 86.1266 61.505 86.0546 61.355C85.9826 61.205 86.5586 59.465 87.3686 43.289C91.0886 42.977 107.817 43.349 109.353 42.755C109.441 42.7233 109.519 42.6689 109.579 42.5972C109.639 42.5255 109.679 42.4392 109.695 42.347C110.205 40.673 110.553 26.285 109.695 24.947C109.485 24.617 108.735 24.515 108.321 24.455C102.975 23.675 80.6666 24.011 79.5206 24.617C78.3746 25.223 78.8606 31.139 79.0766 32.315C67.4906 31.943 40.7366 32.669 38.2166 33.611C37.6166 33.827 37.3946 34.649 37.2746 35.267C36.2786 40.409 39.0746 56.957 40.0106 62.069C39.9506 62.069 40.0106 62.069 39.2786 63.209C38.659 63.163 38.0361 63.1953 37.4246 63.305C36.0566 63.515 34.7966 65.405 34.1006 66.581C34.0706 66.641 32.3006 69.581 32.0366 70.061C30.5306 69.827 23.5286 69.917 22.6406 69.965C21.7526 70.013 20.8406 70.079 20.0366 70.139C19.8926 70.139 19.8806 70.415 20.0366 70.421C21.7166 70.523 22.3346 70.559 23.6366 70.577C26.8226 70.625 31.5206 70.757 31.6706 70.739C31.3586 71.285 26.7386 79.505 26.1206 80.669C23.4326 85.709 21.3206 90.323 21.1946 90.713C20.4971 91.0301 19.842 91.4333 19.2446 91.913C19.0519 92.4416 18.9367 92.9953 18.9026 93.557C18.8726 94.523 19.2206 94.757 19.7546 95.297C18.3217 98.3671 17.1438 101.55 16.2326 104.813C15.9351 106.133 15.9228 107.502 16.1966 108.827C16.4416 110.152 16.8995 111.428 17.5526 112.607C17.8459 112.905 18.2261 113.102 18.6386 113.171C20.2166 113.615 25.1066 114.185 26.7446 114.371C26.6211 115.104 26.5869 115.85 26.6426 116.591C26.6442 117.355 26.7553 118.115 26.9726 118.847C26.9746 118.865 26.9801 118.883 26.9888 118.899C26.9976 118.915 27.0094 118.929 27.0236 118.94C27.0378 118.952 27.0541 118.96 27.0716 118.965C27.0891 118.97 27.1075 118.972 27.1256 118.97C27.1437 118.968 27.1613 118.962 27.1773 118.954C27.1932 118.945 27.2074 118.933 27.2188 118.919C27.2302 118.905 27.2387 118.888 27.2438 118.871C27.2489 118.853 27.2506 118.835 27.2486 118.817C27.3446 118.069 27.3707 117.314 27.3266 116.561C27.3226 115.836 27.2402 115.114 27.0806 114.407C27.9086 114.479 28.7066 114.539 29.4026 114.563C29.2919 115.263 29.2617 115.974 29.3126 116.681C29.3146 117.445 29.4257 118.205 29.6426 118.937C29.6426 118.974 29.6571 119.009 29.683 119.035C29.7089 119.06 29.744 119.075 29.7806 119.075C29.8172 119.075 29.8523 119.06 29.8782 119.035C29.904 119.009 29.9186 118.974 29.9186 118.937C30.0178 118.189 30.0459 117.434 30.0026 116.681C29.9985 115.98 29.918 115.282 29.7626 114.599C31.1006 114.629 50.7926 116.399 84.8006 115.727C93.9146 115.547 104.871 115.127 113.895 114.137C113.775 114.86 113.741 115.595 113.793 116.327C113.795 117.089 113.909 117.847 114.129 118.577C114.124 118.597 114.125 118.618 114.129 118.638C114.134 118.658 114.143 118.676 114.156 118.692C114.169 118.708 114.186 118.721 114.204 118.73C114.223 118.739 114.243 118.744 114.264 118.744C114.284 118.744 114.304 118.739 114.323 118.73C114.342 118.721 114.358 118.708 114.371 118.692C114.384 118.676 114.393 118.658 114.398 118.638C114.403 118.618 114.403 118.597 114.399 118.577C114.503 117.83 114.532 117.074 114.483 116.321C114.476 115.58 114.39 114.842 114.225 114.119C114.891 114.047 116.433 113.855 116.565 113.837C116.446 114.557 116.414 115.288 116.469 116.015C116.469 116.779 116.58 117.539 116.799 118.271C116.803 118.308 116.821 118.341 116.85 118.364C116.878 118.387 116.915 118.398 116.952 118.394C116.988 118.39 117.022 118.372 117.045 118.343C117.068 118.314 117.079 118.278 117.075 118.241C117.173 117.495 117.199 116.742 117.153 115.991C117.149 115.252 117.062 114.515 116.895 113.795C119.601 113.429 127.875 112.313 129.003 110.003C130.335 107.369 130.227 103.943 129.675 101.087ZM75.0746 91.427C75.1406 91.265 77.1506 90.827 79.3466 91.427C79.3667 91.4227 79.3875 91.423 79.4075 91.4278C79.4275 91.4326 79.4461 91.4418 79.4621 91.4547C79.4781 91.4677 79.4909 91.484 79.4998 91.5026C79.5086 91.5211 79.5132 91.5414 79.5132 91.562C79.5132 91.5825 79.5086 91.6028 79.4998 91.6214C79.4909 91.6399 79.4781 91.6562 79.4621 91.6692C79.4461 91.6821 79.4275 91.6913 79.4075 91.6961C79.3875 91.7009 79.3667 91.7012 79.3466 91.697C78.2531 91.8912 77.1365 91.9195 76.0346 91.781C75.5186 91.697 74.8646 91.691 75.0566 91.427H75.0746ZM105.921 105.695C100.371 106.751 69.7106 106.511 69.2486 106.295C68.7866 106.079 68.7446 105.383 68.7326 104.927C72.0566 106.007 104.535 105.173 106.341 104.219C106.437 104.747 106.461 105.593 105.903 105.695H105.921ZM94.2746 91.493C94.2746 91.289 95.5946 91.175 95.6546 91.169C96.4394 91.1086 97.2278 91.1086 98.0126 91.169C98.4506 91.217 99.0566 91.277 99.0086 91.463C98.9606 91.649 98.0546 91.727 97.8986 91.751C97.3122 91.805 96.7234 91.829 96.1346 91.823C95.7386 91.811 94.2326 91.739 94.2566 91.493H94.2746ZM101.985 93.491C103.486 96.3512 104.746 99.3315 105.753 102.401C105.881 102.789 105.951 103.193 105.963 103.601C103.257 104.441 72.0686 105.305 68.9126 104.399C68.7626 104.357 68.7206 104.399 68.6846 104.147C68.4566 102.515 71.1266 96.029 71.7446 94.517C83.0966 94.139 101.865 93.557 101.967 93.491H101.985ZM96.9326 53.825C96.2763 53.4645 95.681 53.0028 95.1686 52.457C94.9346 52.103 94.9886 51.857 95.6786 52.193C96.1106 52.391 96.7166 52.745 97.1246 52.991C97.0198 53.258 96.9551 53.539 96.9326 53.825ZM111.333 54.899C111.813 54.035 112.287 53.789 112.239 54.299C111.981 55.2116 111.614 56.0899 111.147 56.915C111.111 56.315 111.069 55.913 111.021 55.517C111.045 55.433 111.165 55.181 111.315 54.899H111.333ZM108.783 60.119C108.903 60.461 108.981 60.665 108.987 60.677C108.993 60.694 109.003 60.7095 109.016 60.7226C109.028 60.7358 109.044 60.7463 109.06 60.7535C109.077 60.7608 109.095 60.7646 109.113 60.7649C109.132 60.7651 109.15 60.7618 109.167 60.755C109.431 60.653 109.041 60.407 108.417 56.789C108.231 55.709 107.679 52.379 108.771 52.223C109.659 52.091 110.139 54.293 110.307 55.163C110.618 56.8399 110.818 58.5356 110.907 60.239C110.906 60.2722 110.918 60.3045 110.939 60.3298C110.961 60.3552 110.991 60.372 111.023 60.3771C111.056 60.3822 111.09 60.3753 111.118 60.3576C111.146 60.34 111.167 60.3128 111.177 60.281C111.178 60.247 111.178 60.2129 111.177 60.179C111.719 60.1949 112.258 60.2694 112.785 60.401C112.718 60.4792 112.633 60.5408 112.539 60.581C111.279 61.229 107.469 61.103 106.155 61.079C106.335 60.719 106.461 60.443 106.599 60.113C107.316 60.2308 108.047 60.2328 108.765 60.119H108.783ZM104.103 58.805C104.241 57.605 104.547 55.691 105.759 55.919C106.971 56.147 106.665 57.905 106.401 59.081C106.238 59.7556 106.038 60.4206 105.801 61.073H104.001C103.986 60.316 104.014 59.5588 104.085 58.805H104.103ZM103.341 55.985C103.368 55.9584 103.402 55.9379 103.438 55.9249C103.474 55.9119 103.513 55.9067 103.551 55.9095C103.59 55.9123 103.627 55.9232 103.661 55.9413C103.695 55.9595 103.725 55.9846 103.749 56.015C103.844 56.1107 103.931 56.2151 104.007 56.327C103.836 56.7096 103.717 57.1131 103.653 57.527C103.341 57.095 102.939 56.309 103.341 55.985ZM101.451 52.337C102.231 52.583 101.619 54.635 101.097 55.259C100.952 54.6132 100.737 53.9853 100.455 53.387C100.629 52.859 100.923 52.169 101.451 52.331V52.337ZM99.9746 60.185C100.269 60.557 100.461 60.785 100.461 60.785C100.484 60.8085 100.516 60.8225 100.549 60.8245C100.583 60.8265 100.616 60.8162 100.642 60.7957C100.669 60.7751 100.687 60.7457 100.693 60.7128C100.699 60.6799 100.694 60.6458 100.677 60.617C100.677 60.617 99.6146 59.105 98.7386 57.539C98.0786 56.339 97.4486 55.139 97.6226 53.813C97.7606 52.769 98.3126 52.325 99.2426 52.931C100.587 53.795 101.199 59.123 101.391 60.731C101.392 60.773 101.407 60.8135 101.433 60.8468C101.459 60.8801 101.494 60.9046 101.535 60.917C101.697 60.917 101.673 60.743 101.667 60.659C101.661 60.575 101.667 60.155 101.667 60.113C102.304 60.1936 102.949 60.1936 103.587 60.113C103.623 60.551 103.665 60.893 103.695 61.073C101.565 61.073 98.9906 61.217 97.2266 60.527C98.1333 60.3476 99.0516 60.2333 99.9746 60.185ZM97.1006 61.067C97.9782 61.4071 98.9031 61.6095 99.8426 61.667C100.905 61.763 108.135 61.775 108.957 61.733C110.196 61.7126 111.423 61.4834 112.587 61.055C112.698 61.7917 112.656 62.5436 112.463 63.2633C112.27 63.9831 111.93 64.655 111.465 65.237C110.007 66.947 100.785 67.337 98.5706 65.777C97.1126 64.775 96.8486 62.771 97.1006 61.061V61.067ZM92.2646 78.683C92.3906 79.085 35.1806 79.103 35.1206 79.097C32.7206 79.097 33.3206 79.097 32.5166 78.899C32.3006 78.851 32.2586 78.851 32.2166 78.641C32.1657 78.3115 32.1516 77.9775 32.1746 77.645C32.1872 77.6696 32.2075 77.6894 32.2324 77.7013C32.2574 77.7132 32.2855 77.7166 32.3126 77.711C32.3126 77.711 92.2466 76.895 92.6366 76.883C92.7986 77.585 92.8226 78.239 92.2646 78.683ZM109.143 42.269C109.143 42.269 109.179 42.209 109.191 42.227C109.203 42.245 109.143 42.263 109.113 42.269H109.143ZM79.3046 27.137C79.3046 26.747 79.4606 25.271 79.8086 25.091C80.6006 24.695 105.771 24.359 109.209 25.433C109.809 26.693 109.617 40.847 109.113 42.269C106.161 42.731 91.3046 42.695 87.4406 43.091C87.6746 38.369 87.7766 34.391 87.5846 33.617C87.5476 33.516 87.4877 33.425 87.4096 33.3511C87.3315 33.2772 87.2374 33.2224 87.1346 33.191C85.8206 32.621 80.8766 32.459 79.4366 32.411C79.2497 30.6594 79.2056 28.8956 79.3046 27.137ZM37.8146 42.245C37.7246 40.985 37.2806 34.625 38.4806 34.181C39.0806 33.971 41.1926 33.761 44.2586 33.581C50.1326 33.215 59.3906 32.921 67.8146 32.861C69.6866 32.861 85.5026 32.723 87.0506 33.785C87.5066 35.861 86.0486 58.925 85.7246 61.151C71.5466 61.613 54.7466 62.309 40.4486 61.961C40.2086 60.587 38.3726 49.985 37.8146 42.245ZM40.2626 62.363C40.2637 62.349 40.2637 62.3349 40.2626 62.321C50.3726 62.633 82.0106 61.595 85.8626 61.571C86.2886 62.561 92.2706 75.833 92.5226 76.571C92.4566 76.571 32.2646 77.387 32.1866 77.447C32.9426 74.915 39.1946 64.211 40.2626 62.363ZM56.7566 102.563C56.3126 103.427 42.8606 109.439 40.0946 110.273C40.1482 109.996 40.1684 109.714 40.1546 109.433C44.2406 108.017 53.1086 104.279 57.0866 101.633C57.0108 101.956 56.9001 102.27 56.7566 102.569V102.563ZM57.1706 101.237C55.9706 101.945 54.8246 102.437 40.1486 109.109C40.1492 108.837 40.1128 108.567 40.0406 108.305C41.9606 107.405 54.9806 102.359 57.3026 100.349C57.2726 100.607 57.2306 100.919 57.1706 101.243V101.237ZM26.2646 88.925C26.5531 89.2648 26.7317 89.6843 26.7767 90.1278C26.8217 90.5713 26.731 91.0181 26.5166 91.409C26.4206 91.559 26.6486 91.715 26.7446 91.559C27.1068 91.1641 27.3209 90.6559 27.3505 90.1209C27.38 89.5859 27.2231 89.0573 26.9066 88.625C29.8226 87.287 32.6906 86.027 33.4766 85.685C33.6732 86.0844 33.7785 86.5227 33.7847 86.9679C33.7909 87.4131 33.698 87.8541 33.5126 88.259C33.4406 88.451 33.6566 88.523 33.7586 88.397C34.0886 87.9777 34.294 87.474 34.3513 86.9435C34.4085 86.413 34.3154 85.8771 34.0826 85.397C34.7306 85.031 36.2426 84.197 36.9806 84.197C37.9046 84.197 56.6546 99.449 57.0026 99.797C55.4366 101.411 40.8986 107.165 39.6746 107.753C37.0946 107.153 21.3506 93.611 19.8746 92.219C20.7926 91.457 25.2326 89.405 26.2646 88.925ZM19.4186 92.495C21.2906 94.325 36.9086 107.957 39.5246 108.389C39.4721 108.615 39.4479 108.847 39.4526 109.079C35.2526 107.027 23.2526 96.635 19.2806 93.293C19.2986 93.293 19.3886 92.705 19.4366 92.495H19.4186ZM19.5086 94.553C19.3393 94.2953 19.2554 93.991 19.2686 93.683C23.1926 97.643 34.2686 107.381 39.4466 109.409C39.4359 109.73 39.4682 110.051 39.5426 110.363C36.4646 109.673 19.9166 95.045 19.5266 94.553H19.5086ZM128.709 109.805C124.833 117.497 19.6526 115.487 17.9486 112.487C17.2263 111.231 16.7384 109.855 16.5086 108.425C16.74 108.932 17.1267 109.352 17.6126 109.625C26.4446 114.767 114.315 113.423 125.787 109.301C128.217 108.425 129.441 106.535 129.717 103.901C129.879 105.923 129.529 107.954 128.697 109.805H128.709Z" fill="white" fill-opacity="0.6"/>
<path d="M38.8645 68.9989C81.2905 69.5989 85.3405 69.2329 86.5285 69.0469C86.8105 69.0049 86.9905 68.9089 86.9785 68.5789C86.9785 67.7089 84.9385 63.7189 84.3985 63.4429C84.1585 63.3169 41.1985 63.9229 41.0485 63.9709C41.0205 63.9777 40.9943 63.9902 40.9716 64.0078C40.9488 64.0254 40.93 64.0476 40.9165 64.0729C40.5085 64.7389 38.5165 68.0269 38.6065 68.7709C38.6162 68.833 38.6473 68.8898 38.6944 68.9314C38.7415 68.973 38.8017 68.9969 38.8645 68.9989ZM41.2225 64.3849C41.6545 64.3309 83.9185 63.9109 84.1765 63.9349C84.6244 64.5793 85.0254 65.255 85.3765 65.9569C84.3925 65.9569 40.4125 66.1909 40.1845 66.1969C40.4485 65.6689 40.7965 65.0689 41.2225 64.3849ZM40.0225 66.4849C40.2565 66.4849 84.7585 66.2569 85.5205 66.2389C85.9153 66.9741 86.2272 67.7508 86.4505 68.5549C84.3145 68.8969 64.8505 68.7289 39.0805 68.5549C39.3213 67.8282 39.6327 67.1268 40.0105 66.4609L40.0225 66.4849ZM71.9785 71.0389C71.8588 70.774 71.6632 70.5505 71.4165 70.3967C71.1698 70.2429 70.883 70.1657 70.5925 70.1749C69.0685 70.1749 56.2705 69.8209 55.1185 70.2889C54.383 71.18 53.814 72.1962 53.4385 73.2889C53.4025 73.5529 53.5345 73.6729 53.6965 73.6909C57.2965 74.0809 69.2305 74.4529 72.3265 73.8829C72.7105 73.8109 72.7585 73.4029 72.6805 73.0129C72.4947 72.3387 72.2601 71.679 71.9785 71.0389ZM53.8645 73.2889C54.2091 72.3153 54.6769 71.3898 55.2565 70.5349C56.1685 70.2349 68.0305 70.8589 70.6105 70.8529C70.7641 70.8474 70.916 70.8864 71.048 70.9652C71.18 71.0439 71.2864 71.1591 71.3545 71.2969C71.6461 71.9201 71.8733 72.5715 72.0325 73.2409C68.9905 73.7149 56.0725 73.4449 53.8645 73.2889ZM113.648 71.8069C112.802 70.6429 108.56 70.6969 107.138 70.7389C105.938 70.7389 101.576 70.9369 101.576 72.1129C101.581 72.2082 101.609 72.3009 101.657 72.3833C101.705 72.4657 101.772 72.5355 101.852 72.5869C101.966 72.6769 101.18 80.5849 102.26 84.8269C102.614 86.2309 103.07 86.9269 104.408 87.5089C106.976 88.6249 111.236 88.3789 112.946 85.9969C113.288 85.3009 113.216 83.2729 113.246 82.6549C115.904 83.1829 118.082 82.1029 118.646 79.2409C119 77.3989 118.544 76.1929 117.758 75.4609C117.233 75.0334 116.613 74.7392 115.949 74.6034C115.286 74.4676 114.599 74.4942 113.948 74.6809C113.926 74.6886 113.902 74.6907 113.878 74.6871C113.854 74.6835 113.832 74.6742 113.812 74.6601C113.793 74.646 113.777 74.6275 113.766 74.606C113.756 74.5846 113.75 74.5609 113.75 74.5369C113.75 74.2189 113.864 72.0649 113.648 71.8069ZM102.248 71.9329C103.868 70.9849 110.468 70.9129 112.598 71.8789C112.67 71.9149 112.94 72.0529 112.94 72.1129C112.94 72.1729 112.664 72.3169 112.598 72.3469C110.99 73.0729 105.248 73.4029 102.23 72.2989C102.02 72.1849 102.23 71.9569 102.23 71.9329H102.248ZM114.116 75.2929C114.662 75.1358 115.237 75.1132 115.793 75.2271C116.349 75.341 116.869 75.588 117.308 75.9469C117.956 76.5469 118.28 77.5789 117.98 79.1089C117.921 79.6408 117.736 80.1511 117.442 80.5984C117.148 81.0456 116.753 81.4172 116.288 81.6829C115.304 82.1258 114.197 82.2107 113.156 81.9229C113.105 81.9044 113.051 81.8965 112.997 81.8999C112.942 81.9033 112.889 81.9179 112.841 81.9426C112.793 81.9674 112.75 82.0019 112.715 82.0439C112.681 82.0859 112.655 82.1346 112.64 82.1869C112.478 82.6429 112.706 84.4849 112.376 85.6489C110.858 87.7069 106.976 87.8929 104.678 86.9269C103.514 86.4289 103.19 85.9129 102.878 84.6709C102.074 81.7249 102.026 75.7249 102.206 72.7729C104.096 73.6669 110.642 73.9249 113.216 72.6049C113.216 74.4649 112.988 74.7769 113.456 75.1549C113.547 75.2232 113.651 75.2709 113.762 75.2948C113.873 75.3186 113.988 75.318 114.098 75.2929H114.116ZM55.8325 88.0069C54.2567 86.6705 52.5616 85.4815 50.7685 84.4549C50.0777 84.0474 49.343 83.7193 48.5785 83.4769C47.9365 83.3089 47.6665 83.6389 47.7985 84.0769C48.0689 84.7058 48.4264 85.2935 48.8605 85.8229C50.241 87.5705 51.8286 89.144 53.5885 90.5089C56.2645 92.7469 59.7325 95.4589 62.2645 97.3849C62.3935 97.4792 62.54 97.5467 62.6955 97.5836C62.8509 97.6205 63.0122 97.626 63.1698 97.5997C63.3274 97.5735 63.4781 97.516 63.6132 97.4307C63.7483 97.3454 63.865 97.2339 63.9565 97.1029C64.4005 96.6169 64.6765 95.7649 64.1785 95.3029C63.6025 94.7869 60.0805 91.4689 55.8325 88.0069ZM50.0845 86.6749L49.2625 85.3489C49.5551 85.2274 49.8026 85.0177 49.9705 84.7489L51.2725 85.2769C50.9458 85.3417 50.6506 85.5151 50.4349 85.7689C50.2192 86.0227 50.0957 86.342 50.0845 86.6749ZM51.9265 88.2049C51.4929 87.84 51.0914 87.4385 50.7265 87.0049C50.7685 86.2789 50.9965 85.9549 51.7225 85.9309C52.2062 86.162 52.6629 86.4457 53.0845 86.7769C52.7618 86.8555 52.4739 87.0377 52.2647 87.2957C52.0555 87.5536 51.9367 87.873 51.9265 88.2049ZM62.1865 96.9349C61.5205 96.3769 52.6645 88.8649 52.1185 88.3849C52.1643 88.049 52.311 87.7349 52.5392 87.4842C52.7674 87.2335 53.0663 87.058 53.3965 86.9809C55.4665 88.5169 58.4425 91.0609 63.6325 95.3809C63.4304 95.3706 63.2286 95.4047 63.0412 95.4807C62.8537 95.5567 62.6852 95.6729 62.5474 95.821C62.4096 95.9691 62.3058 96.1455 62.2435 96.338C62.1812 96.5304 62.1617 96.7342 62.1865 96.9349ZM109.73 103.583C110.48 104.093 111.002 103.859 111.488 103.151C112.688 101.447 116.888 93.9049 116.888 93.8449C116.888 93.7849 116.936 93.8989 116.738 91.4749C116.73 91.3838 116.697 91.2966 116.643 91.2226C116.589 91.1486 116.517 91.0904 116.432 91.0542C116.348 91.018 116.256 91.0051 116.165 91.0168C116.075 91.0286 115.989 91.0645 115.916 91.1209L113.864 92.6149C113.864 92.6149 109.31 102.029 109.262 102.113C109.18 102.376 109.181 102.659 109.265 102.922C109.348 103.185 109.511 103.416 109.73 103.583ZM116.084 91.8529C116.12 92.2909 116.168 92.8729 116.204 93.2749C115.759 93.0616 115.292 92.8947 114.812 92.7769L116.084 91.8529ZM114.368 93.1849C114.888 93.5535 115.489 93.7922 116.12 93.8809C116.03 94.0369 111.446 102.401 111.398 102.485C111.259 102.201 111.03 101.972 110.747 101.832C110.464 101.692 110.142 101.649 109.832 101.711C110.3 100.841 114.2 93.4849 114.368 93.1849Z" fill="white" fill-opacity="0.6"/>
<path d="M111.609 81.2869C111.544 81.1961 111.462 81.1191 111.367 81.0604C111.272 81.0017 111.167 80.9624 111.057 80.9449C110.702 80.8501 110.341 80.7779 109.977 80.7289C110.181 82.1569 110.301 83.7289 110.295 83.8669C110.285 83.9583 110.241 84.0423 110.17 84.1007C110.099 84.1592 110.008 84.1873 109.917 84.1789C109.825 84.1683 109.741 84.1222 109.682 84.0505C109.624 83.9787 109.596 83.887 109.605 83.7949C109.605 83.6929 109.569 83.2789 109.539 80.6689C108.339 80.5189 102.561 80.0689 102.789 81.2209C102.789 81.2809 102.315 84.2209 104.151 85.6309C105.987 87.0409 109.659 86.7649 110.943 85.3309C111.307 84.8944 111.547 84.3681 111.639 83.8069C111.78 82.9719 111.77 82.1183 111.609 81.2869ZM113.049 75.8569C113.049 76.1269 112.689 78.1909 112.449 80.9629L112.737 81.0229C113.792 81.247 114.892 81.1272 115.875 80.6809C116.217 80.4906 116.501 80.2097 116.695 79.8689C116.888 79.5282 116.984 79.1407 116.973 78.7489C117.013 78.2619 116.929 77.7725 116.727 77.3275C116.525 76.8825 116.212 76.4966 115.818 76.2067C115.425 75.9167 114.964 75.7324 114.479 75.6711C113.994 75.6099 113.502 75.6739 113.049 75.8569ZM113.319 76.0609C113.701 76.0003 114.093 76.0225 114.467 76.126C114.84 76.2295 115.187 76.4119 115.485 76.6609C115.77 76.9226 115.991 77.2467 116.13 77.6078C116.27 77.9689 116.324 78.3574 116.289 78.7429C116.235 80.2849 114.651 80.5789 113.133 80.4229C113.205 79.3309 113.265 78.0769 113.319 76.0609ZM106.893 40.8409C106.891 40.9478 106.911 41.0539 106.95 41.1532C106.99 41.2525 107.049 41.3429 107.123 41.4193C107.198 41.4957 107.287 41.5566 107.386 41.5984C107.484 41.6402 107.59 41.6621 107.697 41.6629C107.86 41.6665 108.021 41.6213 108.158 41.5332C108.296 41.4451 108.404 41.318 108.469 41.1681C108.534 41.0183 108.553 40.8525 108.523 40.6919C108.493 40.5312 108.416 40.3831 108.302 40.2663C108.188 40.1496 108.042 40.0695 107.882 40.0363C107.722 40.0031 107.556 40.0183 107.404 40.0799C107.253 40.1416 107.124 40.2469 107.032 40.3824C106.941 40.518 106.893 40.6776 106.893 40.8409ZM41.2226 60.6349C41.3606 60.9049 41.5406 60.9349 41.6546 60.8509C41.7686 60.7669 79.7666 60.4369 82.5926 60.2869C83.2003 60.2963 83.8063 60.2195 84.3926 60.0589C85.7426 58.8589 86.2706 36.4249 85.7426 35.3869C84.3926 32.6929 42.1406 34.4269 39.5426 35.2129C37.4726 35.8369 40.2686 58.7209 41.2226 60.6349ZM39.4286 36.1849C39.4286 36.0769 39.5606 35.6569 39.6626 35.6269C42.5366 34.7629 84.2666 33.3409 85.4006 35.5969C85.4973 36.0483 85.5416 36.5094 85.5326 36.9709C85.6346 39.5869 85.5326 45.1909 85.2626 50.2129C85.2086 51.1729 84.7826 59.0389 84.1586 59.7529C81.6686 60.2809 43.2986 60.4009 41.5946 60.4669C40.6226 58.2109 38.5226 40.1449 39.4286 36.1849ZM107.775 27.6109C107.938 27.6145 108.098 27.5695 108.235 27.4816C108.373 27.3937 108.481 27.267 108.546 27.1175C108.611 26.968 108.63 26.8025 108.601 26.6421C108.572 26.4816 108.496 26.3335 108.382 26.2165C108.269 26.0995 108.123 26.0189 107.963 25.985C107.804 25.9512 107.638 25.9655 107.486 26.0262C107.335 26.0869 107.205 26.1913 107.113 26.3261C107.021 26.4608 106.972 26.6198 106.971 26.7829C106.968 26.8903 106.987 26.9971 107.026 27.097C107.066 27.197 107.124 27.2881 107.199 27.3652C107.274 27.4423 107.363 27.5037 107.462 27.5458C107.561 27.588 107.667 27.6101 107.775 27.6109Z" fill="white" fill-opacity="0.6"/>
<path d="M51.1704 51.3049H58.2984C59.1232 51.3017 59.9131 50.9714 60.4947 50.3865C61.0763 49.8015 61.402 49.0097 61.4004 48.1849V42.4009C61.4005 41.5743 61.075 40.7809 60.4944 40.1925C59.9139 39.604 59.1249 39.2679 58.2984 39.2569H51.1704C50.7571 39.2553 50.3475 39.3355 49.9654 39.493C49.5832 39.6504 49.236 39.882 48.9437 40.1742C48.6514 40.4665 48.4199 40.8137 48.2625 41.1959C48.105 41.578 48.0248 41.9876 48.0264 42.4009V48.1849C48.028 48.5962 48.1105 49.0032 48.2694 49.3826C48.4282 49.7619 48.6603 50.1063 48.9522 50.396C49.2442 50.6858 49.5903 50.9151 49.9709 51.0711C50.3515 51.227 50.7591 51.3065 51.1704 51.3049ZM48.5364 42.4009C48.5473 41.7074 48.8289 41.0456 49.321 40.5569C49.8131 40.0681 50.4768 39.7911 51.1704 39.7849H58.2984C58.6487 39.7809 58.9963 39.8464 59.3211 39.9775C59.6459 40.1087 59.9416 40.3028 60.1909 40.5489C60.4403 40.7949 60.6385 41.0879 60.774 41.4109C60.9095 41.7339 60.9796 42.0806 60.9804 42.4309V48.1849C60.9788 48.5355 60.9082 48.8824 60.7726 49.2058C60.6369 49.5291 60.4389 49.8225 60.1899 50.0694C59.9408 50.3162 59.6456 50.5115 59.3211 50.6443C58.9965 50.777 58.649 50.8445 58.2984 50.8429H51.1704C50.8229 50.8413 50.4791 50.7713 50.1587 50.6369C49.8383 50.5025 49.5475 50.3062 49.3029 50.0594C49.0583 49.8126 48.8647 49.52 48.7332 49.1984C48.6017 48.8768 48.5348 48.5324 48.5364 48.1849V42.4009ZM70.4424 55.5889C70.5624 55.9429 70.8624 55.8649 70.9464 55.6429C71.0604 55.3249 71.7264 53.0389 71.8104 52.6429C72.2724 52.4989 70.9704 52.9489 74.9964 51.4849C75.0381 51.4687 75.074 51.4403 75.0993 51.4033C75.1246 51.3664 75.1382 51.3227 75.1382 51.2779C75.1382 51.2331 75.1246 51.1894 75.0993 51.1524C75.074 51.1155 75.0381 51.0871 74.9964 51.0709L68.8284 48.6049C68.7905 48.587 68.7486 48.5793 68.7068 48.5826C68.665 48.5859 68.6248 48.6001 68.5903 48.6238C68.5557 48.6474 68.5279 48.6798 68.5097 48.7175C68.4914 48.7552 68.4834 48.7971 68.4864 48.8389C68.4864 48.8389 70.1124 54.6349 70.4424 55.5889ZM69.1044 49.2469L74.3004 51.2929C73.6044 51.5509 72.4284 51.9949 71.8644 52.2229C71.6124 52.3189 71.5104 52.3609 71.4504 52.4389C71.3904 52.5169 71.6004 52.0489 70.7184 54.7669L69.1044 49.2469ZM83.2644 31.6549C83.2714 31.6909 83.2909 31.7232 83.3195 31.7463C83.348 31.7693 83.3837 31.7816 83.4204 31.7809C83.5464 31.7809 87.4284 32.1529 88.2204 31.9429C88.7304 31.8049 88.8204 30.9049 88.8684 30.3769C88.9284 29.5789 88.8684 27.6229 88.5324 26.9569C88.0764 26.0569 84.7104 26.3569 83.7324 26.5309C83.4728 26.5674 83.2247 26.6617 83.0064 26.8069C82.8793 26.9544 82.8053 27.1404 82.7964 27.3349C82.7905 28.7879 82.9474 30.2369 83.2644 31.6549ZM83.4384 27.2689C84.3864 26.9749 87.0864 26.8609 87.9444 27.2689C88.2384 28.0489 88.3944 30.7309 88.0404 31.3549C87.4824 31.4989 84.0744 31.4989 83.5044 31.5049C83.4864 31.0369 83.2104 28.5109 83.4384 27.2689ZM91.3164 31.6309C91.3245 31.6664 91.3442 31.6981 91.3725 31.7209C91.4008 31.7438 91.436 31.7565 91.4724 31.7569C91.5984 31.7569 95.4804 32.1289 96.2724 31.9189C96.7824 31.7809 96.8724 30.8809 96.9264 30.3529C96.9804 29.5549 96.9264 27.5989 96.5844 26.9329C96.1284 26.0269 92.7624 26.3329 91.7844 26.5069C91.5254 26.5459 91.2779 26.64 91.0584 26.7829C90.934 26.932 90.8604 27.117 90.8484 27.3109C90.8428 28.7638 90.9998 30.2129 91.3164 31.6309ZM91.4904 27.2449C92.4384 26.9449 95.1384 26.8369 95.9964 27.2449C96.2904 28.0249 96.4464 30.7069 96.0924 31.3249C95.5344 31.4749 92.1264 31.4749 91.5564 31.4809C91.5384 31.0129 91.2624 28.4869 91.4904 27.2449ZM99.7404 31.8949C99.7474 31.9309 99.7669 31.9632 99.7955 31.9863C99.824 32.0093 99.8597 32.0216 99.8964 32.0209C100.022 32.0209 103.904 32.3929 104.696 32.1829C105.206 32.0449 105.296 31.1449 105.344 30.6169C105.404 29.8189 105.344 27.8629 105.008 27.1969C104.552 26.2969 101.186 26.5969 100.208 26.7709C99.9492 26.809 99.7014 26.9032 99.4824 27.0469C99.3553 27.1944 99.2813 27.3804 99.2724 27.5749C99.2665 29.0279 99.4234 30.4769 99.7404 31.8949ZM99.9144 27.5089C100.862 27.2149 103.562 27.1009 104.42 27.5089C104.714 28.2889 104.87 30.9709 104.516 31.5949C103.958 31.7389 100.55 31.7389 99.9804 31.7449C99.9624 31.2769 99.6864 28.7509 99.9144 27.5089ZM91.3704 40.8589C91.4124 40.9789 91.5084 40.9909 91.5264 40.9849C91.6584 40.9849 95.5344 41.3569 96.3264 41.1469C96.8364 41.0089 96.9264 40.1089 96.9804 39.5809C97.0344 38.7829 96.9804 36.8269 96.6444 36.1669C96.1824 35.2609 92.8164 35.5669 91.8444 35.7349C91.5831 35.7721 91.3332 35.8663 91.1124 36.0109C90.9868 36.1617 90.9131 36.3489 90.9024 36.5449C90.8968 37.9959 91.0537 39.4429 91.3704 40.8589ZM91.5504 36.4729C92.4984 36.1789 95.1924 36.0649 96.0504 36.4729C96.3444 37.2529 96.5004 39.9349 96.1464 40.5589C95.5884 40.7029 92.1864 40.7029 91.6164 40.7089C91.5924 40.2409 91.3164 37.7149 91.5504 36.4729ZM105.398 35.9209C106.358 34.5049 107.198 33.2269 107.228 33.1669C107.258 33.1069 106.82 32.5669 106.562 32.9509C104.726 35.7769 104.978 35.5069 104.846 35.4589C103.79 35.0749 100.382 35.2069 99.8484 35.7049C99.4884 36.0409 99.6264 37.2589 99.6684 37.7809C99.2844 37.5649 98.9904 37.4089 98.8824 37.3669C98.6064 37.2589 98.6244 37.5289 98.7744 37.6249L99.7104 38.2249C99.7862 39.0134 99.9084 39.7968 100.076 40.5709C100.082 40.6074 100.101 40.6405 100.13 40.6638C100.159 40.6871 100.195 40.6988 100.232 40.6969C100.358 40.6969 104.24 41.0689 105.032 40.8589C106.064 40.5709 105.746 36.7849 105.398 35.9209ZM100.25 36.1669C101.662 35.8457 103.124 35.8192 104.546 36.0889L102.464 39.3709C102.254 39.2509 101.132 38.5909 100.196 38.0629C100.157 37.4366 100.175 36.8079 100.25 36.1849V36.1669ZM104.852 40.2469C104.288 40.3969 100.886 40.3969 100.316 40.4029C100.316 40.1629 100.226 39.3769 100.184 38.5069L102.464 39.9229C102.522 39.9292 102.58 39.919 102.632 39.8935C102.684 39.868 102.728 39.8283 102.758 39.7789C102.95 39.5329 103.916 38.1289 104.9 36.6829C105.086 37.7629 105.146 39.7309 104.864 40.2469H104.852ZM80.9964 27.4129C81.1592 27.4153 81.319 27.3692 81.4557 27.2806C81.5923 27.192 81.6995 27.0649 81.7637 26.9152C81.8279 26.7656 81.8463 26.6003 81.8164 26.4402C81.7866 26.2801 81.7098 26.1326 81.596 26.0162C81.4821 25.8998 81.3362 25.8198 81.1769 25.7864C81.0175 25.7531 80.8518 25.7678 80.7008 25.8287C80.5498 25.8896 80.4203 25.994 80.3287 26.1286C80.2371 26.2633 80.1876 26.4221 80.1864 26.5849C80.1863 26.8014 80.2711 27.0093 80.4225 27.1641C80.5739 27.3189 80.7799 27.4082 80.9964 27.4129Z" fill="white" fill-opacity="0.6"/>
</svg>
