<svg width="145" height="145" viewBox="0 0 145 145" fill="none" xmlns="http://www.w3.org/2000/svg">
<path d="M70.0796 67.9528C70.3319 68.0298 70.6041 68.0089 70.8418 67.8942C71.0794 67.7795 71.2651 67.5794 71.3617 67.3338C71.4584 67.0883 71.4589 66.8153 71.3632 66.5694C71.2675 66.3234 71.0827 66.1226 70.8455 66.007C70.6319 65.923 70.4013 65.8917 70.1731 65.9157C69.9449 65.9397 69.7258 66.0183 69.5345 66.145C69.3894 66.2784 69.2848 66.45 69.2328 66.6401C69.1807 66.8302 69.1833 67.0311 69.2402 67.2198C69.2971 67.4085 69.406 67.5773 69.5545 67.707C69.7029 67.8366 69.8849 67.9218 70.0796 67.9528ZM69.6863 66.8902C69.6863 66.3106 70.8386 66.2416 70.949 66.8902C71.1629 67.7941 69.6518 67.7389 69.6863 66.8902ZM69.2723 23.7928C68.2097 25.0417 68.465 26.6494 70.1348 27.436C70.5126 27.3385 70.8981 27.2739 71.2871 27.2428C71.7304 27.2719 72.1709 27.3341 72.605 27.4291C73.0653 27.1524 73.4233 26.7336 73.6249 26.2358C73.8265 25.738 73.8608 25.1881 73.7228 24.6691C73.5942 24.2177 73.3435 23.8106 72.9981 23.4928C72.6528 23.1749 72.2263 22.9588 71.7659 22.8681C71.3054 22.7774 70.8288 22.8158 70.3887 22.979C69.9487 23.1422 69.5623 23.4238 69.2723 23.7928ZM68.8859 35.7712C68.8778 35.7305 68.8558 35.6938 68.8237 35.6675C68.7916 35.6412 68.7514 35.6268 68.7099 35.6268C68.6684 35.6268 68.6282 35.6412 68.5961 35.6675C68.564 35.6938 68.5421 35.7305 68.534 35.7712C68.4827 36.1556 68.4528 36.5426 68.4443 36.9304C68.4624 36.9856 68.4975 37.0337 68.5446 37.0677C68.5917 37.1018 68.6483 37.1202 68.7065 37.1202C68.7646 37.1202 68.8212 37.1018 68.8683 37.0677C68.9154 37.0337 68.9505 36.9856 68.9687 36.9304C69.0032 36.8131 68.8859 35.8885 68.8859 35.7712ZM74.33 35.8954C74.3219 35.8547 74.2999 35.818 74.2678 35.7917C74.2357 35.7654 74.1955 35.751 74.154 35.751C74.1125 35.751 74.0723 35.7654 74.0402 35.7917C74.0081 35.818 73.9862 35.8547 73.9781 35.8954C73.9781 35.992 73.8608 36.9235 73.8953 37.0546C73.9134 37.1098 73.9485 37.1579 73.9956 37.1919C74.0427 37.226 74.0993 37.2444 74.1575 37.2444C74.2156 37.2444 74.2722 37.226 74.3193 37.1919C74.3664 37.1579 74.4015 37.1098 74.4197 37.0546C74.4542 36.9235 74.33 35.9989 74.33 35.8954ZM68.9342 33.5011C68.1062 33.4321 67.7267 34.7155 67.7129 34.7707C67.701 34.81 67.7052 34.8525 67.7246 34.8887C67.744 34.9249 67.777 34.952 67.8164 34.9639C67.8557 34.9758 67.8982 34.9715 67.9344 34.9521C67.9706 34.9327 67.9977 34.8997 68.0096 34.8604C68.051 34.7569 68.4926 34.0048 69.0101 34.0324C69.2723 34.0531 69.4034 33.5356 68.9342 33.5011ZM74.537 34.957C74.5242 34.7138 74.4374 34.4804 74.2881 34.288C74.1389 34.0956 73.9344 33.9534 73.7021 33.8806C73.6325 33.8623 73.5586 33.8723 73.4964 33.9086C73.4343 33.9448 73.3892 34.0042 73.3709 34.0738C73.3526 34.1433 73.3626 34.2173 73.3989 34.2794C73.4351 34.3415 73.4945 34.3867 73.5641 34.405C73.7336 34.4653 73.8855 34.5669 74.006 34.7006C74.1265 34.8343 74.2117 34.9959 74.2541 35.1709C74.265 35.2084 74.2905 35.24 74.3248 35.2588C74.3591 35.2775 74.3994 35.2819 74.4369 35.2709C74.4744 35.2599 74.506 35.2345 74.5248 35.2002C74.5436 35.1659 74.5479 35.1256 74.537 35.0881C74.537 35.0881 74.5508 35.0122 74.537 34.957ZM71.3423 38.6209C71.3699 38.6118 71.3939 38.5942 71.411 38.5707C71.428 38.5471 71.4372 38.5188 71.4372 38.4898C71.4372 38.4607 71.428 38.4324 71.411 38.4088C71.3939 38.3853 71.3699 38.3677 71.3423 38.3587C71.0249 38.2966 70.6523 38.2759 70.6523 37.9654C70.6887 37.578 70.7486 37.1932 70.8317 36.8131C70.8355 36.7788 70.827 36.7442 70.8076 36.7157C70.7883 36.6871 70.7594 36.6664 70.7261 36.6572C70.6928 36.6481 70.6574 36.6511 70.6261 36.6657C70.5949 36.6804 70.5699 36.7057 70.5557 36.7372C70.384 37.1821 70.2637 37.645 70.1969 38.1172C70.2107 38.5312 70.6523 38.8417 71.3423 38.6209ZM72.2048 39.5248C72.0529 39.6892 71.8664 39.8178 71.6588 39.9013C71.4512 39.9848 71.2276 40.0212 71.0042 40.0078C70.851 39.9821 70.705 39.9246 70.5755 39.8391C70.4459 39.7535 70.3357 39.6417 70.2521 39.511C70.2328 39.4753 70.2002 39.4487 70.1614 39.437C70.1226 39.4254 70.0807 39.4297 70.0451 39.4489C70.0094 39.4681 69.9828 39.5007 69.9711 39.5395C69.9595 39.5783 69.9637 39.6202 69.983 39.6559C70.0933 39.8951 70.2662 40.1001 70.4835 40.2492C70.7007 40.3983 70.9541 40.4859 71.2171 40.5029C71.48 40.5198 71.7426 40.4655 71.9772 40.3455C72.2117 40.2256 72.4096 40.0445 72.5498 39.8215C72.6395 39.5938 72.3911 39.3592 72.2048 39.5248ZM72.1289 80.5246C72.1461 80.5364 72.1666 80.5428 72.1875 80.5428C72.2085 80.5428 72.2289 80.5364 72.2462 80.5246C72.9845 80.0623 78.539 75.6463 78.9944 75.253C79.0095 75.2389 79.0201 75.2206 79.0248 75.2005C79.0295 75.1803 79.028 75.1592 79.0206 75.1399C79.0132 75.1206 79.0001 75.104 78.9832 75.0921C78.9662 75.0803 78.946 75.0738 78.9254 75.0736C78.9254 75.0736 67.5404 74.8528 65.5325 74.7838C65.4152 74.7838 65.3945 74.908 65.4566 74.9632C65.8223 75.322 70.2314 79.0687 72.1289 80.5246ZM96.1133 133.675C96.6308 132.62 95.6648 130.846 95.2301 130.129C95.2216 130.111 95.2084 130.096 95.1919 130.086C95.1754 130.076 95.1564 130.07 95.1369 130.07C95.1175 130.07 95.0984 130.076 95.0819 130.086C95.0655 130.096 95.0522 130.111 95.0438 130.129C94.6919 130.819 93.9536 132.626 94.6574 133.668C95.1335 134.441 95.7407 134.496 96.1133 133.675ZM54.0923 126.258C54.0233 126.299 48.9725 129.204 48.7793 129.501C48.5861 129.797 48.593 130.018 48.8552 130.039C50.9252 130.17 51.7187 130.343 51.8015 130.439C51.9326 130.901 52.0775 132.778 52.3535 133.151C52.3829 133.197 52.4249 133.233 52.4746 133.256C52.5242 133.278 52.5794 133.286 52.6333 133.278C52.6873 133.27 52.7378 133.247 52.7787 133.211C52.8196 133.175 52.8493 133.127 52.8641 133.075C53.1539 131.985 54.0647 128.59 54.2441 128.031C54.4235 127.472 54.7271 126.03 54.0923 126.258ZM53.9957 126.906C53.9267 127.362 53.5955 128.68 52.6157 132.047C52.5346 131.344 52.3868 130.651 52.1741 129.977C51.3483 129.73 50.4957 129.584 49.6349 129.542C51.0563 128.659 52.5467 127.81 53.975 126.906H53.9957ZM57.6596 129.107C57.7163 129.102 57.7695 129.077 57.8102 129.038C57.8509 128.998 57.8766 128.945 57.8831 128.888C57.8896 128.832 57.8764 128.775 57.8457 128.727C57.8151 128.679 57.7688 128.642 57.7148 128.624C57.4595 128.55 57.1939 128.517 56.9282 128.528V127.527C56.9282 127.48 56.9093 127.434 56.8756 127.401C56.842 127.367 56.7963 127.348 56.7488 127.348C56.7012 127.348 56.6555 127.367 56.6219 127.401C56.5883 127.434 56.5694 127.48 56.5694 127.527C56.5694 127.886 56.5073 128.217 56.4797 128.555C56.1554 128.555 55.8311 128.618 55.493 128.666C55.1549 128.714 55.2998 129.101 55.5482 129.08C55.84 129.063 56.1326 129.063 56.4245 129.08C56.4245 129.383 56.3624 129.708 56.3486 130.018C56.3595 130.09 56.3958 130.156 56.4508 130.203C56.5059 130.25 56.5761 130.276 56.6487 130.276C56.7213 130.276 56.7915 130.25 56.8466 130.203C56.9017 130.156 56.9379 130.09 56.9489 130.018V129.101C57.1854 129.118 57.4228 129.12 57.6596 129.107ZM74.2817 125.333C74.2226 125.159 74.1128 125.007 73.9664 124.897C73.82 124.786 73.6438 124.722 73.4606 124.712C72.8258 124.712 72.2324 125.492 71.7287 126.216H71.6804C71.1905 125.871 71.0387 125.871 70.5833 126.354C69.9761 127.01 70.2314 127.127 71.018 127.734C70.4867 128.473 69.1481 130.377 68.948 130.722C68.7479 131.067 68.1614 132.04 68.81 132.578C68.9431 132.673 69.1042 132.722 69.2678 132.716C69.4314 132.709 69.5884 132.649 69.7139 132.544C70.7161 131.328 71.638 130.049 72.4739 128.714C73.1639 129.128 73.2191 129.211 73.7573 128.769C73.8354 128.718 73.9008 128.65 73.9486 128.57C73.9965 128.49 74.0254 128.4 74.0333 128.307C74.0333 127.969 73.6262 127.734 73.3433 127.507C73.5848 127.155 73.7987 126.817 73.9919 126.465C74.12 126.309 74.2123 126.127 74.2624 125.931C74.3125 125.736 74.319 125.532 74.2817 125.333ZM72.1013 126.472C72.3297 126.163 72.5739 125.866 72.8327 125.582C73.1708 125.216 73.4192 125.126 73.6469 125.285C74.0333 125.54 73.8194 125.768 73.0259 127.21L72.1013 126.472ZM69.1688 132.226C68.7755 132.137 69.0308 131.536 69.2171 131.177C69.4034 130.819 70.8041 128.79 71.3423 127.969C71.5562 128.121 71.915 128.355 72.0875 128.459C71.6183 129.259 70.2866 131.219 70.0175 131.522C69.7484 131.826 69.5 132.302 69.1688 132.226ZM71.1353 126.375L71.2457 126.416C71.3561 126.458 73.6055 128.293 73.6055 128.335C73.5051 128.483 73.3732 128.608 73.2191 128.7C72.9569 128.493 71.3285 127.389 70.7213 126.913C70.8477 126.725 70.986 126.546 71.1353 126.375ZM86.3567 129.818C86.3567 129.818 89.4893 133.178 89.7653 133.268C90.2276 133.392 92.7254 130.508 93.0566 130.122C93.3809 130.398 93.5465 130.446 93.9122 130.08C94.1384 129.844 94.3269 129.574 94.4711 129.28C94.4952 129.235 94.5042 129.183 94.4967 129.132C94.4893 129.081 94.4658 129.034 94.4297 128.997C90.9176 125.437 90.2897 124.774 90.1448 124.719C89.6894 124.526 89.4548 125.085 89.1857 125.285C88.8131 125.644 88.613 125.754 89.2271 126.444C86.4257 129.48 86.2049 129.459 86.3567 129.818ZM89.3099 125.768C89.4937 125.556 89.6995 125.364 89.924 125.195C89.924 125.195 91.994 127.265 93.9536 129.197C93.8283 129.431 93.6754 129.649 93.4982 129.846C93.4223 129.77 89.4203 125.885 89.2823 125.768H89.3099ZM92.7599 129.804C89.7515 132.992 90.0551 132.868 89.7377 132.564C89.5514 132.406 87.2399 130.025 86.888 129.618C87.1364 129.342 89.4272 126.858 89.579 126.72C89.5445 126.748 92.2631 129.377 92.7323 129.804H92.7599Z" fill="white" fill-opacity="0.6"/>
<path d="M89.1167 128.348C88.4267 129.08 87.8885 129.294 87.9644 129.687C88.3014 130.186 88.6899 130.649 89.1236 131.067C89.1501 131.089 89.183 131.101 89.2172 131.101C89.2513 131.102 89.2846 131.091 89.3118 131.07C89.3389 131.049 89.3582 131.02 89.3667 130.987C89.3751 130.954 89.3721 130.919 89.3582 130.888C89.3582 130.888 88.8131 129.956 88.5785 129.646C88.6337 129.577 89.2202 128.79 89.3789 128.611C89.4137 128.576 89.4332 128.529 89.4332 128.48C89.4332 128.43 89.4137 128.383 89.3789 128.348C89.3442 128.314 89.297 128.294 89.2478 128.294C89.1987 128.294 89.1515 128.314 89.1167 128.348Z" fill="white" fill-opacity="0.6"/>
<path d="M99.3009 136.815L82.3821 136.704C82.3821 135.524 82.0026 125.726 81.975 124.892C81.975 124.636 81.5679 124.636 81.5817 124.892C81.5817 125.582 81.8301 136.056 81.8646 136.697H63.4485C63.4485 135.58 63.2691 126.81 63.2553 126.209C63.2553 126.16 63.2357 126.113 63.2007 126.078C63.1658 126.043 63.1184 126.023 63.069 126.023C63.0196 126.023 62.9722 126.043 62.9373 126.078C62.9023 126.113 62.8827 126.16 62.8827 126.209V136.697C61.4475 136.697 46.3227 136.697 44.2527 136.849C44.2086 136.858 44.1688 136.881 44.1401 136.916C44.1115 136.951 44.0959 136.994 44.0959 137.039C44.0959 137.084 44.1115 137.127 44.1401 137.162C44.1688 137.197 44.2086 137.22 44.2527 137.229C46.095 137.312 97.6449 137.408 99.3354 137.015C99.3578 137.006 99.3765 136.99 99.3883 136.969C99.4002 136.949 99.4044 136.924 99.4003 136.901C99.3963 136.877 99.3841 136.856 99.366 136.84C99.3479 136.824 99.3249 136.815 99.3009 136.815ZM49.6761 12.3111C49.8348 12.5871 51.4494 12.6768 51.5943 12.6216C51.6895 12.5882 51.7717 12.5254 51.8289 12.4422C52.3762 12.8988 52.9499 13.3227 53.547 13.7118C53.6322 13.7807 53.7308 13.831 53.8366 13.8595C53.9423 13.888 54.0529 13.8941 54.1611 13.8774C54.4509 13.7946 59.895 10.5516 59.9778 10.4964C60.3366 10.2756 60.3435 10.0548 60.2952 9.90994C60.1917 9.62704 54.6303 7.01884 53.7402 6.04594C53.7144 6.02727 53.6852 6.01389 53.6542 6.00655C53.6232 5.99922 53.5911 5.99809 53.5597 6.00322C53.5283 6.00835 53.4981 6.01964 53.4711 6.03645C53.4441 6.05325 53.4206 6.07524 53.4021 6.10114C52.7121 6.89464 52.098 7.70884 51.4701 8.51614C50.8379 8.49666 50.2061 8.56635 49.5933 8.72314C49.5257 9.91945 49.5534 11.1192 49.6761 12.3111ZM54.4164 10.2411C54.346 10.4338 54.2122 10.5969 54.0369 10.7034C53.6919 10.8207 53.3469 10.4964 53.2296 10.3515C52.8501 9.90994 53.7126 8.97154 54.2853 9.70984C54.3568 9.78456 54.4068 9.87726 54.4299 9.9781C54.453 10.0789 54.4483 10.1841 54.4164 10.2825V10.2411ZM53.9196 8.96464C53.7131 8.92836 53.5006 8.95016 53.3057 9.02762C53.1109 9.10508 52.9414 9.23514 52.8162 9.4033C52.691 9.57147 52.6149 9.77111 52.5965 9.97997C52.5782 10.1888 52.6182 10.3987 52.7121 10.5861C52.8529 10.8179 53.059 11.003 53.3044 11.1184C53.5498 11.2337 53.8238 11.2742 54.0921 11.2347C54.2774 11.1672 54.442 11.0529 54.5702 10.903C54.6983 10.7531 54.7856 10.5727 54.8235 10.3791C55.5825 10.3791 58.1907 10.3791 59.2326 10.3308L54.0921 13.3254C53.8023 13.2012 52.1049 11.9454 51.8979 11.7798C51.8979 11.4003 51.8979 9.13024 51.8496 8.76454C52.4292 8.07454 53.0226 7.33624 53.5884 6.59794C54.4302 7.28794 58.3149 9.35794 59.4534 9.95824H54.8442C54.8142 9.72074 54.7077 9.49944 54.541 9.32769C54.3742 9.15594 54.1561 9.04305 53.9196 9.00604V8.96464ZM50.0556 9.08884L51.3321 9.04054C51.3321 9.25444 51.4149 11.8005 51.3804 12.1593C50.9448 12.1881 50.5073 12.1672 50.0763 12.0972C50.1177 11.6211 50.0832 9.66844 50.0556 9.13024V9.08884ZM28.4517 45.3621C28.5241 45.4039 28.6062 45.4259 28.6898 45.4259C28.7733 45.4259 28.8554 45.4039 28.9278 45.3621C29.4729 45.093 30.5562 44.1477 33.7164 42.057C33.8091 42.0067 33.8891 41.9357 33.9501 41.8496C34.0111 41.7634 34.0515 41.6645 34.0683 41.5602C34.0683 41.5602 34.1856 38.6139 34.02 38.5173C33.4887 38.1861 31.95 37.1373 31.5084 37.2063C31.4532 37.2063 25.6296 40.8357 25.6158 41.0082C25.5581 41.7612 25.5466 42.517 25.5813 43.2714C26.4915 44.0302 27.4504 44.7285 28.4517 45.3621ZM26.0022 41.4843C26.5335 41.8431 28.017 42.8643 28.4241 43.0713V44.6445C25.8435 42.9195 26.0091 43.2093 26.0298 42.6987C26.0367 42.4158 26.016 41.7534 26.0022 41.4843ZM28.707 42.4986C28.6631 42.5311 28.6099 42.5487 28.5552 42.5487C28.5006 42.5487 28.4473 42.5311 28.4034 42.4986C28.293 42.4296 26.7474 41.3256 26.3334 41.0289C31.7568 37.5789 31.5636 37.5375 31.8534 37.641C31.9914 37.6962 32.64 38.1102 33.5163 38.6898C32.4813 39.573 28.8105 42.4296 28.707 42.4986ZM33.537 41.5809C33.3921 41.7189 29.6592 44.196 28.8312 44.7342V43.0092C29.3211 42.6366 32.5572 40.0974 33.5646 39.2349C33.5922 41.5119 33.6336 41.5119 33.5715 41.5809H33.537ZM104.931 45.783C106.22 45.753 107.474 45.3582 108.547 44.6445C109.082 44.3072 109.486 43.7962 109.689 43.197C109.893 42.5978 109.884 41.9469 109.665 41.3532C110.12 41.0082 111.576 39.7731 111.859 39.504C112.445 39.5385 113.129 38.4966 113.494 37.9308C113.646 37.6962 113.846 37.4547 113.743 37.1856C112.811 36.1998 111.825 35.2668 110.789 34.3911C110.72 34.3179 110.63 34.2675 110.532 34.2465C110.433 34.2256 110.33 34.2351 110.237 34.2738C109.55 34.9401 108.931 35.6728 108.388 36.4611C108.364 36.5633 108.377 36.6705 108.423 36.7647C108.423 36.813 107.464 39.5937 107.346 39.9318C106.83 39.984 106.35 40.2233 105.998 40.6046C105.646 40.9859 105.446 41.4829 105.435 42.0018C105.352 44.0166 106.946 44.6652 104.869 45.4104C104.84 45.4352 104.818 45.4669 104.806 45.5026C104.793 45.5383 104.789 45.5768 104.795 45.6142C104.802 45.6517 104.817 45.6869 104.841 45.7165C104.865 45.7461 104.896 45.769 104.931 45.783ZM108.92 36.5853C109.368 35.9268 109.896 35.3265 110.493 34.7982C110.865 35.0949 113.018 37.0821 113.253 37.4064C113.08 37.7031 112.114 38.9589 111.873 38.9865C111.852 38.9658 109.009 36.6681 108.92 36.5853ZM109.416 40.9047C109.065 40.3892 108.524 40.0323 107.912 39.9111C108.05 39.4488 108.554 37.7583 108.726 37.0752C109.251 37.5237 110.548 38.6139 111.341 39.2418C111.031 39.5523 109.858 40.5528 109.416 40.9047ZM106.035 45.2379C106.574 44.748 106.442 44.1063 106.194 43.4922C105.752 42.1122 105.884 41.2221 106.622 40.7322C106.812 40.6114 107.025 40.5297 107.248 40.492C107.47 40.4544 107.698 40.4614 107.918 40.5128C108.137 40.5642 108.345 40.6589 108.527 40.7914C108.71 40.9238 108.864 41.0914 108.982 41.2842C110.072 43.0023 108.029 44.8446 106.035 45.2379ZM61.7925 10.2411C62.0754 10.2411 63.7314 10.0272 65.2425 9.86854C65.2956 9.86854 65.3465 9.84746 65.384 9.80994C65.4215 9.77241 65.4426 9.72151 65.4426 9.66844C65.4426 9.61537 65.4215 9.56448 65.384 9.52695C65.3465 9.48943 65.2956 9.46834 65.2425 9.46834C64.6767 9.52354 62.0202 9.68224 61.7304 9.74434C61.6744 9.76301 61.6266 9.8005 61.5952 9.85043C61.5637 9.90035 61.5505 9.95964 61.5579 10.0182C61.5652 10.0767 61.5926 10.131 61.6353 10.1716C61.6781 10.2123 61.7337 10.2368 61.7925 10.2411ZM67.2021 9.79954C67.3884 9.79954 71.0523 9.49594 71.8596 9.53734C72.1287 9.53734 72.1494 9.14404 71.8596 9.12334C70.2826 9.04644 68.7019 9.09721 67.1331 9.27514C67.0735 9.29469 67.0226 9.33445 66.9892 9.38755C66.9558 9.44065 66.9419 9.50376 66.9501 9.56596C66.9583 9.62816 66.988 9.68555 67.034 9.7282C67.08 9.77085 67.1395 9.79609 67.2021 9.79954ZM73.9365 9.40624L76.9104 9.32344C76.9597 9.31448 77.0043 9.28851 77.0364 9.25005C77.0685 9.21159 77.086 9.16309 77.086 9.11299C77.086 9.0629 77.0685 9.0144 77.0364 8.97594C77.0043 8.93748 76.9597 8.9115 76.9104 8.90254L73.9503 8.81974C73.8799 8.82875 73.8151 8.86269 73.7676 8.91541C73.7201 8.96812 73.693 9.03612 73.6914 9.10706C73.6897 9.17801 73.7135 9.2472 73.7585 9.30209C73.8035 9.35698 73.8666 9.39393 73.9365 9.40624ZM79.2771 9.50284C80.5467 9.50284 85.1283 9.71674 86.2461 9.90994C86.5221 9.96514 86.6187 9.53734 86.3427 9.48904C84.002 9.13309 81.6378 8.95319 79.2702 8.95084C79.197 8.95176 79.1272 8.98171 79.0761 9.03412C79.0249 9.08653 78.9967 9.15709 78.9977 9.23029C78.9986 9.30349 79.0285 9.37333 79.0809 9.42444C79.1333 9.47556 79.2039 9.50376 79.2771 9.50284ZM88.4748 10.6965C90.3015 11.2368 91.9894 12.1667 93.4221 13.422C93.6429 13.6221 93.9534 13.2978 93.7395 13.0977C92.2922 11.7113 90.5309 10.6957 88.6059 10.1376C88.5363 10.1312 88.4666 10.1502 88.4099 10.191C88.3531 10.2319 88.3131 10.2919 88.2971 10.36C88.2811 10.4281 88.2903 10.4997 88.323 10.5615C88.3556 10.6234 88.4096 10.6713 88.4748 10.6965ZM94.5951 19.9011C94.5379 19.9151 94.4878 19.9495 94.4542 19.9978C94.4205 20.0461 94.4057 20.1051 94.4125 20.1636C94.4193 20.2221 94.4472 20.276 94.491 20.3154C94.5348 20.3547 94.5914 20.3767 94.6503 20.3772C95.5611 20.3772 96.6306 19.3146 96.7203 17.8449C96.81 16.3752 95.8026 15.1953 94.8366 14.2086C94.7954 14.1666 94.7392 14.1425 94.6803 14.1419C94.6215 14.1413 94.5647 14.164 94.5227 14.2052C94.4806 14.2464 94.4566 14.3026 94.4559 14.3615C94.4553 14.4203 94.478 14.4771 94.5192 14.5191C95.6094 15.6507 96.1407 16.6857 96.1476 17.6931C96.166 18.1803 96.024 18.6601 95.7436 19.0589C95.4632 19.4577 95.0598 19.7536 94.5951 19.9011ZM87.0672 22.1436C87.7572 22.1436 92.3043 21.1017 93.0564 20.9223C93.1091 20.905 93.1533 20.8684 93.1802 20.8199C93.2072 20.7715 93.2149 20.7146 93.2018 20.6607C93.1888 20.6068 93.156 20.5598 93.1098 20.529C93.0637 20.4982 93.0077 20.4859 92.9529 20.4945C91.9248 20.7291 88.2954 21.3639 87.0189 21.5847C86.9519 21.5995 86.8925 21.6382 86.8518 21.6935C86.8112 21.7488 86.792 21.817 86.7979 21.8854C86.8038 21.9538 86.8344 22.0177 86.8839 22.0652C86.9335 22.1127 86.9986 22.1406 87.0672 22.1436ZM85.1973 21.6882C83.7276 21.8469 82.1889 21.9849 80.7054 22.2057C80.643 22.2244 80.589 22.264 80.5525 22.3179C80.5159 22.3717 80.4991 22.4366 80.5047 22.5014C80.5104 22.5663 80.5383 22.6272 80.5836 22.6739C80.629 22.7206 80.6891 22.7502 80.7537 22.7577C81.1746 22.7577 84.5418 22.3161 85.218 22.2333C85.5699 22.185 85.5492 21.6399 85.1973 21.6882ZM74.7921 23.4546C75.1923 23.4546 77.9523 23.0061 78.594 22.9164C78.6478 22.9029 78.6948 22.8701 78.7262 22.8244C78.7576 22.7786 78.7712 22.7229 78.7644 22.6678C78.7576 22.6127 78.7309 22.562 78.6894 22.5252C78.6479 22.4884 78.5943 22.468 78.5388 22.4679C77.697 22.5645 75.5649 22.7508 74.7369 22.8957C74.6695 22.9108 74.6099 22.9501 74.5694 23.006C74.5289 23.062 74.5103 23.1309 74.5171 23.1996C74.5239 23.2684 74.5556 23.3323 74.6063 23.3792C74.6569 23.4262 74.723 23.453 74.7921 23.4546ZM63.276 24.4482C64.7526 24.4482 66.2637 24.186 67.7265 24.048C68.0301 24.048 68.0301 23.5443 67.7265 23.5719C66.2568 23.6892 64.7181 23.7513 63.2346 23.9583C62.9379 23.9928 62.9724 24.4482 63.276 24.4482ZM56.0034 25.083C55.9428 25.0974 55.8896 25.1334 55.8537 25.1843C55.8178 25.2351 55.8017 25.2974 55.8085 25.3593C55.8152 25.4212 55.8444 25.4785 55.8905 25.5204C55.9366 25.5622 55.9963 25.5859 56.0586 25.5867C56.5278 25.5867 60.3159 25.0278 60.8886 24.9519C60.9489 24.9378 61.0018 24.9015 61.0367 24.8504C61.0717 24.7992 61.0863 24.7369 61.0777 24.6755C61.069 24.6141 61.0378 24.5582 60.99 24.5187C60.9423 24.4792 60.8815 24.459 60.8196 24.462C59.9157 24.5724 56.7693 24.9243 56.0034 25.083ZM45.4947 27.0564C48.1725 26.4945 50.879 26.0799 53.6022 25.8144C53.961 25.8144 53.9472 25.2279 53.6022 25.2624C50.845 25.4267 48.1096 25.8518 45.4326 26.532C45.3733 26.5512 45.3224 26.5904 45.2888 26.6428C45.2551 26.6953 45.2407 26.7579 45.248 26.8198C45.2554 26.8817 45.284 26.9391 45.329 26.9823C45.374 27.0255 45.4325 27.0517 45.4947 27.0564ZM36.2625 30.6168C38.1025 29.5144 40.1123 28.724 42.2103 28.2777C42.576 28.2018 42.4311 27.6498 42.0723 27.7257C39.9117 28.1547 37.8413 28.953 35.952 30.0855C35.8928 30.1318 35.8524 30.198 35.8383 30.2718C35.8242 30.3456 35.8373 30.422 35.8752 30.4868C35.9131 30.5517 35.9732 30.6006 36.0444 30.6245C36.1157 30.6484 36.1931 30.6457 36.2625 30.6168ZM30.432 36.1644C31.1936 34.1133 32.6614 32.4008 34.572 31.3344C34.8273 31.1964 34.6134 30.8169 34.3512 30.948C32.271 31.9821 30.6731 33.7828 29.8938 35.9712C29.7627 36.3576 30.3009 36.5094 30.432 36.1644ZM31.9362 44.4168C31.7292 44.1822 31.398 44.5065 31.5912 44.7342C32.0742 45.2931 34.6203 47.2527 35.1378 47.2527C35.1921 47.2523 35.2447 47.2341 35.2877 47.2008C35.3306 47.1676 35.3615 47.1212 35.3756 47.0688C35.3897 47.0164 35.3862 46.9608 35.3657 46.9105C35.3452 46.8602 35.3088 46.8181 35.262 46.7904C34.0916 46.0896 32.9794 45.2959 31.9362 44.4168ZM41.5548 48.8397C39.9973 48.6858 38.4729 48.2925 37.0353 47.6736C36.7179 47.5356 36.4557 48.0048 36.78 48.1566C38.2739 48.8643 39.8856 49.29 41.5341 49.4124C41.9136 49.4331 41.9136 48.8811 41.5548 48.8397ZM43.0521 49.785C43.8525 49.9023 47.1162 50.4336 47.9442 50.475C48.0128 50.4771 48.0797 50.4535 48.1318 50.4089C48.1839 50.3643 48.2176 50.3019 48.2262 50.2338C48.2348 50.1658 48.2178 50.0969 48.1784 50.0407C48.139 49.9846 48.0801 49.9451 48.0132 49.9299C47.2197 49.7643 43.9836 49.3779 43.1832 49.2399C42.8589 49.233 42.7278 49.7298 43.0521 49.785ZM53.685 50.6268C52.3464 50.7457 50.9974 50.6337 49.6968 50.2956C49.6427 50.2895 49.5881 50.303 49.5431 50.3336C49.4981 50.3642 49.4655 50.41 49.4513 50.4626C49.4371 50.5152 49.4422 50.5711 49.4658 50.6202C49.4893 50.6694 49.5296 50.7084 49.5795 50.7303C50.9223 51.1216 52.3254 51.2643 53.7195 51.1512C54.03 51.1167 54.0231 50.6061 53.685 50.6268ZM99.5424 47.2389C100.98 47.0814 102.398 46.7738 103.772 46.3212C104.062 46.2246 103.938 45.7692 103.641 45.8589C102.301 46.2485 100.926 46.5073 99.5355 46.6317C99.1353 46.6731 99.1422 47.2734 99.5424 47.2389ZM93.1392 47.7633C93.0836 47.7811 93.0358 47.8174 93.0037 47.8661C92.9716 47.9149 92.9571 47.9732 92.9628 48.0312C92.9684 48.0893 92.9938 48.1437 93.0347 48.1854C93.0756 48.227 93.1295 48.2534 93.1875 48.2601C93.6912 48.2601 97.1343 47.6529 97.7208 47.5701C98.0589 47.508 97.9278 47.0181 97.6035 47.0664C95.8233 47.3217 94.4985 47.5011 93.1392 47.7633ZM91.3521 47.9772C89.634 48.2808 87.9021 48.4602 86.2599 48.6189C85.9011 48.6603 85.9149 49.2123 86.2599 49.1847C87.998 49.0447 89.7276 48.8144 91.4418 48.4947C91.4758 48.4889 91.5083 48.4763 91.5374 48.4579C91.5666 48.4394 91.5918 48.4154 91.6116 48.3872C91.6315 48.3591 91.6456 48.3272 91.6532 48.2936C91.6607 48.2599 91.6616 48.2251 91.6557 48.1911C91.6498 48.1572 91.6373 48.1247 91.6188 48.0955C91.6004 48.0664 91.5764 48.0412 91.5482 48.0213C91.52 48.0015 91.4882 47.9873 91.4545 47.9798C91.4209 47.9722 91.3861 47.9714 91.3521 47.9772ZM40.9407 72.5688C41.2443 72.5688 41.2581 72.141 40.9407 72.0996C39.5408 71.8911 38.1178 71.8911 36.7179 72.0996C36.6516 72.1142 36.5933 72.1534 36.5546 72.2092C36.5159 72.265 36.4998 72.3333 36.5094 72.4005C36.519 72.4677 36.5536 72.5288 36.6064 72.5715C36.6591 72.6143 36.7261 72.6355 36.7938 72.6309C38.1715 72.4872 39.5593 72.4664 40.9407 72.5688ZM102.206 72.2031C102.149 72.2211 102.099 72.2582 102.066 72.3083C102.033 72.3583 102.018 72.4182 102.023 72.478C102.029 72.5378 102.055 72.5938 102.097 72.6367C102.139 72.6796 102.194 72.7068 102.254 72.7137C102.323 72.7137 105.959 72.6102 106.836 72.7137C107.07 72.7482 107.146 72.3894 106.912 72.3549C105.35 72.1726 103.776 72.1219 102.206 72.2031ZM100.322 72.7482C100.377 72.7482 100.43 72.7264 100.468 72.6876C100.507 72.6488 100.529 72.5961 100.529 72.5412C100.529 72.4863 100.507 72.4337 100.468 72.3949C100.43 72.3561 100.377 72.3342 100.322 72.3342C99.3051 72.2683 98.2838 72.3402 97.2861 72.5481C96.9894 72.6102 97.0722 73.0449 97.3551 73.0449C98.3283 72.8256 99.3247 72.7259 100.322 72.7482ZM116.027 81.3111C115.971 81.5871 116.372 81.7596 116.489 81.4905C117.082 80.1519 117.379 78.1026 116.634 76.6605C116.489 76.3845 116.075 76.6191 116.213 76.8951C117.048 78.5511 116.247 80.2416 116.027 81.3111ZM32.7021 102.011C31.7313 102.818 30.9193 103.798 30.3078 104.902C30.2942 104.925 30.2852 104.95 30.2813 104.976C30.2774 105.002 30.2787 105.029 30.2851 105.055C30.2981 105.106 30.3311 105.151 30.3768 105.178C30.4226 105.206 30.4773 105.214 30.5291 105.201C30.5809 105.188 30.6254 105.155 30.6528 105.109C31.2841 104.069 32.092 103.147 33.0402 102.384C33.3162 102.184 32.9781 101.825 32.7021 102.011ZM37.3113 97.9609C36.3659 98.6681 35.467 99.4356 34.6203 100.259C34.5791 100.301 34.5564 100.357 34.557 100.416C34.5577 100.475 34.5817 100.531 34.6238 100.572C34.6658 100.614 34.7226 100.636 34.7814 100.636C34.8403 100.635 34.8965 100.611 34.9377 100.569C35.3241 100.162 37.401 98.5405 37.608 98.368C37.815 98.1955 37.5666 97.8712 37.3113 97.9609ZM39.3813 96.7051C39.5262 96.7051 39.0984 96.8431 41.6721 95.1457C41.7258 95.1085 41.7637 95.0527 41.7784 94.9891C41.7931 94.9255 41.7836 94.8587 41.7517 94.8018C41.7198 94.7448 41.6677 94.7019 41.6058 94.6812C41.5439 94.6606 41.4765 94.6638 41.4168 94.6903C40.6564 95.2085 39.9304 95.7755 39.2433 96.3877C39.2201 96.4152 39.2051 96.4486 39.1999 96.4842C39.1947 96.5198 39.1996 96.5561 39.2139 96.5891C39.2282 96.6221 39.2515 96.6505 39.2811 96.6709C39.3107 96.6914 39.3454 96.7032 39.3813 96.7051Z" fill="white" fill-opacity="0.6"/>
<path d="M42.9071 93.9726C43.0865 94.0485 42.9692 93.9726 45.1427 92.5926C45.0028 94.3253 45.0282 96.0674 45.2186 97.7952C44.142 97.2102 43.109 96.5484 42.1274 95.8149C41.9411 95.67 41.6927 95.9322 41.8859 96.0909C42.9582 97.0097 44.1131 97.8274 45.3359 98.5335C46.2403 105.402 49.7446 111.663 55.127 116.025C52.6568 116.605 51.0974 116.929 50.4902 116.991C50.228 116.991 50.228 117.419 50.4902 117.419C51.0905 117.419 54.9131 116.674 55.7204 116.508C65.6288 124.395 78.656 123.622 88.1504 116.356C90.0512 116.859 91.9827 117.237 93.9326 117.488C93.9931 117.483 94.0502 117.458 94.0941 117.416C94.138 117.374 94.1659 117.318 94.1733 117.258C94.1806 117.198 94.1668 117.137 94.1342 117.086C94.1017 117.034 94.0524 116.996 93.9947 116.977C93.1391 116.832 90.7379 116.377 88.6679 115.949C93.8591 111.838 97.3186 105.928 98.3624 99.3891C98.6246 99.2235 98.8799 99.0441 99.1283 98.8578C99.3767 98.6715 99.1283 98.2368 98.8592 98.4093L98.4659 98.6508C99.3077 91.323 96.7271 84.0228 92.1662 78.5373C93.4634 77.109 94.3673 75.4185 93.836 73.5417C94.4899 73.3424 95.156 73.1857 95.8301 73.0725C96.1337 73.0311 96.0233 72.5826 95.7335 72.624C95.0347 72.7134 94.343 72.8517 93.6635 73.038C93.1595 71.7885 92.294 70.7178 91.1778 69.9631C90.0617 69.2083 88.7457 68.8039 87.3983 68.8014C88.5005 67.6426 89.3093 66.2368 89.7571 64.7015C90.2048 63.1662 90.2785 61.546 89.972 59.9763C88.6955 54.1113 84.1346 48.5361 78.3938 45.3276C78.5344 44.5512 78.4919 43.7526 78.2696 42.9954C78.1178 42.3054 77.6624 42.0708 77.1311 41.7258C76.8551 41.5464 76.5929 41.3808 76.3031 41.2152C77.0645 40.0305 77.4626 38.649 77.4485 37.2408C79.001 37.089 79.0562 34.8258 77.3519 34.4808C79.0838 26.3526 64.0487 24.9726 64.9319 34.743C64.6257 34.8304 64.3513 35.0047 64.1419 35.2447C63.9325 35.4847 63.7971 35.7801 63.752 36.0954C63.7112 36.3116 63.7242 36.5345 63.79 36.7444C63.8557 36.9543 63.9722 37.1447 64.1291 37.2989C64.286 37.4531 64.4785 37.5662 64.6895 37.6283C64.9006 37.6904 65.1236 37.6995 65.339 37.6548C65.2757 38.5483 65.462 39.4418 65.8772 40.2354C65.532 40.3148 65.2106 40.475 64.9395 40.703C64.6684 40.9309 64.4553 41.22 64.3178 41.5464C64.0119 42.4173 63.9523 43.3556 64.1453 44.2581C58.6598 46.7607 54.2739 51.176 51.8081 56.6781C49.8554 61.1286 50.8076 64.3854 54.2576 67.7802C52.7126 67.282 51.0428 67.3332 49.5311 67.9251C48.5831 68.3329 47.7352 68.9423 47.0465 69.7108C46.3578 70.4794 45.8447 71.3887 45.5429 72.3756C44.8792 72.2695 44.2053 72.2417 43.535 72.2928C43.4892 72.3015 43.4478 72.3258 43.418 72.3617C43.3882 72.3976 43.3719 72.4428 43.3719 72.4895C43.3719 72.5361 43.3882 72.5813 43.418 72.6172C43.4478 72.6531 43.4892 72.6775 43.535 72.6861C44.1707 72.6591 44.8066 72.7336 45.4187 72.9069C44.9426 75.8118 47.4059 78.2682 49.8002 79.9932C47.2306 83.4844 45.648 87.6029 45.2186 91.9164C44.4089 92.4099 43.628 92.9489 42.8795 93.531C42.8401 93.5544 42.808 93.5881 42.7865 93.6286C42.7651 93.669 42.7553 93.7146 42.7581 93.7603C42.761 93.806 42.7764 93.85 42.8027 93.8874C42.829 93.9249 42.8651 93.9544 42.9071 93.9726ZM73.412 43.0851L73.7018 42.9954C73.8605 43.161 74.2883 43.5336 74.5505 43.7544C72.5012 44.8308 69.962 44.7411 67.3124 43.4508C67.6091 43.1817 68.0921 42.6918 68.2715 42.4848C68.746 42.6665 69.2296 42.8231 69.7205 42.954C69.9219 43.2526 70.1911 43.4994 70.5061 43.6741C70.8211 43.8488 71.1729 43.9466 71.5329 43.9593C71.8929 43.9721 72.2508 43.8996 72.5773 43.7477C72.9039 43.5957 73.1899 43.3687 73.412 43.0851ZM67.892 42.2916C67.6574 42.5538 67.133 43.1127 66.9605 43.2576C66.7673 43.1518 66.5741 43.0414 66.3809 42.9264C66.3434 42.9036 66.2983 42.8965 66.2556 42.9069C66.2129 42.9172 66.1761 42.9441 66.1532 42.9816C66.1303 43.0192 66.1233 43.0642 66.1337 43.1069C66.144 43.1496 66.1709 43.1865 66.2084 43.2093C67.8851 44.2857 69.5204 45.0999 71.5007 45.0999C72.303 45.138 73.1036 44.996 73.8438 44.6844C74.5841 44.3727 75.2452 43.8994 75.7787 43.299C75.8071 43.2698 75.8227 43.2304 75.822 43.1896C75.8214 43.1489 75.8046 43.1101 75.7753 43.0817C75.746 43.0533 75.7066 43.0377 75.6659 43.0384C75.6251 43.039 75.5863 43.0559 75.5579 43.0851C75.3711 43.2393 75.1753 43.3821 74.9714 43.5129C74.7851 43.3542 74.3573 43.0092 74.1503 42.8229C74.8524 42.5579 75.4898 42.1463 76.0202 41.6154C76.7102 41.9081 77.3291 42.3458 77.8349 42.8988C78.0885 43.6505 78.1291 44.4577 77.9522 45.231C77.3174 47.1906 72.1838 49.1295 66.9122 46.3764C65.0561 45.4449 64.2764 44.679 64.6076 42.3606C64.6323 41.9508 64.7897 41.5601 65.0561 41.2476C65.3225 40.9351 65.6834 40.7179 66.0842 40.6287C66.5388 41.325 67.1602 41.8967 67.892 42.2916ZM73.5086 48.1911C74.6333 48.0531 77.3036 47.5425 78.2489 45.7968C83.7344 48.8328 89.4545 55.6224 89.5856 61.8117C89.6329 63.1721 89.3611 64.5246 88.792 65.7611C88.2228 66.9976 87.3722 68.0837 86.3081 68.9325C85.3322 69.112 84.397 69.4674 83.5481 69.9813C84.1553 60.6042 84.176 61.17 84.107 61.101C84.038 61.032 82.9892 61.0251 81.278 60.9837C81.4919 60.7146 82.0646 59.9556 82.1957 59.8038C82.2277 59.77 82.245 59.7248 82.2437 59.6782C82.2424 59.6316 82.2227 59.5875 82.1888 59.5554C82.155 59.5234 82.1098 59.5061 82.0632 59.5074C82.0166 59.5087 81.9724 59.5285 81.9404 59.5623C81.5047 60.046 81.0441 60.5066 80.5604 60.9423H80.4155C80.5915 58.8496 80.6376 56.748 80.5535 54.6495C80.5535 54.4839 80.2637 54.4839 80.2775 54.6495C80.3465 55.6362 79.8842 60.0591 79.829 60.9078C74.6885 60.8043 66.1187 60.7146 60.9437 60.6663C60.3095 58.5208 60.0413 56.2838 60.1502 54.0492C60.1502 53.8146 59.819 53.8146 59.7983 54.0492C59.5752 56.272 59.76 58.5168 60.3434 60.6732H60.1985C59.5071 59.982 58.8508 59.2566 58.232 58.4997C58.2069 58.4652 58.1699 58.4412 58.1281 58.4324C58.0863 58.4236 58.0427 58.4306 58.0058 58.4521C57.9689 58.4735 57.9413 58.5079 57.9282 58.5486C57.9152 58.5893 57.9177 58.6333 57.9353 58.6722C58.0112 58.8171 58.8392 60.0522 59.3843 60.7008H56.7071C56.507 60.7008 56.5691 60.7008 56.5553 60.8595C56.4863 61.6392 56.7347 65.9448 56.9279 69.0084C56.5119 68.749 56.0784 68.5184 55.6307 68.3184C52.0772 64.827 50.1866 62.1084 52.1186 57.444C54.4251 51.8263 58.7706 47.2885 64.2833 44.7411C65.0561 46.3902 68.9822 48.7293 73.5086 48.1911ZM56.9969 61.1907C57.7835 61.1907 81.9887 61.4046 83.6792 61.5564C83.3549 64.275 82.7546 72.3066 82.5476 75.0045H81.0365C80.1809 75.7428 73.8329 81.0144 73.3775 81.4008C73.2188 81.525 73.5086 81.6285 74.1917 82.2426C74.6214 82.558 74.9816 82.9585 75.2499 83.419C75.5181 83.8796 75.6888 84.3905 75.7511 84.9198C75.7529 84.9442 75.7638 84.9671 75.7817 84.9837C75.7997 85.0004 75.8233 85.0096 75.8477 85.0095C78.3041 85.113 80.381 87.3003 78.6767 88.6527C77.1104 89.8947 74.6885 88.6527 73.4879 87.5073C74.5712 86.0928 75.206 84.8577 73.9916 83.5812C73.8467 83.4294 72.2873 82.1598 70.307 80.5452C62.8067 74.4249 63.407 74.7699 63.3104 74.7699C62.924 74.7699 58.8254 74.487 58.0871 74.4456C57.542 70.0296 57.1418 63.5781 56.9969 61.1907ZM64.2143 88.4043C63.2 88.4802 61.4957 88.6113 60.7643 87.5832C60.2882 86.8932 60.9989 86.0859 61.7648 85.8651C63.4415 86.4723 66.0773 87.321 66.9329 87.5901C66.0816 88.0193 65.1613 88.2949 64.2143 88.4043ZM60.6263 88.2663C61.3163 88.9563 62.4893 89.0391 63.4277 89.0253C64.9588 89.0178 66.4608 88.606 67.7816 87.8316C69.2927 88.2732 70.79 88.6527 72.3494 88.9839C72.3681 88.9904 72.3883 88.9905 72.407 88.9842C72.4257 88.978 72.4419 88.9658 72.4529 88.9494C72.7151 88.6251 72.9704 88.2594 73.205 87.9489C74.792 89.4255 77.4416 90.3984 79.07 89.1426C80.2706 88.2111 80.0843 86.6172 78.8837 85.6305C84.5969 83.9538 89.144 81.5457 91.697 79.0134C94.0797 81.7455 95.8432 84.9608 96.8663 88.4386C97.8893 91.9164 98.1479 95.5743 97.6241 99.1614C96.1665 100.115 94.6578 100.988 93.1046 101.777C93.0671 101.796 93.0373 101.827 93.02 101.866C93.0027 101.904 92.9989 101.947 93.0093 101.988C93.0198 102.029 93.0437 102.065 93.0773 102.091C93.1109 102.116 93.1522 102.129 93.1943 102.128C93.284 102.128 96.044 100.797 97.4999 99.9342C96.3083 106.169 92.9622 111.787 88.0469 115.804C86.936 115.57 85.9769 115.349 85.5215 115.211C85.2731 115.128 85.1627 115.501 85.4042 115.59C85.8251 115.742 86.6117 115.956 87.5501 116.198C83.0994 119.589 77.6633 121.435 72.0678 121.455C66.4723 121.475 61.0232 119.668 56.5484 116.308C57.3754 116.135 58.1893 115.905 58.9841 115.618C59.2877 115.487 59.1014 115.038 58.7909 115.107L55.9205 115.797C50.6617 111.576 47.1378 105.57 46.019 98.9199L46.157 98.982C46.4744 99.12 46.7228 98.6853 46.4261 98.5128L45.9155 98.2161C45.0031 91.9184 46.5391 85.5104 50.2073 80.3106C53.6435 82.509 57.3256 84.2968 61.1783 85.6374C60.0881 86.1894 59.7224 87.3762 60.6263 88.2663ZM77.0897 37.0614C76.9448 38.4414 76.7378 39.8214 75.8822 40.884C75.413 41.4705 74.4125 42.3399 73.5914 42.3606C73.0463 42.3606 72.8531 42.0432 72.5012 41.6706C72.0389 41.1324 71.8112 40.8495 71.5628 40.8909C71.0108 40.9599 71.1074 42.0018 70.2242 42.5193C69.9551 42.6711 69.0167 42.402 68.2991 42.057C67.4579 41.6398 66.7645 40.9753 66.3119 40.1527C65.8592 39.33 65.669 38.3886 65.7668 37.4547C65.7668 37.2891 65.5253 37.1856 65.4287 37.2339C65.2788 37.2858 65.118 37.2985 64.9618 37.2708C64.8055 37.2432 64.659 37.176 64.5359 37.0758C64.4129 36.9756 64.3175 36.8456 64.2588 36.6982C64.2001 36.5508 64.1801 36.3908 64.2005 36.2334C64.4627 34.8534 66.0083 35.1984 66.4154 35.9988C66.429 36.019 66.4493 36.0338 66.4727 36.0405C66.4961 36.0472 66.5211 36.0455 66.5433 36.0356C66.5656 36.0257 66.5836 36.0083 66.5943 35.9865C66.605 35.9646 66.6076 35.9397 66.6017 35.916C66.3237 35.1906 66.2891 34.3945 66.5032 33.6477C66.7173 32.9009 67.1684 32.244 67.7885 31.776C68.7742 32.4604 69.9454 32.8272 71.1454 32.8272C72.3453 32.8272 73.5166 32.4604 74.5022 31.776C75.8339 32.811 75.8822 34.9638 75.7856 35.7159C75.7845 35.7341 75.7877 35.7524 75.7949 35.7691C75.8021 35.7859 75.8131 35.8008 75.827 35.8125C75.9443 35.9022 76.1375 35.6676 76.2341 35.5572C76.3582 35.3646 76.5363 35.2128 76.7461 35.1207C76.956 35.0287 77.1883 35.0005 77.414 35.0397C77.6395 35.0727 77.8451 35.1872 77.9919 35.3615C78.1387 35.5358 78.2165 35.7579 78.2105 35.9858C78.2046 36.2136 78.1153 36.4313 77.9596 36.5978C77.8039 36.7642 77.5926 36.8678 77.3657 36.8889C77.3174 36.8475 77.1035 36.9165 77.0897 37.0614Z" fill="white" fill-opacity="0.6"/>
<path d="M67.2022 112.741C67.2712 112.906 67.2022 112.83 67.2022 112.741C65.2531 113.529 63.2371 114.141 61.1785 114.569C60.9301 114.617 61.0129 114.983 61.2613 114.956C63.3927 114.716 65.4699 114.126 67.4092 113.21C67.6921 113.051 67.5058 112.63 67.2022 112.741ZM76.8622 109.808C77.0278 109.808 82.6168 107.614 83.1619 107.262C83.431 107.083 83.2447 106.62 82.9273 106.738C82.3684 106.945 77.9248 109.042 76.8139 109.436C76.7734 109.451 76.7392 109.48 76.7169 109.517C76.6947 109.554 76.6856 109.598 76.6912 109.641C76.6968 109.684 76.7167 109.724 76.7477 109.754C76.7787 109.785 76.819 109.804 76.8622 109.808ZM85.4044 106.151C85.5838 106.151 90.2344 104.033 90.6691 103.702C90.883 103.536 90.7381 103.143 90.4552 103.253C90.0343 103.412 86.2186 105.323 85.3423 105.689C85.2933 105.709 85.2524 105.745 85.226 105.792C85.1995 105.838 85.189 105.891 85.1961 105.944C85.2032 105.996 85.2274 106.045 85.2651 106.083C85.3027 106.12 85.3517 106.144 85.4044 106.151ZM98.9422 92.2822C99.3286 92.5306 100.764 93.6622 101.15 93.9106C101.209 93.9448 101.279 93.9565 101.346 93.9435C101.413 93.9305 101.473 93.8937 101.515 93.8399C101.557 93.7861 101.578 93.7189 101.574 93.6508C101.571 93.5826 101.543 93.518 101.495 93.469C101.129 93.1585 99.5494 92.1718 99.1561 91.9372C99.1103 91.9088 99.0552 91.8998 99.0028 91.9121C98.9504 91.9244 98.905 91.957 98.8766 92.0027C98.8483 92.0485 98.8393 92.1036 98.8515 92.156C98.8638 92.2084 98.8964 92.2538 98.9422 92.2822ZM107.602 98.0092C107.388 97.8367 107.098 98.1472 107.319 98.3266C107.809 98.7337 109.754 100.459 110.293 100.824C110.35 100.853 110.415 100.86 110.477 100.846C110.539 100.832 110.594 100.796 110.633 100.746C110.672 100.696 110.693 100.633 110.691 100.57C110.689 100.506 110.666 100.445 110.624 100.397C110.182 99.9412 108.174 98.4646 107.602 98.0092ZM112.052 101.97C112.011 101.93 111.956 101.907 111.898 101.908C111.84 101.909 111.785 101.932 111.745 101.973C111.705 102.014 111.683 102.07 111.683 102.127C111.684 102.185 111.707 102.24 111.749 102.28C112.615 103.157 113.394 104.116 114.074 105.144C114.295 105.454 114.798 105.144 114.584 104.826C113.864 103.771 113.013 102.812 112.052 101.97ZM102.392 117.881C101.468 117.881 97.4863 117.619 96.5065 117.419C96.4617 117.408 96.4143 117.415 96.3748 117.439C96.3354 117.463 96.307 117.502 96.296 117.547C96.2851 117.591 96.2923 117.639 96.3163 117.678C96.3402 117.718 96.3789 117.746 96.4237 117.757C98.3944 118.127 100.389 118.358 102.392 118.447C102.467 118.447 102.539 118.417 102.592 118.364C102.645 118.311 102.675 118.239 102.675 118.164C102.675 118.089 102.645 118.017 102.592 117.964C102.539 117.911 102.467 117.881 102.392 117.881ZM77.7316 112.92C77.4901 112.803 77.29 113.162 77.5384 113.286C79.2765 114.164 81.1377 114.773 83.0584 115.094C83.431 115.163 83.5759 114.59 83.1964 114.528C81.3088 114.249 79.4693 113.708 77.7316 112.92ZM69.6448 112.444C70.5073 112.258 72.2668 111.754 72.5428 111.713C72.805 111.816 74.4886 112.451 75.3856 112.665C75.4528 112.68 75.5232 112.668 75.5822 112.633C75.6413 112.598 75.6845 112.541 75.7031 112.475C75.7216 112.408 75.7141 112.337 75.682 112.277C75.6499 112.216 75.5957 112.169 75.5305 112.147C74.8405 111.899 74.1505 111.692 73.3846 111.457C73.941 111.272 74.481 111.042 74.9992 110.767C75.0369 110.727 75.0619 110.677 75.0713 110.622C75.0807 110.568 75.074 110.512 75.052 110.461C75.03 110.411 74.9937 110.368 74.9475 110.337C74.9014 110.307 74.8474 110.291 74.7922 110.291C74.0194 110.553 73.2604 110.885 72.5083 111.174C71.6527 110.871 70.8661 110.56 70.114 110.229C69.8656 110.119 69.6655 110.484 69.9208 110.602C70.5487 110.898 71.1766 111.181 71.7976 111.437C71.0641 111.691 70.3179 111.908 69.562 112.085C69.5303 112.108 69.506 112.14 69.4923 112.177C69.4786 112.214 69.476 112.254 69.4848 112.292C69.4936 112.33 69.5135 112.365 69.5419 112.392C69.5704 112.419 69.6062 112.437 69.6448 112.444ZM38.7604 93.2068C38.0704 92.6686 35.4829 90.4468 34.9102 89.8396C34.7239 89.6395 34.4134 89.9362 34.5997 90.1363C35.7259 91.461 37.0122 92.6407 38.4292 93.6484C38.7052 93.8347 39.0226 93.4138 38.7604 93.2068ZM30.5632 125.858C30.1326 122.048 29.3566 118.286 28.2448 114.617C28.8742 115.569 29.8448 116.244 30.9565 116.501C31.0041 116.521 31.0577 116.522 31.1056 116.502C31.1535 116.483 31.1917 116.445 31.2118 116.398C31.2319 116.35 31.2323 116.296 31.2129 116.249C31.1935 116.201 31.1559 116.162 31.1083 116.142C30.2251 115.611 28.8658 115.073 28.4449 113.783C28.6752 113.362 28.7319 112.869 28.603 112.407C28.474 111.945 28.1696 111.553 27.7549 111.312C28.0031 109.847 28.5277 108.442 29.3005 107.172C29.3902 107 29.1556 106.82 29.0245 106.972C28.0398 108.2 27.4376 109.69 27.2926 111.257C27.113 111.27 26.9362 111.31 26.7682 111.374C24.9401 106.649 22.3428 102.259 19.0816 98.3818C19.2071 98.1677 19.2559 97.9173 19.2199 97.6718C19.1838 97.4263 19.0651 97.2004 18.8833 97.0315C18.7016 96.8626 18.4676 96.7608 18.2201 96.7428C17.9726 96.7249 17.7264 96.7919 17.5222 96.9328C17.2891 97.0913 17.1197 97.3273 17.0439 97.5988C16.9682 97.8703 16.9909 98.1599 17.1082 98.4163C17.1863 98.553 17.2914 98.6725 17.417 98.7675C17.5425 98.8625 17.6861 98.9311 17.8389 98.9692C17.9917 99.0072 18.1506 99.0139 18.3061 98.9888C18.4616 98.9638 18.6104 98.9075 18.7435 98.8234C21.941 102.657 24.5035 106.978 26.3335 111.623C25.2088 112.616 26.1886 114.479 27.6031 114.328C28.7693 118.125 29.5824 122.021 30.0319 125.968C29.8249 126.078 29.6645 126.258 29.5801 126.477C29.4956 126.696 29.4929 126.937 29.5724 127.158C29.6519 127.378 29.8083 127.562 30.0128 127.677C30.2173 127.791 30.4562 127.828 30.6856 127.78C30.9149 127.732 31.1194 127.604 31.2614 127.417C31.4034 127.231 31.4734 127 31.4586 126.766C31.4437 126.532 31.3449 126.311 31.1804 126.144C31.0159 125.978 30.7968 125.876 30.5632 125.858ZM18.709 97.8712C18.7332 97.9621 18.7362 98.0574 18.7178 98.1497C18.6993 98.242 18.6599 98.3288 18.6025 98.4035C18.5452 98.4781 18.4714 98.5385 18.387 98.5801C18.3026 98.6217 18.2097 98.6434 18.1156 98.6434C18.0215 98.6434 17.9286 98.6217 17.8442 98.5801C17.7598 98.5385 17.686 98.4781 17.6287 98.4035C17.5713 98.3288 17.5319 98.242 17.5134 98.1497C17.495 98.0574 17.498 97.9621 17.5222 97.8712C17.498 97.7802 17.495 97.6849 17.5134 97.5926C17.5319 97.5003 17.5713 97.4135 17.6287 97.3389C17.686 97.2643 17.7598 97.2038 17.8442 97.1622C17.9286 97.1206 18.0215 97.099 18.1156 97.099C18.2097 97.099 18.3026 97.1206 18.387 97.1622C18.4714 97.2038 18.5452 97.2643 18.6025 97.3389C18.6599 97.4135 18.6993 97.5003 18.7178 97.5926C18.7362 97.6849 18.7332 97.7802 18.709 97.8712ZM31.129 126.789C31.129 127.479 29.9905 127.479 29.9905 126.789C29.9905 126.099 31.1014 126.161 31.1014 126.851L31.129 126.789ZM28.1068 113.265C27.7342 114.417 26.3473 113.61 26.368 112.672C26.368 111.844 27.5203 111.292 27.955 112.085C28.0664 112.264 28.1355 112.465 28.157 112.675C28.1785 112.884 28.1519 113.095 28.0792 113.293L28.1068 113.265ZM128.46 85.5133C128.457 85.3139 128.398 85.1195 128.291 84.9516C128.183 84.7837 128.031 84.649 127.852 84.5624C127.672 84.4758 127.472 84.4409 127.274 84.4613C127.075 84.4818 126.887 84.5569 126.728 84.6784C122.846 82.405 119.506 79.3106 116.944 75.6118C117.131 75.3968 117.26 75.1372 117.318 74.8581C117.376 74.579 117.362 74.2897 117.276 74.0179C117.21 73.807 117.09 73.6168 116.929 73.4659C116.767 73.3151 116.569 73.2087 116.354 73.1573C116.14 73.1058 115.915 73.111 115.703 73.1724C115.49 73.2337 115.298 73.3491 115.143 73.5073C111.823 69.0153 109.449 63.8954 108.167 58.4584C108.297 58.3117 108.376 58.1275 108.394 57.9326C108.411 57.7377 108.366 57.5424 108.264 57.3751C108.188 57.2023 108.057 57.0591 107.893 56.967C107.728 56.875 107.537 56.8391 107.35 56.8648C107.163 56.8905 106.99 56.9764 106.856 57.1096C106.722 57.2427 106.635 57.4159 106.608 57.6028C106.564 57.7598 106.564 57.9258 106.607 58.0831C106.649 58.2405 106.734 58.3833 106.851 58.4964C106.969 58.6096 107.115 58.6889 107.274 58.7259C107.432 58.763 107.598 58.7563 107.753 58.7068C109.025 64.2065 111.437 69.3781 114.833 73.8868C114.76 74.0041 114.707 74.1322 114.674 74.2663C113.798 73.8454 109.444 72.4654 108.989 72.5896C108.795 72.6448 108.885 72.8794 108.989 72.907C110.894 73.4334 112.765 74.0763 114.591 74.8321C114.63 75.0433 114.716 75.243 114.843 75.416C114.971 75.589 115.136 75.7307 115.326 75.8305C115.516 75.9302 115.726 75.9854 115.941 75.9917C116.156 75.998 116.369 75.9554 116.565 75.8671C119.711 80.3383 122.933 83.3536 126.411 85.0855C126.337 85.2529 126.305 85.4363 126.319 85.619C126.333 85.8017 126.393 85.978 126.492 86.132C126.591 86.2861 126.727 86.413 126.888 86.5013C127.048 86.5896 127.228 86.6366 127.412 86.638C127.558 86.645 127.704 86.6201 127.839 86.565C127.975 86.5098 128.097 86.4258 128.197 86.3188C128.297 86.2117 128.372 86.0842 128.417 85.9451C128.463 85.806 128.478 85.6586 128.46 85.5133ZM126.929 85.8583C126.869 85.7708 126.834 85.6693 126.826 85.564C126.818 85.4586 126.837 85.3529 126.883 85.2575C126.928 85.162 126.997 85.08 127.084 85.0196C127.171 84.9592 127.272 84.9224 127.377 84.913C127.542 84.9183 127.699 84.9873 127.815 85.1056C127.931 85.2239 127.996 85.3823 127.998 85.5478C127.998 85.6734 127.958 85.7957 127.882 85.8963C127.807 85.9968 127.701 86.0701 127.58 86.1052C127.459 86.1402 127.331 86.1351 127.213 86.0905C127.096 86.046 126.996 85.9645 126.929 85.8583ZM116.358 75.4669C116.145 75.5356 115.914 75.5309 115.704 75.4533C115.494 75.3757 115.316 75.2299 115.199 75.0391C115.134 74.8856 115.107 74.7189 115.121 74.553C115.135 74.3871 115.188 74.2269 115.277 74.0861C115.366 73.9452 115.487 73.8279 115.631 73.7439C115.774 73.66 115.936 73.6119 116.102 73.6039C116.986 73.6039 117.137 75.1426 116.358 75.4669ZM107.947 57.8512C107.955 57.9162 107.949 57.9821 107.929 58.0446C107.91 58.1071 107.877 58.1648 107.834 58.2139C107.791 58.2629 107.737 58.3022 107.678 58.329C107.618 58.3559 107.553 58.3698 107.488 58.3698C107.422 58.3698 107.358 58.3559 107.298 58.329C107.238 58.3022 107.185 58.2629 107.142 58.2139C107.098 58.1648 107.066 58.1071 107.046 58.0446C107.027 57.9821 107.021 57.9162 107.029 57.8512C107.021 57.7862 107.027 57.7203 107.046 57.6577C107.066 57.5952 107.098 57.5375 107.142 57.4885C107.185 57.4395 107.238 57.4002 107.298 57.3733C107.358 57.3464 107.422 57.3325 107.488 57.3325C107.553 57.3325 107.618 57.3464 107.678 57.3733C107.737 57.4002 107.791 57.4395 107.834 57.4885C107.877 57.5375 107.91 57.5952 107.929 57.6577C107.949 57.7203 107.955 57.7862 107.947 57.8512ZM118.952 113.996C118.971 113.948 118.973 113.895 118.956 113.846C118.94 113.796 118.907 113.755 118.862 113.727C118.517 113.513 117.952 113.872 117.855 114.279C118.09 114.3 118.807 114.272 118.952 113.996Z" fill="white" fill-opacity="0.6"/>
<path d="M117.31 109.436C116.861 108.486 116.357 107.565 115.799 106.676C115.768 106.63 115.721 106.599 115.668 106.587C115.614 106.575 115.558 106.584 115.511 106.613C115.464 106.641 115.43 106.686 115.416 106.739C115.401 106.792 115.407 106.848 115.433 106.896C115.898 107.714 116.302 108.565 116.641 109.443C115.871 109.526 115.139 109.82 114.525 110.293C113.911 110.765 113.44 111.397 113.162 112.12C112.884 112.843 112.81 113.628 112.949 114.39C113.088 115.152 113.434 115.861 113.95 116.439C111.562 117.368 109.037 117.895 106.477 117.999C106.431 118.007 106.39 118.032 106.36 118.067C106.33 118.103 106.314 118.149 106.314 118.195C106.314 118.242 106.33 118.287 106.36 118.323C106.39 118.359 106.431 118.383 106.477 118.392C109.206 118.45 111.919 117.947 114.446 116.915C114.963 117.325 115.57 117.608 116.216 117.74C116.863 117.872 117.532 117.85 118.168 117.676C118.805 117.502 119.391 117.18 119.88 116.736C120.369 116.293 120.747 115.741 120.983 115.124C121.219 114.508 121.306 113.845 121.237 113.188C121.169 112.532 120.947 111.901 120.589 111.346C120.232 110.791 119.748 110.329 119.179 109.996C118.609 109.662 117.969 109.468 117.31 109.429V109.436ZM116.434 115.811C116.365 115.349 116.337 114.88 116.254 114.431H115.24C115.178 114.838 115.178 115.245 115.116 115.653C115.112 115.682 115.103 115.71 115.088 115.735C115.074 115.76 115.055 115.783 115.031 115.801C115.008 115.818 114.982 115.832 114.954 115.839C114.926 115.847 114.896 115.849 114.867 115.846C114.838 115.842 114.81 115.833 114.785 115.818C114.759 115.804 114.737 115.785 114.719 115.762C114.701 115.738 114.688 115.712 114.68 115.684C114.673 115.656 114.67 115.626 114.674 115.597C114.674 115.142 115.054 112.244 115.129 111.837C115.226 111.264 115.53 111.216 115.702 111.237C116.061 111.278 116.158 111.651 116.233 111.927C116.434 112.665 116.923 114.914 117.048 115.659C117.103 116.032 116.496 116.184 116.434 115.811ZM119.532 115.28C118.421 116.053 117.02 115.128 117.462 114.059C117.745 113.369 118.842 112.899 119.304 113.617C119.36 113.733 119.387 113.861 119.384 113.989C119.381 114.118 119.347 114.244 119.286 114.357C119.224 114.47 119.137 114.567 119.031 114.64C118.925 114.713 118.804 114.759 118.676 114.776C118.447 114.806 118.215 114.806 117.986 114.776C118.073 114.873 118.176 114.954 118.29 115.018C118.98 115.308 119.442 114.79 119.58 115.08C119.591 115.109 119.592 115.141 119.583 115.171C119.574 115.2 119.556 115.227 119.532 115.245V115.28Z" fill="white" fill-opacity="0.6"/>
<path d="M115.599 111.968C115.495 112.492 115.378 113.431 115.323 113.865H116.144C116.068 113.513 115.868 112.527 115.73 111.989C115.709 111.899 115.613 111.878 115.599 111.968ZM55.8171 101.639C55.4031 101.39 54.4923 101.363 54.4371 101.908C54.3957 102.211 54.4371 103.426 54.4371 103.75C54.7519 103.741 55.0614 103.667 55.3464 103.533C55.6313 103.399 55.8855 103.207 56.0931 102.97C56.1707 102.868 56.2255 102.749 56.2538 102.624C56.2821 102.498 56.2832 102.368 56.2571 102.242C56.2309 102.116 56.1782 101.997 56.1023 101.893C56.0264 101.789 55.9292 101.702 55.8171 101.639Z" fill="white" fill-opacity="0.6"/>
<path d="M67.6092 109.139C65.702 108.44 63.836 107.634 62.0202 106.724C62.3826 105.983 62.5956 105.178 62.647 104.355C62.6984 103.532 62.5872 102.707 62.3196 101.927C62.0521 101.147 61.6336 100.427 61.0879 99.8087C60.5423 99.1904 59.8802 98.6856 59.1394 98.3231C58.3987 97.9607 57.5938 97.7477 56.7707 97.6963C55.9476 97.6449 55.1225 97.7562 54.3424 98.0237C53.5623 98.2912 52.8426 98.7097 52.2243 99.2554C51.6059 99.801 51.1011 100.463 50.7387 101.204C49.9038 100.759 49.0931 100.271 48.3099 99.7411C48.096 99.6031 47.8959 99.9274 48.096 100.072C49.0275 100.762 49.8072 101.245 50.5317 101.687C48.0546 108.918 57.6801 113.548 61.7787 107.145C63.5774 108.166 65.503 108.946 67.5057 109.463C67.5461 109.469 67.5874 109.46 67.6221 109.439C67.6568 109.417 67.6826 109.384 67.6951 109.345C67.7075 109.306 67.7057 109.264 67.6899 109.226C67.6742 109.188 67.6456 109.157 67.6092 109.139ZM56.5692 103.619C56.0103 104.154 55.2729 104.464 54.4992 104.488V106.42C54.4992 106.499 54.4679 106.574 54.4123 106.63C54.3566 106.686 54.2812 106.717 54.2025 106.717C54.1238 106.717 54.0483 106.686 53.9927 106.63C53.937 106.574 53.9058 106.499 53.9058 106.42C53.9058 106.089 53.7885 103.35 53.7816 103.129C53.7816 102.439 53.5194 101.259 54.4716 100.88C56.2242 100.141 57.8802 102.08 56.5347 103.612L56.5692 103.619ZM59.7432 105.689C59.6466 106.793 58.1631 107.269 57.2799 106.613C57.2169 106.564 57.1746 106.493 57.1611 106.414C57.1476 106.334 57.1639 106.253 57.2068 106.185C57.2496 106.118 57.3161 106.068 57.3933 106.047C57.4705 106.025 57.553 106.033 57.6249 106.068C57.8246 106.202 58.0647 106.262 58.3039 106.238C58.5431 106.214 58.7666 106.108 58.9359 105.937C59.1429 105.723 59.0601 105.296 58.722 105.344C58.4598 105.419 58.1865 105.447 57.9147 105.427C57.7769 105.395 57.6492 105.329 57.543 105.235C57.4368 105.142 57.3555 105.024 57.3062 104.891C57.257 104.758 57.2414 104.616 57.2609 104.475C57.2804 104.335 57.3343 104.202 57.4179 104.088C57.5343 103.923 57.6879 103.789 57.8662 103.695C58.0445 103.6 58.2425 103.55 58.4441 103.546C58.6457 103.543 58.8453 103.587 59.0266 103.675C59.208 103.763 59.366 103.893 59.4879 104.054C59.6949 104.323 59.2671 104.647 59.0601 104.385C58.9636 104.273 58.836 104.192 58.6935 104.153C58.5509 104.113 58.3999 104.117 58.2597 104.164C57.6594 104.385 58.0389 104.978 58.4391 104.854C58.5288 104.826 59.7984 104.626 59.7087 105.661L59.7432 105.689ZM115.612 82.7395C115.389 83.2498 115.133 83.7453 114.847 84.223C114.306 83.4717 113.606 82.8492 112.797 82.4001C111.987 81.9509 111.089 81.6863 110.165 81.6251C109.242 81.5639 108.316 81.7076 107.454 82.0459C106.593 82.3843 105.817 82.909 105.182 83.5823C104.547 84.2557 104.068 85.0611 103.781 85.941C103.494 86.8208 103.404 87.7533 103.52 88.6717C103.635 89.5901 103.952 90.4716 104.447 91.2533C104.943 92.0349 105.606 92.6973 106.387 93.193C105.697 93.8071 104.269 94.8973 103.979 95.125L103.468 94.8904C103.241 94.7869 103.054 95.125 103.289 95.2354C103.395 95.285 103.499 95.3403 103.6 95.401C102.731 96.0311 101.83 96.616 100.902 97.1536C100.853 97.181 100.818 97.2266 100.803 97.2803C100.788 97.334 100.795 97.3914 100.822 97.4399C100.85 97.4884 100.895 97.524 100.949 97.5389C101.003 97.5538 101.06 97.5467 101.109 97.5193C102.247 96.8845 103.227 96.2842 104.089 95.6977C104.719 96.1357 105.306 96.6324 105.842 97.1812C105.896 97.2236 105.964 97.2449 106.032 97.2411C106.101 97.2372 106.166 97.2086 106.215 97.1604C106.264 97.1122 106.294 97.0478 106.299 96.9793C106.304 96.9107 106.284 96.8427 106.242 96.7879C105.704 96.2806 105.125 95.819 104.51 95.4079C104.931 95.1043 106.277 94.1038 106.953 93.5104C108.16 94.1042 109.525 94.2954 110.848 94.0558C112.171 93.8163 113.383 93.1587 114.305 92.1797C115.227 91.2007 115.81 89.9518 115.97 88.6165C116.13 87.2812 115.857 85.9299 115.192 84.7612C115.547 84.1684 115.842 83.5421 116.075 82.8913C116.192 82.5946 115.73 82.4497 115.612 82.7395ZM109.81 90.4261C109.671 89.9597 109.563 89.4849 109.485 89.0047L108.029 89.1496C107.947 89.5843 107.864 90.019 107.795 90.4537C107.726 90.8884 107.16 90.709 107.215 90.3364C107.339 89.4187 108.078 85.5064 108.223 85.1338C108.63 84.3334 109.244 84.8854 109.603 85.7893C109.951 87.2856 110.222 88.7987 110.417 90.3226C110.43 90.4031 110.412 90.4858 110.364 90.5524C110.317 90.6191 110.245 90.6642 110.165 90.6779C110.084 90.6917 110.002 90.6728 109.935 90.6256C109.868 90.5784 109.823 90.5066 109.81 90.4261ZM110.989 85.948C111.024 85.8665 111.076 85.7934 111.141 85.7334C111.207 85.6734 111.284 85.6279 111.368 85.5999C111.452 85.5719 111.541 85.5619 111.629 85.5708C111.717 85.5797 111.803 85.6071 111.88 85.6513C111.948 85.6972 112.006 85.7574 112.049 85.8277C112.092 85.8981 112.119 85.9769 112.129 86.0588C112.139 86.1407 112.131 86.2237 112.106 86.3023C112.081 86.3808 112.039 86.4529 111.983 86.5138C111.896 86.6202 111.775 86.6925 111.64 86.7177C111.505 86.743 111.366 86.7196 111.247 86.6517C111.127 86.5838 111.036 86.4758 110.989 86.347C110.942 86.2181 110.942 86.0767 110.989 85.948ZM112.19 90.3571C112.189 90.4362 112.159 90.5123 112.107 90.5717C112.055 90.631 111.983 90.6695 111.904 90.6804C111.826 90.6912 111.746 90.6736 111.68 90.6308C111.613 90.5879 111.564 90.5226 111.541 90.4468C111.486 90.295 111.383 88.1698 111.383 87.9214C111.383 87.85 111.411 87.7816 111.462 87.7311C111.512 87.6806 111.58 87.6523 111.652 87.6523C111.723 87.6523 111.792 87.6806 111.842 87.7311C111.893 87.7816 111.921 87.85 111.921 87.9214C111.942 88.3147 112.197 90.2398 112.19 90.3571Z" fill="white" fill-opacity="0.6"/>
<path d="M108.168 88.4664L109.368 88.3353C109.248 87.4939 109.044 86.6664 108.761 85.8651C108.602 86.5551 108.312 87.7833 108.168 88.4664ZM41.6722 118.185C41.0926 118.53 41.5687 119.468 42.3622 119.116C42.3622 118.661 42.3208 118.323 42.307 118.164C42.2073 118.116 42.0976 118.093 41.9871 118.097C41.8766 118.101 41.7686 118.131 41.6722 118.185Z" fill="white" fill-opacity="0.6"/>
<path d="M48.3374 117.308C47.1953 117.487 46.043 117.593 44.8874 117.626C44.5769 112.196 36.8075 112.189 36.4901 117.626C35.2914 117.51 34.1117 117.246 32.978 116.839C32.9568 116.828 32.9335 116.822 32.9097 116.82C32.8859 116.818 32.8619 116.821 32.8391 116.828C32.8164 116.836 32.7953 116.847 32.7771 116.863C32.7589 116.878 32.744 116.897 32.7331 116.919C32.7222 116.94 32.7157 116.963 32.7138 116.987C32.7119 117.011 32.7147 117.035 32.722 117.058C32.7294 117.08 32.7412 117.101 32.7567 117.12C32.7722 117.138 32.7912 117.153 32.8124 117.164C33.9622 117.772 35.2219 118.145 36.5177 118.261C36.6484 119.274 37.1435 120.204 37.9105 120.879C38.6775 121.553 39.664 121.925 40.6853 121.925C41.7067 121.925 42.6932 121.553 43.4602 120.879C44.2272 120.204 44.7223 119.274 44.8529 118.261C46.0543 118.138 47.2477 117.947 48.4271 117.688C48.4677 117.668 48.5003 117.635 48.5196 117.594C48.5388 117.553 48.5437 117.507 48.5333 117.463C48.5228 117.418 48.4978 117.379 48.4623 117.351C48.4267 117.323 48.3827 117.308 48.3374 117.308ZM40.0574 119.51C40.0481 119.556 40.0289 119.6 40.0013 119.639C39.9737 119.678 39.9382 119.71 39.8972 119.734C39.8562 119.759 39.8105 119.774 39.7632 119.779C39.7159 119.784 39.6681 119.779 39.6227 119.765C39.4157 119.703 39.4502 119.585 39.119 119.116C39.0155 119.289 38.912 119.468 38.8154 119.648C38.7776 119.709 38.7175 119.754 38.6476 119.773C38.5776 119.792 38.5032 119.783 38.4395 119.749C38.3758 119.714 38.3278 119.656 38.3053 119.588C38.2828 119.519 38.2876 119.444 38.3186 119.378C38.4497 119.13 38.5808 118.875 38.7257 118.626C38.5555 118.449 38.3657 118.292 38.1599 118.157C38.0925 118.11 38.0456 118.038 38.0289 117.958C38.0121 117.877 38.0268 117.793 38.0699 117.722C38.1129 117.652 38.1812 117.601 38.2607 117.579C38.3403 117.557 38.4251 117.567 38.498 117.605C39.3605 118.136 38.8292 118.199 39.4847 117.384C39.7538 117.053 40.2644 117.46 40.0436 117.798C39.8918 118.033 39.6986 118.274 39.533 118.488C39.8711 118.923 40.0919 119.261 40.0505 119.51H40.0574ZM42.9968 119.592C42.85 119.725 42.6763 119.824 42.4877 119.884C42.2991 119.943 42.0999 119.962 41.9036 119.937C41.7072 119.913 41.5184 119.847 41.3499 119.743C41.1814 119.64 41.0371 119.501 40.9268 119.337C40.7864 119.13 40.7118 118.885 40.7131 118.634C40.7143 118.384 40.7912 118.14 40.9338 117.934C41.0763 117.728 41.2778 117.57 41.5117 117.48C41.7457 117.391 42.0012 117.374 42.2447 117.433C42.1851 116.687 42.1643 115.938 42.1826 115.19C42.1837 115.11 42.2142 115.034 42.2683 114.975C42.3223 114.916 42.3962 114.879 42.4757 114.872C42.5552 114.864 42.6347 114.886 42.699 114.933C42.7634 114.98 42.808 115.05 42.8243 115.128C42.9692 116.032 43.0796 118.682 43.0934 118.985C43.1072 119.144 43.1762 119.406 42.9899 119.592H42.9968ZM30.1007 78.7995C30.2249 78.7995 30.2594 78.7995 30.2663 78.7581C30.2663 78.6408 30.0317 77.0883 30.0041 76.902C28.0445 77.1711 28.2929 78.9789 30.1007 78.7995Z" fill="white" fill-opacity="0.6"/>
<path d="M34.9792 72.2584C34.1611 72.3705 33.3502 72.5295 32.5504 72.7345C31.9072 72.1098 31.123 71.6492 30.2641 71.3918C29.4053 71.1343 28.497 71.0875 27.6162 71.2554C26.7355 71.4232 25.9081 71.8007 25.2041 72.356C24.5001 72.9113 23.9403 73.628 23.5719 74.4455C23.2036 75.263 23.0376 76.1571 23.0879 77.0523C23.1383 77.9475 23.4035 78.8174 23.8613 79.5884C24.319 80.3594 24.9557 81.0088 25.7175 81.4816C26.4793 81.9544 27.3438 82.2368 28.2379 82.3048C29.0164 84.4967 30.3729 86.4373 32.164 87.9214C32.1803 87.9373 32.1996 87.9498 32.2207 87.9582C32.2418 87.9666 32.2644 87.9707 32.2872 87.9704C32.3099 87.9701 32.3324 87.9653 32.3533 87.9563C32.3741 87.9473 32.3931 87.9343 32.4089 87.918C32.4248 87.9016 32.4373 87.8824 32.4457 87.8612C32.4541 87.8401 32.4582 87.8175 32.4579 87.7948C32.4576 87.772 32.4528 87.7496 32.4438 87.7287C32.4348 87.7078 32.4218 87.6889 32.4055 87.673C30.9117 86.1097 29.7022 84.2977 28.8313 82.3186C29.8712 82.2794 30.8797 81.9513 31.7437 81.3712C32.6077 80.791 33.293 79.9817 33.7228 79.0339C34.1527 78.0861 34.31 77.0373 34.1773 76.0051C34.0445 74.9729 33.6269 73.9981 32.9713 73.1899C33.7027 72.9967 34.3513 72.8242 35.0413 72.6931C35.3725 72.6379 35.2552 72.2032 34.9792 72.2584ZM26.368 79.2412V74.1076C26.3786 74.0393 26.4133 73.977 26.4658 73.9321C26.5183 73.8871 26.5852 73.8624 26.6543 73.8624C26.7235 73.8624 26.7903 73.8871 26.8428 73.9321C26.8953 73.977 26.93 74.0393 26.9407 74.1076C26.9407 75.1288 27.058 78.5512 27.0787 79.2412C27.0548 79.3168 27.0075 79.3828 26.9436 79.4296C26.8797 79.4765 26.8026 79.5017 26.7233 79.5017C26.6441 79.5017 26.5669 79.4765 26.503 79.4296C26.4391 79.3828 26.3918 79.3168 26.368 79.2412ZM30.5908 79.3102C29.2108 80.0485 27.3685 78.7306 28.2379 77.1919C28.4285 76.918 28.6838 76.6953 28.9811 76.5437C29.2784 76.392 29.6085 76.316 29.9422 76.3225C29.8269 75.5707 29.7578 74.8126 29.7352 74.0524C29.7388 73.9776 29.7688 73.9066 29.8197 73.8517C29.8707 73.7969 29.9394 73.7619 30.0137 73.7528C30.088 73.7437 30.1631 73.7612 30.2258 73.8021C30.2884 73.843 30.3346 73.9048 30.3562 73.9765C30.4735 74.4733 30.8047 77.7784 30.8392 78.2131C30.853 78.5512 31.0048 79.0549 30.5908 79.2757V79.3102Z" fill="white" fill-opacity="0.6"/>
</svg>
