<svg width="200" height="200" viewBox="0 0 200 200" fill="none" xmlns="http://www.w3.org/2000/svg">
<g filter="url(#filter0_d_1598_803)">
<path d="M111.515 47.4858C112.994 44.4633 116.653 43.2253 119.663 44.7288L125.749 47.7681C128.687 49.2355 129.921 52.7768 128.531 55.7522L120.213 73.5533C118.078 78.1228 122.136 83.1478 127.053 82.0233L145.663 77.7668C148.969 77.0107 152.251 79.1154 152.944 82.4352L154.294 88.9051C154.968 92.1357 152.932 95.3114 149.715 96.0477L131.078 100.313C126.126 101.447 124.684 107.805 128.663 110.964L143.888 123.05C146.505 125.127 146.946 128.931 144.875 131.552L140.913 136.564C138.835 139.193 135.018 139.635 132.394 137.552L117.14 125.443C113.17 122.291 107.315 125.119 107.315 130.188V149.026C107.315 152.372 104.603 155.084 101.257 155.084H94.25C90.9042 155.084 88.1919 152.372 88.1919 149.026V130.189C88.1919 125.119 82.337 122.292 78.3669 125.444L63.1142 137.554C60.4896 139.638 56.6718 139.195 54.594 136.566L50.6315 131.551C48.5605 128.93 49.0017 125.128 51.6177 123.051L66.8448 110.961C70.8233 107.802 69.381 101.444 64.429 100.311L45.7929 96.0473C42.5757 95.3112 40.5396 92.1354 41.2136 88.9046L42.5633 82.4352C43.2559 79.1154 46.5385 77.0107 49.8444 77.7668L68.4548 82.0233C73.3715 83.1479 77.429 78.123 75.2941 73.5534L66.9777 55.7533C65.5875 52.7779 66.8213 49.2366 69.7595 47.7693L75.7451 44.7799C78.794 43.2572 82.4985 44.5481 83.9407 47.6358L92.0096 64.9109C94.1641 69.5235 100.702 69.5828 102.94 65.0099L111.515 47.4858Z" fill="url(#paint0_radial_1598_803)"/>
</g>
<g filter="url(#filter1_bf_1598_803)">
<ellipse cx="129.028" cy="120.472" rx="46.9939" ry="36.3078" transform="rotate(-31.3925 129.028 120.472)" fill="#1D1A25" fill-opacity="0.25"/>
</g>
<defs>
<filter id="filter0_d_1598_803" x="25.7378" y="29.5497" width="144.032" height="141.689" filterUnits="userSpaceOnUse" color-interpolation-filters="sRGB">
<feFlood flood-opacity="0" result="BackgroundImageFix"/>
<feColorMatrix in="SourceAlpha" type="matrix" values="0 0 0 0 0 0 0 0 0 0 0 0 0 0 0 0 0 0 127 0" result="hardAlpha"/>
<feOffset dy="0.807743"/>
<feGaussianBlur stdDeviation="7.67356"/>
<feComposite in2="hardAlpha" operator="out"/>
<feColorMatrix type="matrix" values="0 0 0 0 0.776471 0 0 0 0 0.0862745 0 0 0 0 0.823529 0 0 0 0.2 0"/>
<feBlend mode="color-dodge" in2="BackgroundImageFix" result="effect1_dropShadow_1598_803"/>
<feBlend mode="normal" in="SourceGraphic" in2="effect1_dropShadow_1598_803" result="shape"/>
</filter>
<filter id="filter1_bf_1598_803" x="70.6675" y="66.9763" width="116.72" height="106.992" filterUnits="userSpaceOnUse" color-interpolation-filters="sRGB">
<feFlood flood-opacity="0" result="BackgroundImageFix"/>
<feGaussianBlur in="BackgroundImageFix" stdDeviation="1"/>
<feComposite in2="SourceAlpha" operator="in" result="effect1_backgroundBlur_1598_803"/>
<feBlend mode="normal" in="SourceGraphic" in2="effect1_backgroundBlur_1598_803" result="shape"/>
<feGaussianBlur stdDeviation="7" result="effect2_foregroundBlur_1598_803"/>
</filter>
<radialGradient id="paint0_radial_1598_803" cx="0" cy="0" r="1" gradientUnits="userSpaceOnUse" gradientTransform="translate(30.711 32.3071) rotate(49.9697) scale(118.676 229.188)">
<stop offset="0.336458" stop-color="#1CFFFF"/>
<stop offset="0.758333" stop-color="#74C8FF"/>
<stop offset="1" stop-color="#BAB0FF"/>
</radialGradient>
</defs>
</svg>
