<svg width="200" height="209" viewBox="0 0 200 209" fill="none" xmlns="http://www.w3.org/2000/svg">
<g filter="url(#filter0_f_1598_802)">
<path d="M62.1295 48.2369L105.092 83.8975L160.129 74.496L124.469 117.459L133.87 172.496L90.9077 136.835L35.8705 146.237L71.5311 103.274L62.1295 48.2369Z" fill="url(#paint0_linear_1598_802)" fill-opacity="0.2"/>
</g>
<g filter="url(#filter1_d_1598_802)">
<path d="M63.466 57.0609C63.0069 54.3733 66.139 52.565 68.237 54.3063L104.053 84.035C104.713 84.5825 105.579 84.8145 106.424 84.6701L152.306 76.8325C154.993 76.3734 156.801 79.5055 155.06 81.6034L125.331 117.42C124.784 118.079 124.552 118.945 124.696 119.79L132.534 165.672C132.993 168.36 129.861 170.168 127.763 168.427L91.9469 138.698C91.2873 138.15 90.4214 137.918 89.5764 138.063L43.6944 145.9C41.0068 146.36 39.1985 143.227 40.9399 141.129L70.6686 105.313C71.216 104.654 71.448 103.788 71.3037 102.943L63.466 57.0609Z" fill="url(#paint1_linear_1598_802)"/>
</g>
<g filter="url(#filter2_bf_1598_802)">
<ellipse cx="80.6054" cy="70.4885" rx="45.9162" ry="35.5806" transform="rotate(43.8535 80.6054 70.4885)" fill="#1D1A25" fill-opacity="0.25"/>
</g>
<g filter="url(#filter3_bf_1598_802)">
<ellipse cx="78.5136" cy="69.4788" rx="48.8169" ry="35.5806" transform="rotate(43.8535 78.5136 69.4788)" fill="#1D1A25" fill-opacity="0.25"/>
</g>
<defs>
<filter id="filter0_f_1598_802" x="1.60499" y="13.9713" width="192.79" height="192.79" filterUnits="userSpaceOnUse" color-interpolation-filters="sRGB">
<feFlood flood-opacity="0" result="BackgroundImageFix"/>
<feBlend mode="normal" in="SourceGraphic" in2="BackgroundImageFix" result="shape"/>
<feGaussianBlur stdDeviation="17.1328" result="effect1_foregroundBlur_1598_802"/>
</filter>
<filter id="filter1_d_1598_802" x="13.4931" y="28.165" width="169.014" height="169.014" filterUnits="userSpaceOnUse" color-interpolation-filters="sRGB">
<feFlood flood-opacity="0" result="BackgroundImageFix"/>
<feColorMatrix in="SourceAlpha" type="matrix" values="0 0 0 0 0 0 0 0 0 0 0 0 0 0 0 0 0 0 127 0" result="hardAlpha"/>
<feOffset dy="1.30536"/>
<feGaussianBlur stdDeviation="13.3799"/>
<feComposite in2="hardAlpha" operator="out"/>
<feColorMatrix type="matrix" values="0 0 0 0 0.533333 0 0 0 0 0.952941 0 0 0 0 0.647059 0 0 0 0.3 0"/>
<feBlend mode="normal" in2="BackgroundImageFix" result="effect1_dropShadow_1598_802"/>
<feBlend mode="normal" in="SourceGraphic" in2="effect1_dropShadow_1598_802" result="shape"/>
</filter>
<filter id="filter2_bf_1598_802" x="12.5634" y="2.8581" width="136.084" height="135.261" filterUnits="userSpaceOnUse" color-interpolation-filters="sRGB">
<feFlood flood-opacity="0" result="BackgroundImageFix"/>
<feGaussianBlur in="BackgroundImageFix" stdDeviation="4.56875"/>
<feComposite in2="SourceAlpha" operator="in" result="effect1_backgroundBlur_1598_802"/>
<feBlend mode="normal" in="SourceGraphic" in2="effect1_backgroundBlur_1598_802" result="shape"/>
<feGaussianBlur stdDeviation="13.3799" result="effect2_foregroundBlur_1598_802"/>
</filter>
<filter id="filter3_bf_1598_802" x="8.77485" y="0.264538" width="139.478" height="138.429" filterUnits="userSpaceOnUse" color-interpolation-filters="sRGB">
<feFlood flood-opacity="0" result="BackgroundImageFix"/>
<feGaussianBlur in="BackgroundImageFix" stdDeviation="4.56875"/>
<feComposite in2="SourceAlpha" operator="in" result="effect1_backgroundBlur_1598_802"/>
<feBlend mode="normal" in="SourceGraphic" in2="effect1_backgroundBlur_1598_802" result="shape"/>
<feGaussianBlur stdDeviation="13.3799" result="effect2_foregroundBlur_1598_802"/>
</filter>
<linearGradient id="paint0_linear_1598_802" x1="29.2775" y1="150.043" x2="174.374" y2="132.685" gradientUnits="userSpaceOnUse">
<stop offset="0.00563166" stop-color="#AC88D3"/>
<stop offset="0.5" stop-color="#86F4B0"/>
<stop offset="1" stop-color="#C47851"/>
</linearGradient>
<linearGradient id="paint1_linear_1598_802" x1="-1.00923e-06" y1="60.1961" x2="127.5" y2="152" gradientUnits="userSpaceOnUse">
<stop stop-color="#1CFFFF"/>
<stop offset="0.503125" stop-color="#1CFFFF"/>
<stop offset="1" stop-color="#BAB0FF"/>
</linearGradient>
</defs>
</svg>
