<svg width="200" height="200" viewBox="0 0 200 200" fill="none" xmlns="http://www.w3.org/2000/svg">
<g clip-path="url(#clip0_747_2471)">
<g filter="url(#filter0_f_747_2471)">
<path d="M66.1295 39.2369L109.092 74.8975L164.129 65.496L128.469 108.459L137.87 163.496L94.9077 127.835L39.8705 137.237L75.5311 94.2741L66.1295 39.2369Z" fill="url(#paint0_linear_747_2471)" fill-opacity="0.2"/>
</g>
<g filter="url(#filter1_d_747_2471)">
<path d="M67.466 47.0609C67.0069 44.3733 70.139 42.565 72.237 44.3063L108.053 74.035C108.713 74.5825 109.579 74.8145 110.424 74.6701L156.306 66.8325C158.993 66.3734 160.801 69.5055 159.06 71.6034L129.331 107.42C128.784 108.079 128.552 108.945 128.696 109.79L136.534 155.672C136.993 158.36 133.861 160.168 131.763 158.427L95.9468 128.698C95.2873 128.15 94.4214 127.918 93.5764 128.063L47.6944 135.9C45.0068 136.36 43.1985 133.227 44.9399 131.129L74.6685 95.3133C75.216 94.6537 75.448 93.7879 75.3037 92.9429L67.466 47.0609Z" fill="url(#paint1_linear_747_2471)"/>
</g>
<g filter="url(#filter2_bf_747_2471)">
<ellipse cx="84.6054" cy="61.4885" rx="45.9162" ry="35.5806" transform="rotate(43.8535 84.6054 61.4885)" fill="#1D1A25" fill-opacity="0.25"/>
</g>
<g filter="url(#filter3_bf_747_2471)">
<ellipse cx="82.5138" cy="59.4788" rx="48.8169" ry="35.5806" transform="rotate(43.8535 82.5138 59.4788)" fill="#1D1A25" fill-opacity="0.25"/>
</g>
</g>
<defs>
<filter id="filter0_f_747_2471" x="5.60499" y="4.97132" width="192.79" height="192.79" filterUnits="userSpaceOnUse" color-interpolation-filters="sRGB">
<feFlood flood-opacity="0" result="BackgroundImageFix"/>
<feBlend mode="normal" in="SourceGraphic" in2="BackgroundImageFix" result="shape"/>
<feGaussianBlur stdDeviation="17.1328" result="effect1_foregroundBlur_747_2471"/>
</filter>
<filter id="filter1_d_747_2471" x="17.4931" y="18.165" width="169.014" height="169.014" filterUnits="userSpaceOnUse" color-interpolation-filters="sRGB">
<feFlood flood-opacity="0" result="BackgroundImageFix"/>
<feColorMatrix in="SourceAlpha" type="matrix" values="0 0 0 0 0 0 0 0 0 0 0 0 0 0 0 0 0 0 127 0" result="hardAlpha"/>
<feOffset dy="1.30536"/>
<feGaussianBlur stdDeviation="13.3799"/>
<feComposite in2="hardAlpha" operator="out"/>
<feColorMatrix type="matrix" values="0 0 0 0 0.533333 0 0 0 0 0.952941 0 0 0 0 0.647059 0 0 0 0.3 0"/>
<feBlend mode="normal" in2="BackgroundImageFix" result="effect1_dropShadow_747_2471"/>
<feBlend mode="normal" in="SourceGraphic" in2="effect1_dropShadow_747_2471" result="shape"/>
</filter>
<filter id="filter2_bf_747_2471" x="16.5637" y="-6.1419" width="136.084" height="135.261" filterUnits="userSpaceOnUse" color-interpolation-filters="sRGB">
<feFlood flood-opacity="0" result="BackgroundImageFix"/>
<feGaussianBlur in="BackgroundImageFix" stdDeviation="4.56875"/>
<feComposite in2="SourceAlpha" operator="in" result="effect1_backgroundBlur_747_2471"/>
<feBlend mode="normal" in="SourceGraphic" in2="effect1_backgroundBlur_747_2471" result="shape"/>
<feGaussianBlur stdDeviation="13.3799" result="effect2_foregroundBlur_747_2471"/>
</filter>
<filter id="filter3_bf_747_2471" x="12.7749" y="-9.73552" width="139.478" height="138.429" filterUnits="userSpaceOnUse" color-interpolation-filters="sRGB">
<feFlood flood-opacity="0" result="BackgroundImageFix"/>
<feGaussianBlur in="BackgroundImageFix" stdDeviation="4.56875"/>
<feComposite in2="SourceAlpha" operator="in" result="effect1_backgroundBlur_747_2471"/>
<feBlend mode="normal" in="SourceGraphic" in2="effect1_backgroundBlur_747_2471" result="shape"/>
<feGaussianBlur stdDeviation="13.3799" result="effect2_foregroundBlur_747_2471"/>
</filter>
<linearGradient id="paint0_linear_747_2471" x1="33.2775" y1="141.043" x2="178.374" y2="123.685" gradientUnits="userSpaceOnUse">
<stop offset="0.00563166" stop-color="#AC88D3"/>
<stop offset="0.5" stop-color="#86F4B0"/>
<stop offset="1" stop-color="#C47851"/>
</linearGradient>
<linearGradient id="paint1_linear_747_2471" x1="4" y1="50.1961" x2="131.5" y2="142" gradientUnits="userSpaceOnUse">
<stop stop-color="#1CFFFF"/>
<stop offset="0.503125" stop-color="#1CFFFF"/>
<stop offset="1" stop-color="#BAB0FF"/>
</linearGradient>
<clipPath id="clip0_747_2471">
<rect width="200" height="200" fill="white"/>
</clipPath>
</defs>
</svg>
