<svg width="200" height="200" viewBox="0 0 200 200" fill="none" xmlns="http://www.w3.org/2000/svg">
<g clip-path="url(#clip0_747_2479)">
<g filter="url(#filter0_d_747_2479)">
<path d="M152.923 81.4701C152.923 112.972 127.385 138.509 95.8835 138.509C64.3816 138.509 38.8442 112.972 38.8442 81.4701C38.8442 49.9682 64.3816 24.4308 95.8835 24.4308C127.385 24.4308 152.923 49.9682 152.923 81.4701ZM70.3136 81.4701C70.3136 95.592 81.7617 107.04 95.8835 107.04C110.005 107.04 121.453 95.592 121.453 81.4701C121.453 67.3483 110.005 55.9002 95.8835 55.9002C81.7617 55.9002 70.3136 67.3483 70.3136 81.4701Z" fill="url(#paint0_radial_747_2479)" fill-opacity="0.2" shape-rendering="crispEdges"/>
</g>
<path d="M152.923 81.4701C152.923 112.972 127.385 138.509 95.8835 138.509C64.3816 138.509 38.8442 112.972 38.8442 81.4701C38.8442 49.9682 64.3816 24.4308 95.8835 24.4308C127.385 24.4308 152.923 49.9682 152.923 81.4701ZM70.3136 81.4701C70.3136 95.592 81.7617 107.04 95.8835 107.04C110.005 107.04 121.453 95.592 121.453 81.4701C121.453 67.3483 110.005 55.9002 95.8835 55.9002C81.7617 55.9002 70.3136 67.3483 70.3136 81.4701Z" fill="url(#paint1_radial_747_2479)"/>
<g filter="url(#filter1_bf_747_2479)">
<path d="M78.0588 130.983C60.8061 137.453 25.6407 150.974 23 153.297C32.6386 162.276 57.1444 181.104 78.0588 184.59C104.202 188.947 121.102 173.235 151.47 167.029C175.765 162.064 178.318 137.145 176.557 125.306L169.031 14C156.708 17.785 132.061 25.8304 132.061 27.7317C132.061 29.633 139.983 60.7405 143.944 76.0566L132.061 92.1649L111.728 130.983H78.0588Z" fill="#1D1A25" fill-opacity="0.25"/>
</g>
<g filter="url(#filter2_bf_747_2479)">
<path d="M78.0588 130.983C60.8061 137.453 25.6407 150.974 23 153.297C32.6386 162.276 57.1444 181.104 78.0588 184.59C104.202 188.947 121.102 173.235 151.47 167.029C175.765 162.064 178.318 137.145 176.557 125.306L169.031 14C156.708 17.785 132.061 25.8304 132.061 27.7317C132.061 29.633 139.983 60.7405 143.944 76.0566L132.061 92.1649L111.728 130.983H78.0588Z" fill="#1D1A25" fill-opacity="0.25"/>
</g>
</g>
<defs>
<filter id="filter0_d_747_2479" x="20.8874" y="7.53032" width="149.992" height="149.992" filterUnits="userSpaceOnUse" color-interpolation-filters="sRGB">
<feFlood flood-opacity="0" result="BackgroundImageFix"/>
<feColorMatrix in="SourceAlpha" type="matrix" values="0 0 0 0 0 0 0 0 0 0 0 0 0 0 0 0 0 0 127 0" result="hardAlpha"/>
<feOffset dy="1.05628"/>
<feGaussianBlur stdDeviation="8.97841"/>
<feComposite in2="hardAlpha" operator="out"/>
<feColorMatrix type="matrix" values="0 0 0 0 0.647059 0 0 0 0 0.588235 0 0 0 0 0.870588 0 0 0 0.4 0"/>
<feBlend mode="normal" in2="BackgroundImageFix" result="effect1_dropShadow_747_2479"/>
<feBlend mode="normal" in="SourceGraphic" in2="effect1_dropShadow_747_2479" result="shape"/>
</filter>
<filter id="filter1_bf_747_2479" x="1.3462" y="-7.6538" width="197.308" height="214.65" filterUnits="userSpaceOnUse" color-interpolation-filters="sRGB">
<feFlood flood-opacity="0" result="BackgroundImageFix"/>
<feGaussianBlur in="BackgroundImageFix" stdDeviation="3.69699"/>
<feComposite in2="SourceAlpha" operator="in" result="effect1_backgroundBlur_747_2479"/>
<feBlend mode="normal" in="SourceGraphic" in2="effect1_backgroundBlur_747_2479" result="shape"/>
<feGaussianBlur stdDeviation="10.8269" result="effect2_foregroundBlur_747_2479"/>
</filter>
<filter id="filter2_bf_747_2479" x="1.3462" y="-7.6538" width="197.308" height="214.65" filterUnits="userSpaceOnUse" color-interpolation-filters="sRGB">
<feFlood flood-opacity="0" result="BackgroundImageFix"/>
<feGaussianBlur in="BackgroundImageFix" stdDeviation="3.69699"/>
<feComposite in2="SourceAlpha" operator="in" result="effect1_backgroundBlur_747_2479"/>
<feBlend mode="normal" in="SourceGraphic" in2="effect1_backgroundBlur_747_2479" result="shape"/>
<feGaussianBlur stdDeviation="10.8269" result="effect2_foregroundBlur_747_2479"/>
</filter>
<radialGradient id="paint0_radial_747_2479" cx="0" cy="0" r="1" gradientUnits="userSpaceOnUse" gradientTransform="translate(63.1387 37.6344) rotate(62.8122) scale(108.655)">
<stop offset="0.168148" stop-color="#EE55A5"/>
<stop offset="0.57075" stop-color="#E7B6E0"/>
<stop offset="1" stop-color="#6C2E8D"/>
</radialGradient>
<radialGradient id="paint1_radial_747_2479" cx="0" cy="0" r="1" gradientUnits="userSpaceOnUse" gradientTransform="translate(63.1387 37.6344) rotate(62.8122) scale(108.655)">
<stop offset="0.168148" stop-color="#74C8FF"/>
<stop offset="0.57075" stop-color="#9CEBD8"/>
<stop offset="1" stop-color="#BAB0FF"/>
</radialGradient>
<clipPath id="clip0_747_2479">
<rect width="200" height="200" fill="white"/>
</clipPath>
</defs>
</svg>
