<svg width="202" height="222" viewBox="0 0 202 222" fill="none" xmlns="http://www.w3.org/2000/svg">
<g filter="url(#filter0_d_1598_804)">
<path d="M155.923 96.4702C155.923 127.972 130.385 153.509 98.8835 153.509C67.3816 153.509 41.8442 127.972 41.8442 96.4702C41.8442 64.9683 67.3816 39.4309 98.8835 39.4309C130.385 39.4309 155.923 64.9683 155.923 96.4702ZM73.3136 96.4702C73.3136 110.592 84.7617 122.04 98.8835 122.04C113.005 122.04 124.453 110.592 124.453 96.4702C124.453 82.3483 113.005 70.9003 98.8835 70.9003C84.7617 70.9003 73.3136 82.3483 73.3136 96.4702Z" fill="url(#paint0_radial_1598_804)" fill-opacity="0.2" shape-rendering="crispEdges"/>
</g>
<path d="M155.923 96.4702C155.923 127.972 130.385 153.509 98.8835 153.509C67.3816 153.509 41.8442 127.972 41.8442 96.4702C41.8442 64.9683 67.3816 39.4309 98.8835 39.4309C130.385 39.4309 155.923 64.9683 155.923 96.4702ZM73.3136 96.4702C73.3136 110.592 84.7617 122.04 98.8835 122.04C113.005 122.04 124.453 110.592 124.453 96.4702C124.453 82.3483 113.005 70.9003 98.8835 70.9003C84.7617 70.9003 73.3136 82.3483 73.3136 96.4702Z" fill="url(#paint1_radial_1598_804)"/>
<g filter="url(#filter1_bf_1598_804)">
<path d="M81.0588 145.983C63.8061 152.453 28.6407 165.974 26 168.297C35.6386 177.276 60.1444 196.104 81.0588 199.59C107.202 203.947 124.102 188.235 154.47 182.029C178.765 177.064 181.318 152.145 179.557 140.306L172.031 29C159.708 32.785 135.061 40.8304 135.061 42.7317C135.061 44.633 142.983 75.7405 146.944 91.0566L135.061 107.165L114.728 145.983H81.0588Z" fill="#1D1A25" fill-opacity="0.25"/>
</g>
<g filter="url(#filter2_bf_1598_804)">
<path d="M81.0588 145.983C63.8061 152.453 28.6407 165.974 26 168.297C35.6386 177.276 60.1444 196.104 81.0588 199.59C107.202 203.947 124.102 188.235 154.47 182.029C178.765 177.064 181.318 152.145 179.557 140.306L172.031 29C159.708 32.785 135.061 40.8304 135.061 42.7317C135.061 44.633 142.983 75.7405 146.944 91.0566L135.061 107.165L114.728 145.983H81.0588Z" fill="#1D1A25" fill-opacity="0.25"/>
</g>
<defs>
<filter id="filter0_d_1598_804" x="23.8874" y="22.5304" width="149.992" height="149.992" filterUnits="userSpaceOnUse" color-interpolation-filters="sRGB">
<feFlood flood-opacity="0" result="BackgroundImageFix"/>
<feColorMatrix in="SourceAlpha" type="matrix" values="0 0 0 0 0 0 0 0 0 0 0 0 0 0 0 0 0 0 127 0" result="hardAlpha"/>
<feOffset dy="1.05628"/>
<feGaussianBlur stdDeviation="8.97841"/>
<feComposite in2="hardAlpha" operator="out"/>
<feColorMatrix type="matrix" values="0 0 0 0 0.647059 0 0 0 0 0.588235 0 0 0 0 0.870588 0 0 0 0.4 0"/>
<feBlend mode="normal" in2="BackgroundImageFix" result="effect1_dropShadow_1598_804"/>
<feBlend mode="normal" in="SourceGraphic" in2="effect1_dropShadow_1598_804" result="shape"/>
</filter>
<filter id="filter1_bf_1598_804" x="4.3462" y="7.3462" width="197.308" height="214.65" filterUnits="userSpaceOnUse" color-interpolation-filters="sRGB">
<feFlood flood-opacity="0" result="BackgroundImageFix"/>
<feGaussianBlur in="BackgroundImageFix" stdDeviation="3.69699"/>
<feComposite in2="SourceAlpha" operator="in" result="effect1_backgroundBlur_1598_804"/>
<feBlend mode="normal" in="SourceGraphic" in2="effect1_backgroundBlur_1598_804" result="shape"/>
<feGaussianBlur stdDeviation="10.8269" result="effect2_foregroundBlur_1598_804"/>
</filter>
<filter id="filter2_bf_1598_804" x="4.3462" y="7.3462" width="197.308" height="214.65" filterUnits="userSpaceOnUse" color-interpolation-filters="sRGB">
<feFlood flood-opacity="0" result="BackgroundImageFix"/>
<feGaussianBlur in="BackgroundImageFix" stdDeviation="3.69699"/>
<feComposite in2="SourceAlpha" operator="in" result="effect1_backgroundBlur_1598_804"/>
<feBlend mode="normal" in="SourceGraphic" in2="effect1_backgroundBlur_1598_804" result="shape"/>
<feGaussianBlur stdDeviation="10.8269" result="effect2_foregroundBlur_1598_804"/>
</filter>
<radialGradient id="paint0_radial_1598_804" cx="0" cy="0" r="1" gradientUnits="userSpaceOnUse" gradientTransform="translate(66.1387 52.6344) rotate(62.8122) scale(108.655)">
<stop offset="0.168148" stop-color="#EE55A5"/>
<stop offset="0.57075" stop-color="#E7B6E0"/>
<stop offset="1" stop-color="#6C2E8D"/>
</radialGradient>
<radialGradient id="paint1_radial_1598_804" cx="0" cy="0" r="1" gradientUnits="userSpaceOnUse" gradientTransform="translate(66.1387 52.6344) rotate(62.8122) scale(108.655)">
<stop offset="0.168148" stop-color="#74C8FF"/>
<stop offset="0.57075" stop-color="#9CEBD8"/>
<stop offset="1" stop-color="#BAB0FF"/>
</radialGradient>
</defs>
</svg>
